<svg width="255" height="43" viewBox="0 0 255 43" fill="none" xmlns="http://www.w3.org/2000/svg">
<path d="M215.588 14.1962C215.275 14.2251 214.958 14.2473 214.651 14.2869C214.452 14.3119 214.365 14.254 214.231 14.2257C214.187 14.2159 214.139 14.1952 214.098 14.1988C213.787 14.2276 213.477 14.2592 213.167 14.2907C213.074 14.3459 213.015 14.418 212.87 14.4472C212.728 14.4749 212.56 14.4787 212.401 14.4946C212.193 14.5143 211.984 14.534 211.775 14.5524C211.67 14.5615 211.585 14.5893 211.552 14.6391C211.546 14.6474 211.616 14.6662 211.654 14.6776C211.782 14.7155 211.906 14.7589 212.047 14.787C212.18 14.8139 212.344 14.7612 212.488 14.7961C212.81 14.8745 212.813 14.873 213.057 14.8512C213.266 14.8314 213.474 14.8104 213.683 14.7947C213.724 14.7911 213.772 14.8104 213.817 14.8203C213.951 14.8472 214.038 14.9132 214.234 14.8829C214.382 14.8591 214.547 14.8513 214.702 14.8369C214.833 14.8734 214.955 14.9155 215.095 14.9436C215.225 14.9706 215.264 14.9929 215.195 15.0339C215.133 15.0721 215.044 15.089 214.927 15.0944C214.822 15.0982 214.718 15.1128 214.614 15.1219C214.56 15.1272 214.509 15.1311 214.459 15.1364C214.259 15.1559 214.259 15.1559 213.893 15.0771C213.749 15.0463 213.589 15.0976 213.452 15.0681C213.359 15.0484 213.279 15.0176 213.19 14.9965C213.152 14.9878 213.092 14.9878 213.044 14.9916C212.886 15.0047 212.727 15.0151 212.576 15.0363C212.468 15.051 212.406 15.0905 212.419 15.1283C212.423 15.1432 212.499 15.1632 212.544 15.1636C212.645 15.164 212.753 15.1425 212.851 15.1498C212.946 15.1571 213.045 15.1821 213.116 15.2104C213.26 15.2697 213.42 15.2103 213.557 15.2235C213.7 15.238 213.818 15.2897 213.955 15.3193C213.99 15.3266 214.057 15.3115 214.11 15.3062C214.266 15.2931 214.421 15.2815 214.576 15.2684C214.707 15.3049 214.847 15.3371 214.965 15.3793C215.18 15.4561 215.408 15.4822 215.683 15.4365C215.838 15.4112 215.99 15.4159 216.115 15.4661C216.243 15.5176 216.389 15.5089 216.55 15.4943C216.699 15.4801 216.851 15.4467 217.004 15.4813C217.335 15.5581 217.338 15.5621 217.728 15.5206C217.845 15.5084 217.933 15.5037 218.023 15.533C218.106 15.5597 218.195 15.5821 218.281 15.6074C218.436 15.5943 218.595 15.5812 218.75 15.5668C218.949 15.5473 219.06 15.5638 219.11 15.6389C219.139 15.6845 219.153 15.7264 219.224 15.7561C219.307 15.7923 219.396 15.7889 219.516 15.7753C219.63 15.7631 219.712 15.7463 219.758 15.6963C219.777 15.6755 219.814 15.6555 219.849 15.6384C219.877 15.6255 219.921 15.6055 219.946 15.6076C219.994 15.612 220.058 15.6255 220.074 15.6428C220.233 15.8039 220.233 15.8052 220.393 15.8492C220.568 15.8983 220.75 15.9418 220.91 15.998C221.054 16.0478 221.196 16.0215 221.351 16.018C221.468 16.0153 221.545 16.0489 221.537 16.0845C221.531 16.105 221.487 16.136 221.449 16.1395C221.139 16.1738 220.826 16.2041 220.513 16.2302C220.475 16.2338 220.426 16.2104 220.382 16.1992C220.292 16.1767 220.212 16.1404 220.117 16.1344C220.022 16.1284 219.911 16.1514 219.807 16.1605C219.702 16.1697 219.592 16.1899 219.497 16.1812C219.401 16.1725 219.324 16.1348 219.235 16.111C219.193 16.0997 219.136 16.0833 219.101 16.0882C218.871 16.1261 218.698 16.0851 218.532 16.029C218.497 16.0175 218.437 16.0107 218.392 16.0144C218.025 16.0459 217.661 16.0814 217.294 16.1156C217.145 16.1299 217.024 16.085 216.99 16.0055C216.973 15.961 216.941 15.9168 216.94 15.8719C216.938 15.7903 216.762 15.7494 216.636 15.7618C216.427 15.7802 216.215 15.7959 216.009 15.8209C215.842 15.8411 215.699 15.828 215.583 15.7816C215.449 15.7289 215.297 15.7432 215.145 15.7617C215.032 15.7751 215.001 15.8207 215.01 15.9335C215.018 16.0245 214.965 16.0542 214.759 16.0739C214.5 16.0988 214.237 16.1239 213.974 16.1448C213.933 16.1485 213.885 16.1264 213.844 16.1151C213.754 16.0927 213.674 16.055 213.579 16.049C213.484 16.0417 213.373 16.0646 213.269 16.0751C213.164 16.0843 213.054 16.1059 212.959 16.0985C212.863 16.0911 212.783 16.0521 212.697 16.0283C212.655 16.0169 212.604 16.0004 212.563 16.0041C212.354 16.0197 212.145 16.0408 211.937 16.0605C211.702 16.0822 211.702 16.0822 211.368 16.0054C211.215 15.9708 211.063 16.0042 210.914 16.0184C210.756 16.0329 210.607 16.0417 210.482 15.9901C210.399 15.9566 210.307 15.937 210.209 15.946C209.946 15.9683 209.687 15.9946 209.424 16.0169C209.38 16.0206 209.319 16.0152 209.284 16.0038C209.115 15.9505 208.949 15.9093 208.715 15.9432C208.513 15.9723 208.294 15.9786 208.092 16.0064C207.981 16.0211 207.931 16.0658 207.954 16.0993C207.967 16.1167 208.034 16.1356 208.079 16.1346C208.18 16.1336 208.291 16.1107 208.386 16.1167C208.583 16.1286 208.684 16.2406 208.94 16.2035C209.092 16.181 209.25 16.1706 209.408 16.1615C209.449 16.1592 209.494 16.1841 209.539 16.1966C209.667 16.2305 209.779 16.2756 209.962 16.2469C210.114 16.2244 210.275 16.2153 210.43 16.2009C210.677 16.1776 210.677 16.1789 210.999 16.2546C211.152 16.2906 211.304 16.2559 211.452 16.243C211.563 16.2336 211.667 16.2177 211.757 16.2347C211.894 16.2602 211.993 16.3232 212.161 16.3153C212.32 16.3076 212.475 16.285 212.633 16.2746C212.731 16.2683 212.823 16.288 212.904 16.3229C212.987 16.3578 213.076 16.3721 213.183 16.3615C213.339 16.347 213.497 16.3298 213.655 16.3194C213.699 16.3171 213.75 16.3282 213.792 16.3381C213.881 16.3606 213.967 16.3872 214.054 16.4111C214.209 16.3994 214.367 16.3931 214.519 16.3733C214.636 16.3584 214.718 16.362 214.814 16.387C214.935 16.421 215.035 16.484 215.231 16.4483C215.329 16.4311 215.443 16.4326 215.541 16.4167C215.661 16.3963 215.744 16.4012 215.83 16.4401C215.994 16.5139 216.197 16.5107 216.405 16.476C216.633 16.4382 216.805 16.4724 216.977 16.5283C217.159 16.5868 217.159 16.5854 217.302 16.7332C217.344 16.7758 217.462 16.7935 217.56 16.7832C217.725 16.7658 217.867 16.7694 217.989 16.8183C218.117 16.8712 218.269 16.8609 218.424 16.8424C218.63 16.8174 218.835 16.795 219.005 16.8701C219.088 16.9063 219.177 16.9138 219.288 16.9017C219.601 16.8701 219.918 16.8479 220.225 16.811C220.411 16.7877 220.52 16.8288 220.648 16.8627C220.82 16.9091 221.008 16.9497 221.011 17.0572C221.011 17.0748 221.056 17.0942 221.094 17.107C221.177 17.1337 221.267 17.1561 221.353 17.1814C221.48 17.2193 221.605 17.2505 221.779 17.2248C221.93 17.2036 222.092 17.1945 222.247 17.1787C222.402 17.163 222.544 17.1529 222.685 17.2014C222.848 17.2562 223.021 17.3081 223.205 17.3475C223.336 17.3758 223.506 17.3189 223.646 17.3578C223.733 17.3817 223.816 17.4098 223.908 17.4295C223.946 17.4381 224.006 17.4299 224.057 17.4261C224.162 17.4183 224.269 17.4117 224.37 17.3958C224.487 17.3782 224.576 17.3789 224.666 17.4082C224.749 17.4349 224.832 17.4724 224.927 17.4784C225.07 17.4874 225.227 17.4294 225.371 17.4887C225.445 17.5184 225.538 17.5462 225.633 17.5535C225.728 17.5609 225.839 17.538 225.94 17.537C225.985 17.536 226.039 17.5566 226.065 17.5737C226.081 17.5828 226.059 17.6092 226.037 17.6233C226.009 17.6402 225.969 17.6629 225.927 17.6666C225.614 17.6982 225.301 17.7258 224.988 17.756C224.801 17.7739 224.801 17.7739 224.422 17.6967C224.333 17.6784 224.234 17.6847 224.124 17.6967C223.975 17.7123 223.823 17.7389 223.667 17.718C223.463 17.6301 223.212 17.6276 222.946 17.669C222.836 17.6865 222.734 17.6888 222.651 17.6649C222.476 17.6171 222.291 17.5737 222.134 17.5161C222.013 17.4712 221.956 17.4684 221.906 17.5348C221.891 17.5556 221.876 17.5777 221.879 17.5967C221.9 17.6643 221.936 17.7301 221.957 17.7977C221.964 17.8166 221.939 17.8389 221.923 17.8597C221.874 17.918 221.807 17.9154 221.695 17.8703C221.583 17.8252 221.449 17.797 221.272 17.8228C221.121 17.8453 220.956 17.8463 220.804 17.8702C220.57 17.9054 220.404 17.8656 220.235 17.811C220.2 17.7995 220.14 17.7941 220.095 17.7978C219.624 17.8398 219.155 17.8859 218.684 17.9279C218.583 17.937 218.49 17.9187 218.41 17.8837C218.327 17.8489 218.234 17.8319 218.133 17.8411C217.715 17.8791 217.298 17.9145 216.88 17.9594C216.709 17.9782 216.573 17.9636 216.454 17.9187C216.365 17.8853 216.282 17.8763 216.171 17.8829C216.051 17.8897 215.966 17.9053 215.906 17.9461C215.85 17.9855 215.892 18.0077 216.019 18.0347C216.156 18.0642 216.284 18.1035 216.415 18.1387C216.519 18.1308 216.624 18.1176 216.725 18.1166C216.77 18.1156 216.811 18.1392 216.856 18.1518C216.984 18.1883 217.102 18.2251 217.282 18.1992C217.434 18.1767 217.595 18.169 217.75 18.1532C217.966 18.1333 217.966 18.1333 218.316 18.2111C218.405 18.2309 218.5 18.2273 218.614 18.2125C218.712 18.2007 218.814 18.2175 218.885 18.2567C218.914 18.2724 218.905 18.2998 218.847 18.3909C218.848 18.4576 218.914 18.4261 218.935 18.3821C218.969 18.3187 218.902 18.2999 218.776 18.3367C218.688 18.3632 218.644 18.3996 218.667 18.4277C218.68 18.4423 218.741 18.46 218.847 18.3909C219.124 18.303 219.336 18.2886 219.538 18.2622C219.659 18.2473 219.735 18.251 219.831 18.2842C219.946 18.3237 220.061 18.366 220.247 18.34C220.45 18.3109 220.665 18.3033 220.871 18.2782C221.06 18.2549 221.16 18.3125 221.281 18.3451C221.428 18.3839 221.589 18.3327 221.722 18.3541C221.862 18.3754 221.962 18.433 222.124 18.4402C222.358 18.3982 222.508 18.4628 222.687 18.5037C222.827 18.5345 222.991 18.5008 223.14 18.4825C223.307 18.4623 223.447 18.4741 223.565 18.5204C223.7 18.5732 223.849 18.5575 224 18.5418C224.355 18.5066 224.367 18.5022 224.575 18.5723C224.725 18.6233 224.867 18.5956 225.016 18.5854C225.147 18.6192 225.275 18.6557 225.412 18.6853C225.447 18.6927 225.513 18.6775 225.567 18.6722C225.722 18.6578 225.88 18.6433 226.035 18.6289C226.14 18.6198 226.25 18.5968 226.345 18.6028C226.441 18.6102 226.521 18.6478 226.607 18.6717C226.693 18.6956 226.783 18.7194 226.866 18.7448C226.993 18.7827 227.115 18.814 227.292 18.7895C227.443 18.7684 227.602 18.7593 227.76 18.7435C227.959 18.724 227.953 18.7282 228.326 18.8014C228.526 18.8417 228.731 18.7827 228.934 18.7726C229.035 18.7676 229.134 18.7803 229.205 18.8182C229.234 18.8338 229.225 18.8613 229.235 18.8842C228.713 18.9328 228.187 18.976 227.671 19.0326C227.472 19.0549 227.367 19.0083 227.258 18.9699C227.079 18.9087 226.846 19.0092 226.676 18.9287C226.574 18.8807 226.427 18.8554 226.254 18.8839C226.153 18.8998 226.045 18.9009 225.94 18.9155C225.675 18.9515 225.431 18.9584 225.216 18.8694C225.143 18.8384 225.038 18.8231 224.961 18.7935C224.871 18.7615 224.785 18.7444 224.681 18.7536C224.209 18.797 223.741 18.8403 223.273 18.8863C223.232 18.89 223.191 18.9113 223.156 18.9271C223.068 18.9672 223.098 18.9964 223.241 19.0177C223.289 19.0248 223.327 19.0416 223.372 19.0542C223.458 19.0781 223.538 19.1171 223.633 19.1244C223.729 19.1318 223.839 19.1102 223.944 19.101C224.048 19.0919 224.159 19.0689 224.254 19.0749C224.349 19.0823 224.429 19.1199 224.519 19.1424C224.56 19.1537 224.611 19.173 224.652 19.1707C224.861 19.1577 225.067 19.1381 225.276 19.1211C225.407 19.1549 225.519 19.2054 225.675 19.2141C225.773 19.22 225.877 19.2027 225.979 19.2031C226.023 19.2035 226.081 19.2226 226.103 19.2397C226.116 19.2503 226.076 19.2785 226.044 19.2928C225.925 19.3472 225.76 19.3414 225.611 19.3611C225.45 19.3825 225.304 19.3804 225.179 19.3301C225.096 19.2967 225.004 19.2797 224.902 19.2888C224.64 19.3125 224.38 19.3388 224.118 19.3597C224.073 19.3635 224.019 19.3524 223.978 19.3439C223.643 19.2685 223.643 19.2657 223.409 19.2887C223.064 19.3224 223.064 19.3224 222.831 19.2556C222.786 19.243 222.738 19.2183 222.7 19.2205C222.333 19.2506 221.969 19.2806 221.605 19.3202C221.485 19.3325 221.402 19.3344 221.313 19.301C221.236 19.2728 221.147 19.2408 221.051 19.2348C220.953 19.2289 220.846 19.2518 220.741 19.2609C220.637 19.2701 220.526 19.2903 220.434 19.2815C220.339 19.2728 220.255 19.2366 220.172 19.2113C220.086 19.1847 219.994 19.1881 219.877 19.2016C219.517 19.2411 219.513 19.2371 219.153 19.161C219.112 19.1524 219.058 19.1427 219.013 19.1464C218.751 19.1687 218.491 19.1951 218.228 19.2174C218.127 19.2265 218.029 19.211 217.958 19.1732C217.929 19.1575 217.938 19.1301 217.918 19.0774C217.895 19.0657 217.921 19.0869 217.928 19.1072C217.975 19.1034 218.032 19.1048 218.067 19.0931C218.155 19.0652 218.199 19.0302 218.176 19.0022C218.163 18.9875 218.102 18.9698 218.064 18.9707C217.994 18.9723 217.935 19.0036 217.918 19.0774C217.719 19.1269 217.507 19.1412 217.301 19.1677C217.181 19.184 217.105 19.1789 217.009 19.1457C216.894 19.1048 216.776 19.0653 216.589 19.0913C216.387 19.1204 216.171 19.1294 215.963 19.1532C215.722 19.1804 215.615 19.0604 215.412 19.0677C215.203 19.0752 214.994 19.1031 214.785 19.1242C214.602 19.1419 214.602 19.1419 214.22 19.0622C214.079 19.0327 213.916 19.084 213.779 19.0531C213.686 19.0335 213.606 19.0026 213.517 18.9815C213.479 18.9729 213.418 18.9742 213.371 18.978C213.108 19.0003 212.842 19.0173 212.589 19.053C212.302 19.0949 212.082 19.0618 211.874 18.9862C211.615 19.0071 211.352 19.0212 211.096 19.0529C210.909 19.0762 210.8 19.0338 210.673 18.9999C210.628 18.9887 210.589 18.9692 210.542 18.9648C210.494 18.9604 210.437 18.9726 210.387 18.9778C210.178 18.9976 209.962 19.0093 209.76 19.0384C209.51 19.0753 209.413 18.966 209.219 18.9568C209.091 19.0264 209.023 19.1191 208.767 19.1317C208.557 19.1419 208.349 19.1684 208.14 19.1881C208.035 19.1973 207.931 19.2078 207.827 19.217C207.659 19.2331 207.581 19.2879 207.618 19.3687C207.638 19.4132 207.655 19.4577 207.671 19.5022C207.705 19.5817 207.627 19.6516 207.494 19.6641C207.127 19.6983 206.763 19.7338 206.396 19.7653C206.298 19.7743 206.203 19.7533 206.122 19.7184C206.039 19.6836 205.947 19.6693 205.846 19.6784C205.479 19.7126 205.115 19.7481 204.748 19.7796C204.706 19.7833 204.652 19.7709 204.611 19.7609C204.522 19.7385 204.435 19.7119 204.349 19.688C204.14 19.705 203.934 19.7178 203.729 19.7388C203.396 19.7709 203.396 19.7722 203.151 19.703C203.106 19.6904 203.061 19.6655 203.02 19.6678C202.862 19.6769 202.707 19.694 202.548 19.7099C202.083 19.7558 202.083 19.7558 201.946 19.7181C201.821 19.6828 201.709 19.6391 201.523 19.6651C201.321 19.6942 201.105 19.7073 200.896 19.7256C200.741 19.7387 200.586 19.7531 200.431 19.7594C200.39 19.7616 200.345 19.7368 200.3 19.7242C200.172 19.6849 200.048 19.6537 199.874 19.6808C199.773 19.6967 199.665 19.7019 199.561 19.7111C199.289 19.7363 199.289 19.7363 198.84 19.6649C198.795 19.6577 198.741 19.6494 198.697 19.6545C198.33 19.6874 197.966 19.7228 197.599 19.7543C197.555 19.7581 197.501 19.7511 197.456 19.7453C196.953 19.6778 196.953 19.6778 196.422 19.728C196.219 19.7462 196.213 19.7518 195.999 19.6846C195.903 19.6554 195.824 19.6423 195.713 19.6543C195.295 19.6965 194.874 19.7278 194.46 19.7753C194.273 19.7959 194.165 19.7575 194.037 19.7237C193.992 19.7125 193.944 19.6864 193.906 19.6886C193.488 19.7239 193.071 19.7647 192.653 19.8001C192.615 19.8037 192.567 19.7775 192.522 19.7663C192.436 19.7438 192.353 19.7089 192.257 19.7029C192.159 19.697 192.052 19.7199 191.944 19.7291C191.681 19.7528 191.681 19.7514 191.375 19.6781C191.334 19.6681 191.279 19.6544 191.238 19.6581C190.82 19.6948 190.399 19.7275 189.985 19.7764C189.748 19.8035 189.585 19.7677 189.416 19.7144C189.381 19.703 189.321 19.6989 189.276 19.7027C188.805 19.7447 188.336 19.7907 187.865 19.8327C187.767 19.8417 187.671 19.8208 187.591 19.7872C187.463 19.7343 187.314 19.7445 187.156 19.7604C186.792 19.7972 186.789 19.7959 186.572 19.7356C186.527 19.723 186.489 19.7061 186.441 19.7004C186.397 19.6946 186.34 19.7 186.292 19.7038C186.083 19.7222 185.874 19.7419 185.666 19.7616C185.457 19.7813 185.244 19.7943 185.039 19.8221C184.786 19.8564 184.664 19.7708 184.485 19.734C184.226 19.7576 183.96 19.7745 183.704 19.8089C183.508 19.8351 183.414 19.7774 183.284 19.7491C183.239 19.7392 183.191 19.7171 183.15 19.7208C182.678 19.7615 182.207 19.8048 181.738 19.8522C181.624 19.863 181.548 19.8538 181.452 19.8233C181.238 19.7547 181.229 19.7577 180.874 19.7929C180.719 19.8087 180.571 19.823 180.436 19.7702C180.318 19.7226 180.175 19.7136 180.007 19.7337C179.802 19.7588 179.59 19.7745 179.381 19.7929C179.172 19.8126 178.963 19.8377 178.754 19.8493C178.586 19.8599 178.483 19.7983 178.35 19.7687C178.308 19.7601 178.251 19.76 178.204 19.7638C177.995 19.7808 177.779 19.7952 177.577 19.823C177.33 19.8572 177.192 19.7855 177.017 19.7459C176.979 19.7373 176.915 19.7441 176.868 19.7493C176.501 19.7821 176.137 19.8176 175.77 19.8518C175.639 19.818 175.505 19.7857 175.374 19.752C175.166 19.7703 174.957 19.79 174.748 19.8084C174.59 19.8229 174.428 19.8306 174.28 19.8544C174.087 19.886 173.99 19.8242 173.86 19.7959C173.815 19.786 173.767 19.764 173.726 19.7677C173.463 19.7886 173.2 19.8109 172.941 19.8399C172.694 19.8687 172.593 19.7485 172.39 19.7545C172.181 19.7606 171.966 19.7832 171.764 19.8123C171.53 19.8461 171.364 19.8064 171.195 19.7517C171.16 19.7403 171.099 19.7348 171.055 19.7386C170.792 19.7609 170.533 19.7872 170.27 19.8095C170.226 19.8132 170.172 19.8076 170.127 19.8005C169.624 19.7316 169.624 19.7303 169.406 19.7515C169.251 19.766 169.093 19.7832 168.935 19.7936C168.89 19.7973 168.836 19.7863 168.795 19.7763C168.463 19.7009 168.463 19.6995 168.226 19.7212C168.017 19.7409 167.808 19.7606 167.599 19.7804C167.468 19.7466 167.334 19.7143 167.204 19.6805C166.944 19.7041 166.678 19.7237 166.422 19.754C166.302 19.7677 166.222 19.7654 166.13 19.7335C166.015 19.6953 165.899 19.6503 165.71 19.6777C165.508 19.7068 165.292 19.7144 165.086 19.7395C164.84 19.7696 164.736 19.6481 164.536 19.654C164.327 19.6602 164.112 19.6827 163.909 19.7118C163.675 19.7457 163.51 19.706 163.34 19.6513C163.305 19.6398 163.245 19.6344 163.2 19.6381C162.624 19.6907 162.052 19.7432 161.476 19.7984C161.121 19.8324 161.121 19.8337 160.445 19.7743C160.397 19.7699 160.346 19.7656 160.298 19.7694C160.09 19.7864 159.874 19.8008 159.672 19.8286C159.425 19.8627 159.287 19.7924 159.112 19.7515C159.074 19.7428 159.014 19.7496 158.963 19.7535C158.805 19.7666 158.65 19.7824 158.492 19.7969C158.283 19.8166 158.074 19.8363 157.865 19.856C157.734 19.8236 157.6 19.7899 157.469 19.7575C157.21 19.7811 156.944 19.7967 156.688 19.8311C156.492 19.8573 156.399 19.8023 156.268 19.7726C156.223 19.7627 156.175 19.7407 156.134 19.743C155.662 19.7836 155.191 19.8256 154.723 19.8744C154.53 19.8951 154.44 19.8359 154.309 19.8076C154.264 19.7991 154.213 19.7826 154.172 19.7862C153.859 19.8124 153.545 19.8426 153.232 19.8729C153.055 19.8905 153.055 19.8905 152.666 19.815C152.622 19.8065 152.571 19.7981 152.526 19.8018C151.533 19.8925 150.542 19.9871 149.549 20.0777C149.447 20.0868 149.355 20.0685 149.275 20.0336C149.192 19.9988 149.099 19.9818 148.998 19.9909C148.58 20.029 148.159 20.0644 147.745 20.1092C147.574 20.1281 147.437 20.1135 147.319 20.0685C147.229 20.0352 147.147 20.0235 147.036 20.0342C146.827 20.0552 146.618 20.0736 146.409 20.0933C146.201 20.113 145.992 20.1327 145.783 20.1525C145.574 20.1722 145.362 20.1852 145.156 20.213C144.903 20.2473 144.778 20.1658 144.603 20.1276C144.289 20.1551 143.976 20.1826 143.666 20.2115C143.248 20.2495 142.83 20.2903 142.413 20.327C142.375 20.3306 142.327 20.3072 142.282 20.296C142.151 20.2649 142.055 20.2195 141.862 20.2389C140.925 20.3323 139.982 20.4149 139.043 20.5071C138.846 20.5265 138.759 20.4699 138.626 20.4417C138.581 20.4332 138.53 20.4153 138.489 20.419C137.967 20.4648 137.444 20.5148 136.922 20.5634C136.71 20.5832 136.71 20.5832 136.353 20.5069C136.312 20.4984 136.258 20.4873 136.213 20.4911C135.533 20.5528 134.856 20.6172 134.175 20.6803C134.074 20.6894 133.982 20.6724 133.899 20.6376C133.818 20.6027 133.723 20.5844 133.625 20.5935C132.998 20.6513 132.368 20.7078 131.745 20.7696C131.577 20.787 131.438 20.7779 131.316 20.7317C131.23 20.6983 131.144 20.6852 131.036 20.6959C130.096 20.7839 129.156 20.8692 128.217 20.9614C128.036 20.9791 127.909 20.9561 127.794 20.9138C127.701 20.8805 127.622 20.8755 127.508 20.8836C127.387 20.8931 127.315 20.9097 127.249 20.952C127.165 21.007 127.113 21.0749 126.91 21.0836C126.701 21.0924 126.489 21.1136 126.283 21.1414C126.087 21.169 125.994 21.1098 125.869 21.0759C125.777 21.0522 125.691 21.05 125.574 21.065C125.467 21.0783 125.401 21.1029 125.338 21.1479C125.201 21.2435 125.188 21.2438 125.016 21.1892C124.923 21.16 124.84 21.1374 124.739 21.1452C124.321 21.1819 123.903 21.2213 123.486 21.2621C123.245 21.2853 123.242 21.2881 123.06 21.2242C122.97 21.1922 122.884 21.1778 122.78 21.1883C121.631 21.2961 120.483 21.4011 119.334 21.513C119.157 21.5306 119.036 21.5048 118.908 21.4669C118.866 21.4542 118.825 21.4361 118.777 21.4317C118.73 21.4274 118.676 21.434 118.625 21.4379C117.79 21.5154 116.951 21.5903 116.119 21.6745C115.929 21.6938 115.827 21.6526 115.696 21.6202C115.651 21.6089 115.613 21.5908 115.565 21.5864C115.517 21.5834 115.461 21.5942 115.41 21.5995C114.574 21.677 113.736 21.7518 112.904 21.8361C112.704 21.8556 112.617 21.8004 112.487 21.7734C112.442 21.7635 112.394 21.7442 112.353 21.7479C112.09 21.7688 111.831 21.7951 111.568 21.8188C110.942 21.8779 110.315 21.9344 109.689 21.9949C109.448 22.018 109.341 21.8993 109.138 21.9094C108.875 21.9222 108.616 21.9553 108.353 21.9803C108.144 22 107.935 22.0184 107.727 22.0395C107.521 22.0591 107.521 22.0591 107.006 21.9919C106.961 21.9861 106.907 21.9778 106.863 21.9815C106.132 22.0485 105.397 22.1155 104.67 22.1865C104.502 22.2026 104.362 22.1989 104.241 22.1514C104.154 22.1179 104.065 22.1023 103.961 22.1128C102.863 22.2153 101.768 22.3178 100.67 22.419C100.629 22.4226 100.574 22.4102 100.533 22.4003C100.444 22.3778 100.357 22.3512 100.271 22.3273C100.208 22.36 100.127 22.3905 100.086 22.4268C100.03 22.4757 99.9546 22.491 99.8344 22.5019C99.7141 22.5128 99.638 22.5118 99.5421 22.4786C99.427 22.4377 99.3089 22.4063 99.1222 22.4242C97.9736 22.536 96.8248 22.6397 95.6762 22.7502C95.4863 22.7681 95.3962 22.7103 95.2624 22.682C95.2178 22.6735 95.1667 22.6597 95.1255 22.6634C94.654 22.7054 94.1857 22.7501 93.7142 22.7934C92.4072 22.9157 91.1003 23.0338 89.7966 23.1614C89.5593 23.1845 89.3969 23.1542 89.2275 23.0995C89.1924 23.0881 89.132 23.0827 89.0877 23.0864C87.2586 23.2559 85.4296 23.4267 83.6037 23.5975C83.5056 23.6065 83.4099 23.5869 83.3299 23.5534C83.2466 23.5185 83.1543 23.5029 83.0531 23.512C82.2176 23.5895 81.3822 23.6671 80.5468 23.7459C80.338 23.7656 80.3348 23.7671 80.1178 23.7067C80.0731 23.6941 80.025 23.6693 79.9902 23.6728C79.9174 23.6813 79.8484 23.7169 79.7988 23.7643C79.7492 23.8144 79.6703 23.8298 79.5532 23.842C79.433 23.8542 79.3537 23.852 79.261 23.8214C79.1428 23.7833 79.0341 23.7463 78.8442 23.7642C76.4425 23.993 74.0406 24.2149 71.6389 24.4423C71.4458 24.4603 71.3557 24.4053 71.2219 24.377C71.1773 24.3685 71.1326 24.3559 71.085 24.3542C71.0342 24.3527 70.9806 24.3621 70.9299 24.3673C67.0123 24.7326 63.0948 25.0992 59.1771 25.4645C58.943 25.4862 58.9461 25.4861 58.6923 25.6171C58.6609 25.6328 58.6202 25.6541 58.5758 25.6578C57.3766 25.7722 56.1741 25.8839 54.9716 25.9956C54.4494 26.0442 53.9274 26.0942 53.4052 26.1414C53.2185 26.1579 53.2185 26.1579 52.7749 26.3149C52.7372 26.3281 52.6931 26.3454 52.6488 26.3491C50.5603 26.5449 48.4717 26.7407 46.38 26.9339C46.2154 26.9485 46.0829 26.976 46.0083 27.043C45.9555 27.0905 45.8864 27.1193 45.782 27.1298C44.32 27.2664 42.8581 27.4045 41.3929 27.5385C41.2189 27.5547 41.1151 27.5951 41.0308 27.6542C41.0027 27.6739 40.9779 27.6962 40.937 27.7107C40.8992 27.7239 40.8423 27.7292 40.7948 27.7344C39.5417 27.8513 38.2887 27.971 37.0323 28.0839C36.8456 28.1004 36.7706 28.1525 36.6799 28.2076C36.6486 28.226 36.627 28.251 36.5861 28.2642C36.5451 28.276 36.4849 28.2773 36.4343 28.2812C35.39 28.3784 34.3458 28.477 33.3015 28.5742C33.0985 28.572 33.0559 28.6519 32.9587 28.7018C32.9242 28.7189 32.8994 28.7412 32.8585 28.753C32.8144 28.7649 32.7572 28.7649 32.7034 28.7688C31.868 28.8463 31.0326 28.9279 30.1939 29.0014C30.0009 29.018 29.9644 29.0883 29.8609 29.1382C29.8264 29.154 29.7921 29.1779 29.751 29.1829C29.2289 29.2343 28.7068 29.2829 28.1846 29.3301C28.0106 29.3463 28.0106 29.345 27.7062 29.4866C27.6717 29.5023 27.6308 29.5196 27.5866 29.5247C26.805 29.5996 26.0202 29.6719 25.2354 29.7455C25.1341 29.7546 25.0652 29.7888 25.0155 29.8362C24.9659 29.8836 24.8937 29.9152 24.7924 29.9243C24.1659 29.9835 23.5393 30.044 22.9126 30.099C22.7386 30.1139 22.6253 30.1505 22.5506 30.2134C22.4946 30.2609 22.4254 30.2856 22.3147 30.2963C21.6881 30.3541 21.0616 30.416 20.4318 30.4684C20.2482 30.4835 20.1541 30.5319 20.0794 30.5907C20.0202 30.6383 19.9509 30.6562 19.8338 30.6671C18.685 30.7721 17.5331 30.8772 16.3877 30.9903C16.1947 31.0097 16.0954 30.9643 15.9678 30.9332C15.786 30.8897 15.6169 30.8418 15.6144 30.7358C15.614 30.7194 15.5597 30.7016 15.5214 30.6889C15.2369 30.5933 15.2369 30.5933 15.19 30.4855C15.1631 30.4194 15.133 30.3521 15.1093 30.2846C15.0655 30.174 14.9633 30.1477 14.6722 30.1748C14.5678 30.184 14.4634 30.1958 14.3589 30.2037C14.2038 30.2167 14.0855 30.1745 14.0551 30.0935C14.0382 30.049 14.0182 30.0046 14.0013 29.96C14.1596 29.9456 14.1563 29.9443 14.4314 29.7734C14.5471 29.7013 14.5472 29.7013 14.3205 29.6371C14.2343 29.6132 14.1512 29.5865 14.0588 29.5641C14.0173 29.5542 13.9633 29.5486 13.919 29.5523C13.6563 29.5746 13.3968 29.5996 13.1373 29.6245C12.7196 29.664 12.7196 29.6639 12.2916 29.5349C12.2565 29.5248 12.2022 29.5056 12.2083 29.4946C12.242 29.4435 12.327 29.4198 12.4347 29.4119C12.593 29.4001 12.748 29.383 12.903 29.3686C13.0075 29.3594 13.1119 29.3489 13.2163 29.3397C13.3134 29.2858 13.4137 29.2331 13.5044 29.178C13.6483 29.0931 13.6482 29.0904 13.4472 29.0378C13.3195 29.0026 13.1824 28.9717 13.0517 28.9393C12.8966 28.9537 12.7384 28.9695 12.5833 28.9826C12.3871 28.9993 12.3072 28.9752 12.2545 28.888C12.2083 28.8115 12.2607 28.7436 12.4124 28.7238C12.5674 28.704 12.713 28.6898 12.7906 28.6186C12.8651 28.5503 12.9976 28.5214 13.1623 28.5122C13.2668 28.5057 13.3712 28.4939 13.4756 28.4833C13.6117 28.4693 13.683 28.3983 13.6527 28.3214C13.6357 28.2715 13.603 28.23 13.4791 28.222C12.9297 28.1868 12.9233 28.1883 12.6486 28.102C12.623 28.0945 12.6035 28.0704 12.6127 28.058C12.6281 28.0372 12.6623 28.0065 12.7002 28.0015C13.064 27.9633 13.4279 27.9278 13.7919 27.8992C13.9122 27.8896 14.0008 27.8781 14.0408 27.8268C14.0963 27.7561 14.0694 27.6928 13.9574 27.6477C13.9222 27.6336 13.8646 27.6158 13.8266 27.618C13.4088 27.652 12.9943 27.6927 12.5765 27.7267C12.5385 27.7303 12.4683 27.7088 12.452 27.6915C12.4196 27.6596 12.4661 27.615 12.5767 27.5975C12.722 27.5738 12.871 27.569 12.9676 27.4988C13.1017 27.3991 13.2676 27.3069 13.4176 27.211C13.4426 27.1941 13.4832 27.1618 13.4736 27.1593C13.3937 27.1312 13.3012 27.1102 13.2181 27.0835C13.0776 27.039 13.076 26.9724 13.1062 26.9078C13.1304 26.8555 13.225 26.8329 13.3423 26.8303C13.393 26.8291 13.4564 26.8277 13.4973 26.8145C13.6044 26.7821 13.6384 26.7433 13.5838 26.7159C13.5517 26.7003 13.4942 26.6785 13.4562 26.6821C12.7789 26.7424 12.0984 26.8014 11.4246 26.8725C11.2253 26.8934 11.1322 26.8438 11.0109 26.8098C10.9183 26.7833 10.8325 26.7744 10.7188 26.7974C10.6115 26.8189 10.5067 26.8104 10.4391 26.767C10.3844 26.7315 10.4787 26.6981 10.7346 26.6569C10.782 26.649 10.8358 26.6437 10.8703 26.6293C11.2346 26.474 11.2346 26.4727 11.4877 26.4479C11.7345 26.4246 11.7346 26.4232 11.8627 26.3414C11.9221 26.3033 11.9877 26.265 12.0439 26.2257C12.0657 26.2102 12.1032 26.1821 12.0903 26.1743C12.0196 26.1337 11.9243 26.1263 11.8136 26.1384C11.5669 26.1671 11.2749 26.1547 11.1479 26.2869C11.0983 26.337 11.0194 26.3524 10.9055 26.3631C9.75987 26.4681 8.61438 26.5785 7.46556 26.6808C7.27884 26.6973 7.19447 26.7496 7.12286 26.807C7.06053 26.8547 6.9911 26.8699 6.87084 26.8808C6.75059 26.8917 6.65554 26.8979 6.58478 26.8546C6.54294 26.8284 6.57694 26.7895 6.67114 26.7492C6.80618 26.6917 6.77924 26.6243 6.73339 26.5614C6.70072 26.52 6.60177 26.4923 6.49724 26.4974C6.34205 26.5063 6.19346 26.5247 6.06225 26.4732C5.98546 26.4437 5.88985 26.4241 5.80364 26.3988C5.63753 26.3468 5.47138 26.2934 5.24085 26.3354C5.08205 26.3254 4.96998 26.279 4.84232 26.2438C4.62851 26.186 4.60927 26.1769 4.75987 26.1068C4.9293 26.0282 4.79389 25.9332 4.88728 25.8576C4.98688 25.7765 5.12479 25.7039 5.24671 25.6277C5.27796 25.6079 5.30609 25.5896 5.33735 25.5698C5.26382 25.5443 5.19648 25.5118 5.11047 25.4947C4.99896 25.4727 4.94121 25.4441 4.9456 25.3596C4.92313 25.3479 4.9333 25.379 4.95885 25.3866C4.98756 25.3941 5.05719 25.3857 5.09183 25.3754C5.17999 25.3475 5.22353 25.3125 5.20068 25.2845C5.18766 25.2698 5.12704 25.2521 5.08901 25.253C5.01927 25.2546 4.95975 25.2858 4.94243 25.3597C4.58872 25.4236 4.22162 25.4591 3.85444 25.4892C3.81647 25.4928 3.76832 25.4667 3.72363 25.4541C3.57676 25.4112 3.57678 25.4125 3.14856 25.4087C3.10415 25.4083 3.04352 25.3906 3.0209 25.3721C2.92706 25.2912 2.92815 25.2 2.88173 25.1126C2.96282 25.0536 3.04387 24.996 3.12817 24.9383C3.29672 24.8215 3.51634 24.7172 3.64661 24.5904C3.61654 24.5244 3.57696 24.4586 3.71517 24.4011C4.1098 24.324 4.10665 24.3241 4.21291 24.2564C4.51609 24.0644 4.81605 23.8712 5.13197 23.6817C5.21645 23.6321 5.21586 23.6063 5.06325 23.5893C5.01558 23.585 4.96477 23.5848 4.91411 23.5886C4.75585 23.6018 4.59794 23.6298 4.4425 23.6279C4.2871 23.6274 4.17161 23.5701 4.04397 23.5363C3.91314 23.5012 3.78228 23.4647 3.65141 23.4282C3.50253 23.4357 3.35447 23.4771 3.20408 23.4193C3.08887 23.3743 2.94546 23.3435 2.8146 23.307C2.91047 23.2014 3.09251 23.1184 3.23304 23.024C3.36107 22.9381 3.3642 22.9394 3.71139 22.8676C3.87552 22.8339 3.92902 22.6789 3.78852 22.6372C3.61927 22.5866 3.44064 22.5403 3.26829 22.4925C3.11941 22.5 2.96815 22.5402 2.8241 22.4822C2.7121 22.4385 2.58456 22.4101 2.40113 22.4319C2.0912 22.4689 1.77459 22.4911 1.46137 22.5227C1.35379 22.5333 1.23635 22.5306 1.18774 22.4854C1.15529 22.4535 1.24618 22.4065 1.35055 22.3946C1.50872 22.3774 1.65096 22.3578 1.72863 22.288C1.80313 22.2183 1.94211 22.1947 2.10671 22.1814C2.15102 22.1777 2.20139 22.1602 2.2232 22.1434C2.33549 22.0619 2.46071 21.9911 2.70483 21.9882C2.80563 21.9587 2.8587 21.9235 2.82624 21.8916C2.80682 21.8743 2.73976 21.8527 2.70178 21.8563C2.43902 21.8759 2.17626 21.8955 1.92009 21.9258C1.79989 21.9394 1.70799 21.9442 1.63097 21.9051C1.57646 21.8792 1.60414 21.8418 1.70465 21.8C1.79262 21.764 1.81709 21.724 1.80968 21.6779C1.79135 21.5708 1.69552 21.5417 1.39139 21.5554C1.17281 21.5658 1.11852 21.5494 1.06884 21.458C1.05565 21.4365 1.02332 21.4073 1.04516 21.3918C1.17932 21.2963 1.26544 21.18 1.52117 21.1306C1.62222 21.112 1.72994 21.1096 1.79252 21.0728C1.85509 21.036 1.91123 20.9939 1.97701 20.9583C2.05848 20.9157 2.11459 20.8763 2.07596 20.8513C2.0115 20.8065 1.91001 20.8047 1.79311 20.8237C1.692 20.8396 1.58427 20.8434 1.47986 20.854C1.29319 20.8732 1.14027 20.8413 1.1167 20.782C1.05283 20.6256 0.985802 20.4706 0.928272 20.3141C0.921493 20.2952 0.936731 20.2703 0.961711 20.2534C1.04914 20.1943 1.14301 20.1377 1.23364 20.0799C1.33993 20.0135 1.5114 20.0218 1.65692 20.0063C1.86254 19.9839 1.8625 19.9853 2.13524 19.8484C2.24181 19.7943 2.4293 19.8105 2.53917 19.7617C2.57369 19.7459 2.627 19.7202 2.61718 19.7069C2.60409 19.6895 2.54042 19.6773 2.49269 19.6702C2.44812 19.6631 2.39416 19.6602 2.34671 19.6654C1.77075 19.7179 1.19804 19.7731 0.622044 19.8243C0.523942 19.8334 0.41548 19.8059 0.37964 19.7645C0.343862 19.7259 0.35224 19.678 0.344863 19.6333C0.435493 19.5755 0.538856 19.5214 0.616714 19.4598C0.675868 19.4121 0.74514 19.3902 0.865523 19.3847C1.02391 19.377 1.17886 19.3572 1.35608 19.3409C1.68113 19.1348 1.9996 18.9194 2.35001 18.7128C2.49079 18.6293 2.45409 18.5485 2.48064 18.4621C2.50734 18.3826 2.71997 18.39 2.86207 18.3636C2.97574 18.342 3.01272 18.2976 2.96765 18.2687C2.94189 18.2516 2.88439 18.2325 2.84002 18.2335C2.73542 18.2359 2.63111 18.2505 2.52667 18.2597C2.42223 18.2689 2.30169 18.2675 2.21665 18.2926C2.13474 18.3162 2.0819 18.3637 2.02892 18.4043C1.96971 18.4492 1.89087 18.466 1.77049 18.4715C1.61524 18.4777 1.46022 18.4935 1.30512 18.5065C1.13274 18.4574 0.954008 18.4097 0.787898 18.3577C0.755951 18.3476 0.748854 18.3164 0.751552 18.296C0.756666 18.2428 0.708379 18.2112 0.603184 18.1877C0.513931 18.168 0.440301 18.1384 0.357262 18.1131C0.419805 18.0749 0.488744 18.0379 0.538547 17.9973C0.647566 17.9119 0.785662 17.8489 1.02662 17.8461C1.12048 17.7909 1.19502 17.7239 1.31779 17.6843C1.43425 17.6463 1.63476 17.6771 1.72165 17.5949C1.76512 17.5544 1.83068 17.508 1.91588 17.4898C2.05158 17.4608 2.22939 17.4704 2.30687 17.3924C2.35341 17.3478 2.4222 17.3068 2.51387 17.2938C2.61818 17.2792 2.72586 17.274 2.80133 17.2465C2.84222 17.2319 2.8861 17.2092 2.88566 17.1901C2.88538 17.1779 2.82159 17.1603 2.77703 17.1531C2.73561 17.1445 2.6815 17.139 2.63402 17.1428C2.47573 17.1545 2.32077 17.173 2.16247 17.1848C2.11816 17.1885 2.06724 17.1802 2.01951 17.1731C1.87954 17.1545 1.88841 17.1271 1.99821 17.0756C2.10805 17.0255 2.18592 16.9624 2.27655 16.9046C2.37775 16.8928 2.50462 16.894 2.57375 16.8665C2.69005 16.8217 2.77103 16.7586 2.86489 16.7034C2.9693 16.6929 3.077 16.6877 3.17491 16.6705C3.21599 16.6642 3.23433 16.6338 3.26879 16.6153C3.33139 16.5799 3.38419 16.5297 3.46939 16.5114C3.60829 16.4838 3.77967 16.4894 3.86035 16.4127C3.90689 16.3681 3.97869 16.3202 4.06738 16.3155C4.31448 16.3044 4.41735 16.2273 4.5425 16.1536C4.63637 16.0984 4.83986 16.121 4.94323 16.0656C5.01218 16.03 5.06195 15.9867 5.13092 15.9525C5.15914 15.9382 5.21918 15.9301 5.26663 15.9249C5.52607 15.8986 5.78879 15.8777 6.0482 15.85C6.08931 15.845 6.1269 15.8237 6.15822 15.8067C6.22397 15.7698 6.264 15.7199 6.34587 15.6949C6.42775 15.6699 6.54501 15.6672 6.64628 15.6581C6.97228 15.6303 6.99779 15.6352 7.14409 15.5162C7.26236 15.4196 7.55872 15.4795 7.65459 15.3739C7.71026 15.3128 7.81368 15.2615 8.00053 15.2504C8.26339 15.2349 8.52269 15.2032 8.78536 15.1795C9.01954 15.1579 9.01638 15.1579 9.26702 15.0257C9.37981 14.966 9.54802 14.9703 9.69674 14.956C9.85497 14.9416 10.0004 14.9219 10.0749 14.8522C10.1494 14.7838 10.2884 14.7589 10.4498 14.7457C10.5985 14.7328 10.7667 14.7358 10.8827 14.6787C11.165 14.5417 11.1618 14.5404 11.3612 14.5222C11.6745 14.4933 11.9877 14.4644 12.301 14.4342C12.5098 14.4145 12.7285 14.4068 12.9243 14.3724C13.0664 14.3474 13.128 14.2698 13.2187 14.2146C13.4782 14.1883 13.7376 14.162 13.9971 14.1371C14.361 14.1016 14.7281 14.0688 15.0951 14.0346C15.2524 13.9793 15.272 13.8645 15.5381 13.853C15.6966 13.8467 15.8515 13.8255 16.0097 13.811C16.2723 13.786 16.5317 13.7556 16.7945 13.7401C16.9941 13.7288 17.0272 13.6545 17.1307 13.6059C17.1652 13.5888 17.1964 13.5649 17.2375 13.5599C17.6487 13.5125 18.0732 13.4947 18.4744 13.4298C18.5155 13.4234 18.5529 13.394 18.5619 13.3733C18.568 13.3623 18.5137 13.3431 18.4786 13.3344C18.4371 13.3245 18.383 13.3148 18.3387 13.3185C17.0317 13.4394 15.7248 13.5617 14.4179 13.6825C14.2344 13.7003 14.2343 13.699 13.7909 13.8587C13.7531 13.8718 13.709 13.8864 13.6616 13.8916C13.4528 13.9127 13.2406 13.927 13.0351 13.9521C12.8674 13.9723 12.7277 13.9591 12.6061 13.9129C12.5197 13.8794 12.4306 13.8706 12.3229 13.8758C12.2026 13.8826 12.1237 13.8993 12.0548 13.9377C11.9641 13.9901 11.918 14.0564 11.725 14.0744C10.8357 14.1531 9.94649 14.2387 9.06044 14.3214C8.93638 14.3052 8.8755 14.278 8.90641 14.2433C8.92496 14.2224 8.96238 14.1944 9.00035 14.1908C9.3642 14.1539 9.7313 14.1211 10.0952 14.0856C10.1458 14.0804 10.2156 14.0815 10.2438 14.0673C10.3818 14.0029 10.4303 13.9024 10.6932 13.8897C10.8453 13.8821 11.0001 13.8582 11.1455 13.8358C11.1866 13.8295 11.2239 13.8 11.233 13.7794C11.2359 13.7685 11.1847 13.7492 11.1464 13.7406C11.0061 13.7043 10.8456 13.7556 10.7055 13.7316C10.6577 13.7231 10.5908 13.711 10.5809 13.6949C10.5742 13.6801 10.6275 13.6544 10.6652 13.6386C10.6998 13.6242 10.747 13.6109 10.7945 13.6057C11.2121 13.5649 11.6298 13.5227 12.0476 13.4888C12.2186 13.4753 12.3382 13.4386 12.4128 13.3743C12.4688 13.3268 12.538 13.3007 12.6456 13.2915C13.3766 13.2245 14.1075 13.1521 14.8418 13.0891C15.0254 13.0741 15.1195 13.027 15.1942 12.9668C15.2533 12.9192 15.3227 12.9013 15.4398 12.8905C16.4873 12.7959 17.5283 12.6933 18.5758 12.6015C18.7689 12.5848 18.8246 12.5251 18.9217 12.4725C18.9562 12.454 18.9778 12.4318 19.0219 12.4199C19.0661 12.408 19.1231 12.408 19.177 12.4041C20.0124 12.3266 20.8478 12.245 21.6865 12.1715C21.8827 12.1548 21.9191 12.0859 22.0194 12.036C22.054 12.0203 22.0851 11.9951 22.1262 11.9901C22.7527 11.9296 23.3793 11.8718 24.0059 11.8126C24.4236 11.7732 24.8412 11.7338 25.259 11.6957C25.4647 11.6774 25.4647 11.676 25.7406 11.5405C25.772 11.5248 25.816 11.5061 25.8571 11.5011C27.0595 11.3867 28.2589 11.2764 29.4613 11.1634C29.5626 11.1542 29.6348 11.1213 29.6844 11.0739C29.7341 11.0265 29.8063 10.9936 29.9044 10.9845C30.8442 10.8951 31.784 10.8071 32.7271 10.7217C32.898 10.7069 33.0177 10.6715 33.0923 10.6086C33.1483 10.5611 33.2175 10.535 33.3251 10.5258C34.2649 10.4391 35.2048 10.3483 36.1479 10.2643C36.3283 10.2479 36.4159 10.1997 36.5034 10.1433C36.5347 10.1235 36.5593 10.0916 36.5973 10.0881C37.0655 10.0393 37.5305 9.98927 38.0022 9.9527C38.1985 9.93735 38.2637 9.87871 38.3417 9.82251C38.4041 9.77754 38.4767 9.76093 38.597 9.75275C38.8598 9.73453 39.1191 9.70551 39.3753 9.67655C39.4133 9.67161 39.4602 9.6406 39.4629 9.62149C39.4684 9.58599 39.3949 9.56316 39.2742 9.55366C38.021 9.67059 36.7648 9.78759 35.5117 9.90453C35.306 9.92417 35.306 9.92418 35.03 10.0597C34.9987 10.0754 34.9547 10.0941 34.9104 10.0992C33.7079 10.2123 32.5086 10.3239 31.3061 10.4369C31.2049 10.446 31.1327 10.479 31.083 10.5264C31.0334 10.5738 30.9612 10.6067 30.8631 10.6158C29.7144 10.7235 28.5657 10.8326 27.4138 10.9364C27.2429 10.9511 27.1232 10.9852 27.0486 11.0494C26.9926 11.097 26.9234 11.1231 26.8158 11.1323C25.7177 11.2335 24.6228 11.3386 23.5215 11.4372C23.4107 11.4465 23.3274 11.4089 23.3329 11.372C23.3356 11.3529 23.3824 11.3206 23.4204 11.317C23.993 11.2591 24.5626 11.1999 25.1386 11.1527C25.3317 11.1375 25.3874 11.0763 25.4845 11.0238C25.5157 11.0054 25.5406 10.9817 25.5816 10.9712C25.6257 10.9593 25.6828 10.9594 25.7366 10.9554C27.0941 10.828 28.4517 10.6991 29.8125 10.577C30.0087 10.559 30.0452 10.4915 30.1455 10.4415C30.18 10.4244 30.2111 10.3992 30.2523 10.3956C30.6699 10.3534 31.0876 10.3154 31.5054 10.2773C32.2364 10.209 32.9673 10.1406 33.7015 10.0722C33.9135 10.0524 33.9135 10.0524 34.1831 9.9184C34.2145 9.90272 34.2585 9.88268 34.2996 9.87902C36.2331 9.69764 38.1666 9.51624 40.1001 9.33622C40.2013 9.32711 40.2735 9.29417 40.3232 9.24678C40.3728 9.20074 40.445 9.16644 40.543 9.15605C43.1569 8.91157 45.7675 8.66715 48.3814 8.42539C48.5523 8.40926 48.6721 8.37796 48.7467 8.31231C48.7995 8.26484 48.8718 8.23871 48.9794 8.2281C51.8527 7.96003 54.7261 7.69196 57.6025 7.42246C59.536 7.24243 61.4695 7.05968 63.4031 6.88237C63.5803 6.8661 63.6744 6.82177 63.7618 6.76399C63.7899 6.7443 63.8177 6.71237 63.8557 6.70878C64.2701 6.66534 64.6846 6.62463 65.0991 6.58391C65.2299 6.61767 65.3607 6.65009 65.4915 6.68386C65.5885 6.62994 65.6825 6.57473 65.7795 6.52082C66.4062 6.46711 67.0228 6.39186 67.6563 6.35841C67.6975 6.35611 67.7424 6.38095 67.7871 6.39354C68.0839 6.47252 68.2517 6.4619 68.4361 6.3434C68.5017 6.30109 68.5579 6.26307 68.6592 6.25397C68.9724 6.22235 69.2891 6.19882 69.599 6.1632C69.7667 6.14442 69.9064 6.15485 70.028 6.20107C70.1144 6.23449 70.2035 6.24744 70.3079 6.2369C70.8839 6.18299 71.4566 6.1305 72.0325 6.07387C72.0736 6.07021 72.1111 6.04622 72.1424 6.02918C72.2082 5.9923 72.2644 5.95293 72.3269 5.91477C72.413 5.93594 72.5085 5.95147 72.579 5.9798C72.6685 6.01315 72.7509 6.01127 72.8711 5.99901C75.1685 5.78213 77.4691 5.56927 79.7664 5.35103C79.9626 5.33296 80.0495 5.38815 80.1834 5.41504C80.228 5.42491 80.2726 5.4375 80.3203 5.43914C80.371 5.4407 80.4247 5.43133 80.4753 5.42609C82.2 5.26442 83.9246 5.1041 85.6493 4.94243C85.8771 4.92092 85.8771 4.92092 86.2182 4.99753C86.2597 5.00748 86.3138 5.01849 86.3581 5.01341C87.1429 4.9425 87.9277 4.86751 88.7093 4.79531C88.8106 4.78621 88.8967 4.80602 88.9893 4.83521C89.1714 4.8923 89.184 4.89202 89.3151 4.79923C89.3775 4.75563 89.4435 4.72826 89.5478 4.71365C89.6616 4.69745 89.7536 4.69946 89.843 4.72192C89.9705 4.75304 90.0638 4.80806 90.2568 4.78871C91.0921 4.70576 91.9308 4.63363 92.7629 4.5494C92.9527 4.53012 93.0552 4.57405 93.1828 4.60517C93.2275 4.6164 93.2691 4.63451 93.3167 4.63751C93.3644 4.64051 93.4212 4.62968 93.4718 4.62445C94.5161 4.52723 95.5635 4.43131 96.6045 4.32872C96.8007 4.30929 96.8877 4.36582 97.0215 4.39271C97.0661 4.40259 97.1172 4.42049 97.1584 4.41683C97.785 4.3604 98.4148 4.30117 99.0413 4.24202C99.266 4.22058 99.2659 4.22194 99.6102 4.29713C99.6516 4.30707 99.7058 4.31673 99.7501 4.313C100.481 4.24603 101.215 4.17763 101.946 4.10931C102.171 4.08787 102.171 4.08788 102.822 4.14383C102.87 4.14819 102.921 4.15521 102.968 4.15141C103.804 4.0739 104.642 3.99768 105.478 3.91609C105.645 3.90004 105.785 3.90774 105.907 3.95397C105.993 3.98738 106.082 4.00033 106.187 3.9898C107.127 3.90175 108.07 3.81636 109.006 3.72431C109.187 3.70661 109.304 3.73385 109.432 3.77041C109.474 3.78307 109.515 3.80118 109.563 3.80554C109.611 3.8099 109.664 3.80323 109.715 3.798C110.655 3.70996 111.598 3.62593 112.535 3.53252C112.724 3.51323 112.827 3.55717 112.954 3.58828C112.999 3.59952 113.047 3.62292 113.085 3.62069C113.452 3.58922 113.82 3.56046 114.183 3.51818C114.379 3.49467 114.466 3.55527 114.6 3.58217C114.645 3.59068 114.696 3.60994 114.737 3.60628C115.522 3.53537 116.307 3.46174 117.088 3.38683C117.199 3.37614 117.282 3.3865 117.371 3.41984C117.49 3.46478 117.627 3.48072 117.797 3.46187C118.161 3.42231 118.528 3.39219 118.895 3.35799C119.111 3.33813 119.111 3.33814 119.771 3.39388C119.819 3.39823 119.87 3.40524 119.917 3.40144C120.544 3.34365 121.174 3.28715 121.797 3.22536C121.965 3.20794 122.105 3.217 122.226 3.26323C122.313 3.29664 122.398 3.30967 122.506 3.29906C123.082 3.24514 123.655 3.19129 124.231 3.13738C124.44 3.11766 124.648 3.08706 124.857 3.08231C125.01 3.08021 125.122 3.14297 125.259 3.17251C125.297 3.18116 125.36 3.16886 125.411 3.16498C126.142 3.09666 126.876 3.03234 127.604 2.95728C127.794 2.938 127.896 2.98193 128.024 3.01305C128.069 3.02428 128.117 3.04768 128.155 3.04546C128.417 3.02452 128.677 2.99821 128.939 2.97455C129.253 2.94565 129.569 2.92213 129.879 2.88515C130.132 2.8549 130.23 2.97106 130.433 2.97053C130.588 2.97108 130.746 2.94436 130.901 2.92995C131.215 2.90106 131.528 2.86944 131.841 2.84327C131.952 2.83395 132.037 2.81023 132.071 2.76048C132.077 2.75081 132.023 2.73164 131.988 2.7202C131.563 2.59105 131.563 2.59105 131.139 2.63062C130.876 2.65565 130.617 2.6806 130.354 2.7029C130.31 2.70663 130.259 2.6969 130.214 2.68975C130.087 2.66951 130.099 2.64202 130.205 2.59061C130.312 2.5392 130.393 2.47749 130.484 2.41964C130.614 2.45204 130.742 2.48451 130.873 2.51692C130.977 2.50774 131.082 2.49721 131.186 2.48804C131.708 2.44079 132.231 2.39217 132.753 2.34764C132.791 2.34406 132.839 2.37018 132.884 2.38278C133.011 2.41934 133.126 2.45073 133.31 2.43159C133.778 2.38149 134.249 2.34219 134.718 2.29753C134.923 2.27788 134.923 2.27789 135.287 2.35399C135.328 2.36258 135.382 2.37224 135.427 2.36851C135.898 2.32649 136.366 2.28183 136.838 2.23845C136.939 2.22935 137.038 2.24479 137.112 2.28258C137.141 2.29825 137.135 2.32559 137.261 2.5459C137.639 2.71829 137.895 2.69342 138.155 2.67119C138.265 2.66187 138.363 2.65283 138.436 2.62397C138.473 2.60814 138.52 2.5853 138.52 2.56762C138.52 2.55402 138.45 2.53384 138.405 2.53213C138.091 2.51206 137.794 2.57596 137.487 2.59519C137.344 2.60387 137.22 2.55908 137.192 2.48213C137.186 2.46052 137.176 2.43761 137.166 2.41607C137.156 2.39452 137.149 2.37155 137.139 2.35C137.015 2.34601 136.943 2.37215 136.89 2.41961C136.846 2.4587 136.784 2.50367 136.699 2.52601C136.614 2.54972 136.496 2.54831 136.392 2.55749C136.291 2.5666 136.18 2.5868 136.085 2.57944C135.989 2.57072 135.912 2.533 135.823 2.51054C135.782 2.49923 135.731 2.48271 135.689 2.48637C135.325 2.51777 134.965 2.5491 134.604 2.58724C134.414 2.60788 134.318 2.55293 134.197 2.5203C134.101 2.49526 134.006 2.50422 133.991 2.56714C133.954 2.71768 134.101 2.77693 134.424 2.74102C134.689 2.71048 134.93 2.70094 135.141 2.78867C135.17 2.80026 135.237 2.80419 135.278 2.80053C135.538 2.7783 135.794 2.75206 136.053 2.72983C136.101 2.72603 136.152 2.73031 136.196 2.73474C136.845 2.79349 136.845 2.79486 137.063 2.77356C137.167 2.76303 137.269 2.75392 137.254 2.54741C137.449 2.32118 137.765 2.29901 138.072 2.25938C138.271 2.23444 138.358 2.29235 138.489 2.32067C138.534 2.33054 138.582 2.35122 138.623 2.34756C139.303 2.28719 139.98 2.22416 140.658 2.15842C140.771 2.14767 140.854 2.15396 140.944 2.1873C141.059 2.22959 141.186 2.25527 141.367 2.23485C141.727 2.19399 142.094 2.16524 142.461 2.12968C142.648 2.11183 142.648 2.11181 143.027 2.18756C143.069 2.19615 143.123 2.2058 143.167 2.20207C143.534 2.1706 143.898 2.13376 144.262 2.10099C144.363 2.09188 144.456 2.10883 144.536 2.14375C144.616 2.17867 144.711 2.19555 144.809 2.18652C145.177 2.15368 145.54 2.1182 145.904 2.08543C145.949 2.0817 146.003 2.09 146.044 2.09858C146.433 2.17412 146.433 2.1741 146.61 2.15647C146.869 2.13016 147.135 2.1146 147.392 2.08156C147.641 2.04867 147.773 2.12459 147.945 2.16422C148.414 2.12228 148.885 2.08571 149.35 2.03703C149.54 2.01639 149.643 2.05896 149.77 2.09144C149.815 2.10267 149.86 2.12751 149.901 2.12521C150.059 2.11617 150.214 2.09768 150.37 2.08327C150.525 2.06886 150.683 2.05438 150.838 2.03997C151.016 2.07537 151.136 2.16519 151.389 2.12814C151.54 2.10564 151.702 2.09789 151.857 2.08348C152.012 2.06907 152.17 2.05459 152.325 2.04018C152.43 2.031 152.537 2.02446 152.638 2.00992C152.825 1.98526 152.918 2.04982 153.052 2.07672C153.097 2.08523 153.148 2.10039 153.189 2.09673C153.502 2.07056 153.819 2.04703 154.126 2.00877C154.363 1.97888 154.526 2.01601 154.695 2.06932C154.73 2.08076 154.79 2.0862 154.835 2.08247C155.202 2.05099 155.566 2.01413 155.93 1.98137C156.028 1.97233 156.123 1.99193 156.203 2.02549C156.287 2.06034 156.379 2.07594 156.48 2.06684C156.844 2.03407 157.211 1.9985 157.575 1.96574C157.619 1.96201 157.674 1.97167 157.715 1.98161C158.072 2.05786 158.072 2.05922 158.281 2.03815C158.331 2.03292 158.385 2.02896 158.436 2.02373C158.695 1.99878 158.965 1.98586 159.217 1.94746C159.508 1.90411 159.722 1.94552 159.929 2.01836C160.189 1.99614 160.455 1.98056 160.708 1.9476C160.898 1.92287 161 1.97225 161.128 2.00337C161.173 2.0146 161.221 2.038 161.259 2.03441C161.626 2.00293 161.993 1.97418 162.353 1.93197C162.55 1.90846 162.637 1.96771 162.77 1.99596C162.815 2.00583 162.863 2.0238 162.904 2.02015C163.113 2.00451 163.322 1.98343 163.531 1.96371C163.774 1.94048 163.774 1.94184 164.1 2.01746C164.253 2.05344 164.404 2.0187 164.553 2.00579C164.711 1.99131 164.86 1.97976 164.988 2.03264C165.068 2.0662 165.164 2.0858 165.262 2.07813C165.471 2.06113 165.683 2.04407 165.888 2.01899C166.053 1.99892 166.196 2.00655 166.317 2.05414C166.404 2.08756 166.493 2.10323 166.597 2.09269C167.066 2.04939 167.537 2.00464 168.005 1.96269C168.047 1.95903 168.104 1.96998 168.142 1.98136C168.232 2.00382 168.318 2.02907 168.404 2.05433C168.61 2.0374 168.822 2.02715 169.024 2.0035C169.239 1.97956 169.436 1.96829 169.606 2.03927C169.641 2.0548 169.692 2.07676 169.733 2.07446C169.892 2.06542 170.047 2.04829 170.202 2.03388C170.357 2.01947 170.515 2.00499 170.67 1.99058C170.851 2.02047 170.968 2.1158 171.221 2.07875C171.372 2.05626 171.534 2.0485 171.689 2.03409C171.844 2.01968 172.002 2.00384 172.157 1.99079C172.208 1.98691 172.265 1.97881 172.309 1.98324C172.357 1.9876 172.399 2.00571 172.44 2.01838C172.568 2.05494 172.686 2.09172 172.866 2.06449C173.018 2.04199 173.179 2.03423 173.335 2.01846C173.547 1.99867 173.547 1.99868 173.9 2.07636C174.044 2.10848 174.204 2.05857 174.341 2.08539C174.434 2.1037 174.514 2.13589 174.603 2.157C174.641 2.16565 174.702 2.16836 174.746 2.16463C174.955 2.14764 175.167 2.13057 175.372 2.10549C175.54 2.08535 175.68 2.0985 175.798 2.14479C175.885 2.17821 175.971 2.19123 176.078 2.18062C176.6 2.13065 177.123 2.08611 177.641 2.03214C177.819 2.01314 177.962 2.03303 178.061 2.07975C178.231 2.16026 178.467 2.05557 178.642 2.11961C178.751 2.15932 178.86 2.20584 179.056 2.18097C179.417 2.1374 179.784 2.10999 180.148 2.07722C180.279 2.11099 180.409 2.14476 180.543 2.17846C180.752 2.15874 180.961 2.13902 181.17 2.12066C181.325 2.10625 181.483 2.09041 181.638 2.07736C181.689 2.07349 181.743 2.06682 181.79 2.07254C181.838 2.07826 181.877 2.09508 181.921 2.10767C182.142 2.16934 182.142 2.17071 182.502 2.13529C182.657 2.11952 182.806 2.10798 182.937 2.15942C183.059 2.20701 183.202 2.21328 183.366 2.19457C183.676 2.16031 183.99 2.13278 184.306 2.10653C184.404 2.0975 184.497 2.11853 184.58 2.15202C184.705 2.20497 184.857 2.19607 185.012 2.17758C185.217 2.15386 185.42 2.13021 185.596 2.20241C185.631 2.21794 185.686 2.23982 185.724 2.2376C185.983 2.22081 186.246 2.20668 186.499 2.17507C186.752 2.14347 186.878 2.22498 187.053 2.26182C187.312 2.23823 187.575 2.21456 187.834 2.19098C187.885 2.18574 187.945 2.17214 187.99 2.17793C188.177 2.20224 188.287 2.30179 188.543 2.26468C188.692 2.24361 188.853 2.2345 189.009 2.22689C189.05 2.2246 189.104 2.24648 189.133 2.26351C189.149 2.27267 189.134 2.29887 189.115 2.3129C189.059 2.35228 188.99 2.38924 188.94 2.42983C188.934 2.43542 188.995 2.45852 189.03 2.46861C189.116 2.49114 189.214 2.48484 189.328 2.47137C189.426 2.45961 189.528 2.47635 189.599 2.51556C189.628 2.53124 189.619 2.55865 189.561 2.64978C189.562 2.71643 189.628 2.68499 189.649 2.64096C189.683 2.5776 189.616 2.55872 189.49 2.5956C189.402 2.6221 189.358 2.65847 189.381 2.68653C189.394 2.7012 189.454 2.71888 189.561 2.64978C189.838 2.56184 190.047 2.54213 190.256 2.52241C190.309 2.51711 190.372 2.50206 190.411 2.50935C190.548 2.5389 190.675 2.57546 190.809 2.60916C190.961 2.59754 191.103 2.57389 191.254 2.62354C191.465 2.69359 191.474 2.68658 191.676 2.66701C191.781 2.65647 191.885 2.6473 191.99 2.63812C192.094 2.62895 192.177 2.64747 192.27 2.67666C192.458 2.73633 192.474 2.73597 192.596 2.64611C192.667 2.59141 192.718 2.57258 192.81 2.59498C193.116 2.67102 193.12 2.67639 193.379 2.646C193.594 2.6207 193.797 2.61065 193.957 2.68457C194.066 2.73652 194.101 2.72349 194.185 2.66442C194.41 2.50827 194.514 2.5086 194.945 2.60768C195.145 2.65482 195.35 2.59438 195.553 2.58297C195.724 2.57364 195.845 2.60354 195.86 2.68893C195.871 2.74176 195.9 2.7792 196.014 2.79429C196.059 2.80008 196.113 2.80837 196.157 2.80464C196.42 2.78234 196.68 2.75739 196.942 2.73237C197.075 2.71982 197.147 2.65425 197.119 2.57051C197.089 2.48139 197.139 2.44759 197.328 2.41742C197.442 2.39987 197.534 2.40051 197.626 2.4229C197.729 2.4478 197.701 2.47292 197.613 2.5239C197.403 2.64842 197.43 2.72127 197.705 2.79804C197.801 2.82444 197.877 2.84856 197.9 2.89022C197.914 2.91169 197.902 2.94054 197.931 2.95621C198.088 3.04381 198.305 3.09739 198.547 3.13544C198.777 3.09346 198.937 3.15105 199.116 3.19598C199.256 3.23089 199.42 3.19451 199.569 3.17752C199.736 3.15874 199.876 3.16645 199.998 3.21403C200.084 3.24745 200.173 3.26175 200.278 3.25257C200.487 3.23285 200.699 3.21851 200.904 3.19206C201.081 3.16899 201.215 3.19317 201.327 3.23689C201.468 3.2922 201.622 3.24922 201.768 3.25407C201.965 3.25912 202.066 3.37793 202.322 3.33945C202.474 3.31695 202.632 3.30655 202.791 3.29751C202.832 3.29521 202.883 3.31718 202.918 3.33271C203.088 3.4037 203.284 3.39515 203.499 3.36849C203.648 3.35014 203.793 3.33323 203.94 3.3816C204.183 3.46317 204.451 3.53328 204.707 3.60776C204.743 3.66953 204.719 3.74354 204.901 3.77615C204.996 3.79303 205.086 3.81959 205.16 3.84921C205.249 3.88391 205.332 3.89157 205.446 3.87945C205.651 3.85573 205.867 3.84673 206.069 3.81764C206.256 3.79163 206.374 3.83386 206.489 3.87343C206.582 3.90534 206.668 3.91971 206.778 3.8927C206.891 3.86699 206.974 3.88007 207.067 3.9147C207.198 3.96207 207.208 3.95642 207.639 3.96159C207.683 3.96194 207.738 3.9811 207.763 3.99821C207.776 4.00744 207.748 4.0353 207.727 4.04941C207.698 4.06638 207.654 4.08642 207.613 4.09143C207.145 4.13746 206.674 4.17947 206.205 4.2255C206.158 4.23066 206.107 4.24134 206.073 4.25574C206.035 4.27156 205.988 4.29303 205.988 4.31207C205.989 4.32567 206.052 4.34056 206.097 4.34907C206.237 4.37718 206.401 4.32583 206.538 4.3581C206.631 4.37913 206.707 4.41003 206.8 4.42971C206.838 4.43836 206.898 4.43564 206.946 4.43183C207.104 4.41871 207.259 4.40158 207.417 4.38982C207.462 4.38745 207.513 4.39991 207.554 4.40985C207.86 4.48454 207.86 4.48453 208.123 4.46087C208.227 4.45169 208.338 4.42877 208.436 4.4347C208.532 4.4407 208.615 4.47554 208.701 4.49672C208.88 4.54165 209.049 4.58543 209.064 4.69122C209.071 4.73188 209.176 4.76486 209.281 4.7652C209.383 4.76562 209.49 4.74822 209.594 4.73768C209.841 4.71574 209.841 4.71574 210.163 4.79143C210.253 4.81253 210.348 4.81309 210.462 4.79689C210.506 4.79044 210.56 4.79466 210.608 4.80038C210.763 4.81725 210.764 4.84309 210.664 4.89436C210.523 4.96968 210.536 4.9762 210.936 5.02832C211.089 5.04798 211.207 5.08884 211.335 5.12404C211.542 5.18056 211.539 5.18062 211.405 5.26396C211.374 5.28236 211.345 5.30206 211.314 5.32182C211.223 5.37695 211.152 5.43573 210.962 5.44549C210.753 5.45569 210.544 5.48221 210.335 5.50193C210.133 5.5215 210.08 5.55535 210.101 5.6474C210.125 5.75843 210.167 5.76973 210.531 5.76009C210.636 5.75771 210.728 5.7665 210.808 5.80142C210.771 5.8458 210.702 5.88139 210.601 5.89186C210.342 5.91816 210.079 5.94183 209.82 5.96542C209.611 5.98514 209.402 6.00484 209.193 6.02456C209.063 6.03704 208.982 6.10964 209.019 6.18773C209.039 6.23218 209.056 6.2767 209.073 6.32122C209.11 6.41019 209.177 6.43181 209.389 6.4229C209.443 6.42031 209.494 6.40827 209.544 6.40984C209.751 6.41468 209.851 6.52532 210.098 6.49658C210.304 6.47286 210.519 6.46388 210.722 6.43479C210.908 6.40878 211.014 6.45538 211.144 6.48914C211.189 6.50038 211.237 6.52512 211.275 6.5229C211.538 6.50196 211.801 6.48103 212.057 6.44935C212.177 6.43573 212.25 6.44223 212.346 6.47271C212.576 6.54641 212.582 6.54218 212.921 6.50999C213.168 6.48533 213.171 6.48798 213.49 6.56374C213.579 6.58484 213.674 6.58267 213.788 6.5692C213.937 6.55221 214.092 6.52692 214.247 6.54379C214.295 6.54815 214.356 6.56311 214.372 6.58043C214.382 6.59245 214.338 6.62339 214.3 6.63377C214.023 6.71083 213.696 6.70602 213.392 6.74149C213.298 6.75182 213.202 6.72813 213.122 6.69321C213.039 6.65837 212.949 6.64543 212.842 6.65468C212.633 6.67439 212.421 6.68874 212.215 6.71518C212.038 6.73826 211.914 6.70978 211.789 6.67043C211.748 6.65777 211.7 6.633 211.658 6.6353C211.19 6.67316 210.718 6.71111 210.253 6.75978C210.067 6.78035 209.958 6.73928 209.83 6.70544C209.786 6.69421 209.741 6.66938 209.699 6.67167C209.541 6.68072 209.386 6.6992 209.228 6.71369C208.652 6.7676 208.079 6.82145 207.503 6.87264C207.465 6.87623 207.417 6.84874 207.372 6.83751C207.286 6.81497 207.197 6.79387 207.108 6.77276C206.949 6.78725 206.794 6.80438 206.636 6.81614C206.522 6.82417 206.421 6.84553 206.407 6.89757C206.398 6.93179 206.503 6.96069 206.614 6.95544C206.722 6.95027 206.829 6.9315 206.918 6.94717C207.361 7.02419 207.361 7.02556 207.636 7.00161C207.877 6.97981 207.851 6.96678 208.065 7.03676C208.158 7.06731 208.241 7.08449 208.345 7.07395C208.605 7.049 208.867 7.02397 209.13 7.00167C209.171 6.99802 209.225 7.0104 209.267 7.02034C209.579 7.09488 209.579 7.0976 209.836 7.07136C210.171 7.03924 210.184 7.03216 210.41 7.11C210.567 7.1636 210.709 7.12091 210.858 7.11481C211.03 7.16396 211.218 7.20731 211.375 7.26363C211.56 7.33017 211.753 7.31352 211.962 7.28837C212.117 7.26988 212.269 7.26098 212.397 7.31386C212.519 7.3628 212.665 7.36494 212.829 7.34759C212.978 7.33196 213.13 7.30266 213.286 7.32905C213.327 7.33627 213.391 7.35524 213.388 7.36755C213.385 7.38666 213.345 7.41481 213.304 7.4239C213.013 7.48629 212.693 7.4922 212.386 7.52503C212.345 7.53005 212.291 7.51631 212.249 7.50637C212.16 7.4839 212.074 7.45729 211.988 7.4334C211.833 7.44509 211.674 7.4514 211.522 7.47118C211.405 7.48609 211.317 7.48676 211.23 7.45606C211.15 7.42794 211.064 7.39316 210.969 7.3858C210.873 7.37844 210.763 7.40137 210.658 7.4119C210.554 7.42244 210.434 7.42109 210.352 7.44473C210.27 7.46836 210.22 7.51712 210.167 7.55643C210.108 7.59996 210.026 7.61544 209.905 7.62226C209.795 7.62886 209.706 7.62543 209.622 7.58922C209.587 7.5737 209.539 7.56253 209.491 7.55273C209.447 7.54422 209.396 7.53041 209.355 7.53406C208.883 7.57608 208.415 7.62076 207.943 7.66413C207.709 7.68579 207.712 7.6857 207.222 7.61655C207.178 7.61076 207.124 7.60247 207.079 7.6062C206.817 7.6285 206.557 7.65345 206.295 7.67847C206.029 7.70357 206.032 7.70077 205.577 7.62539C205.494 7.61094 205.374 7.63545 205.276 7.63496C205.069 7.63284 204.965 7.52091 204.725 7.54814C204.519 7.57187 204.304 7.58084 204.098 7.61001C203.912 7.63602 203.803 7.59087 203.675 7.55703C203.631 7.5458 203.583 7.51968 203.545 7.52326C203.073 7.56392 202.605 7.60858 201.977 7.62693C201.822 7.63046 201.892 7.65744 201.994 7.66466C202.14 7.6763 202.187 7.64666 202.107 7.59406C202.049 7.55727 201.966 7.54009 201.899 7.55113C201.865 7.55736 201.821 7.58422 201.977 7.62693C202.143 7.67487 202.134 7.70364 202.163 7.71931C202.234 7.75717 202.333 7.77125 202.434 7.76351C202.592 7.75038 202.747 7.73326 202.905 7.72149C202.95 7.71776 203.004 7.72606 203.045 7.736C203.396 7.8124 203.399 7.81778 203.769 7.7767C203.886 7.76452 203.972 7.76257 204.064 7.78632C204.192 7.8188 204.285 7.87655 204.478 7.85311C204.734 7.82144 204.997 7.80051 205.26 7.77957C205.301 7.77591 205.346 7.79938 205.394 7.80918C205.524 7.83887 205.621 7.89791 205.814 7.86767C205.962 7.84389 206.124 7.83476 206.282 7.82708C206.323 7.82478 206.387 7.8451 206.407 7.86235C206.445 7.89277 206.399 7.93058 206.292 7.95887C206.247 7.97076 206.187 7.9694 206.137 7.97464C205.928 7.99435 205.719 8.01542 205.51 8.03242C205.399 8.04174 205.295 8.06453 205.284 8.11514C205.275 8.14935 205.39 8.17667 205.497 8.17151C205.656 8.16382 205.814 8.14934 205.966 8.1282C206.234 8.09216 206.469 8.09498 206.69 8.17569C206.846 8.232 206.836 8.21047 207.005 8.38353C207.048 8.42748 207.171 8.42874 207.279 8.42357C207.539 8.41086 207.66 8.42853 207.638 8.4712C207.611 8.52353 207.52 8.54193 207.402 8.5514C207.194 8.56703 206.985 8.58948 206.776 8.60919C206.725 8.61442 206.668 8.62388 206.621 8.62224C206.573 8.6206 206.528 8.60529 206.487 8.59398C206.398 8.57016 206.321 8.53244 206.225 8.52508C206.13 8.51772 206.02 8.54065 205.915 8.55118C205.811 8.56036 205.7 8.58329 205.605 8.57593C205.51 8.56857 205.429 8.52958 205.343 8.50704C205.302 8.49574 205.251 8.47784 205.21 8.48013C205.001 8.49577 204.792 8.51821 204.583 8.53657C204.327 8.56009 204.327 8.56009 204.014 8.48282C203.925 8.46036 203.833 8.46382 203.716 8.47736C203.463 8.50489 203.459 8.50087 202.995 8.4325C202.95 8.42535 202.896 8.41706 202.852 8.42215C202.38 8.46417 201.912 8.50883 201.444 8.55213C201.042 8.58984 201.042 8.58986 200.823 8.7309C200.661 8.8353 200.657 8.83536 200.82 8.87793C200.951 8.91306 201.069 8.96615 201.213 8.98331C201.346 8.99932 201.51 8.93437 201.657 8.99362C201.73 9.02325 201.826 9.05509 201.918 9.05844C202.064 9.06193 202.219 9.01895 202.36 9.07562C202.43 9.10396 202.535 9.13287 202.624 9.13221C202.78 9.1314 202.937 9.10603 203.093 9.09298C203.14 9.08918 203.194 9.08796 203.238 9.09375C203.286 9.10083 203.328 9.11622 203.369 9.12888C203.497 9.17224 203.634 9.1909 203.798 9.16403C204.067 9.11982 204.308 9.13339 204.519 9.21568C204.548 9.22727 204.618 9.22705 204.662 9.2206C204.776 9.20441 204.874 9.20081 204.96 9.22471C204.995 9.23479 205.047 9.25267 205.041 9.26506C205.031 9.28568 204.994 9.31374 204.953 9.32148C204.656 9.3745 204.336 9.38722 204.029 9.41869C203.988 9.42235 203.937 9.40581 203.896 9.3945C203.806 9.37204 203.729 9.33298 203.634 9.32562C203.539 9.31826 203.428 9.33846 203.324 9.34764C203.219 9.35682 203.109 9.37974 203.013 9.37374C202.918 9.36638 202.829 9.33439 202.752 9.3062C202.662 9.27422 202.577 9.27209 202.46 9.28836C202.308 9.3095 202.15 9.31582 201.994 9.32887C201.908 9.30497 201.822 9.27835 201.733 9.25588C201.691 9.24458 201.64 9.23078 201.596 9.23315C201.387 9.24878 201.178 9.26985 200.969 9.28957C200.76 9.30928 200.76 9.3093 200.403 9.23304C200.362 9.22446 200.308 9.2148 200.263 9.21853C200.001 9.24083 199.741 9.26713 199.479 9.28943C199.377 9.29853 199.285 9.28158 199.202 9.24674C199.122 9.21182 199.026 9.19358 198.928 9.20261C198.51 9.24068 198.093 9.2774 197.675 9.32091C197.507 9.33833 197.364 9.32934 197.249 9.28297C197.115 9.23023 196.966 9.24722 196.811 9.26163C196.46 9.29683 196.457 9.29553 196.23 9.23129C196.185 9.21869 196.14 9.19386 196.099 9.19615C195.735 9.22484 195.368 9.25224 195.007 9.2931C194.817 9.3151 194.715 9.26981 194.587 9.23733C194.543 9.2261 194.495 9.20133 194.457 9.20492C194.194 9.22586 193.931 9.24545 193.675 9.27848C193.419 9.31152 193.318 9.18727 193.124 9.19303C192.861 9.20037 192.602 9.23756 192.343 9.26251C192.134 9.28222 191.925 9.30193 191.716 9.32165C191.507 9.34136 191.298 9.35835 191.089 9.38079C190.979 9.39283 190.896 9.38246 190.803 9.35055C190.685 9.30833 190.545 9.27616 190.417 9.23824C190.222 9.18415 190.222 9.18414 189.988 9.2058C189.938 9.21103 189.884 9.21497 189.833 9.2202C189.45 9.25884 189.45 9.25613 188.96 9.18154C188.938 9.17796 188.881 9.19423 188.859 9.20561C188.793 9.24249 188.734 9.28193 188.675 9.32002C188.589 9.3002 188.484 9.29034 188.426 9.26036C188.262 9.17563 188.012 9.30244 187.845 9.21914C187.784 9.18787 187.678 9.16168 187.583 9.15568C187.485 9.14976 187.374 9.17132 187.273 9.18179C187.01 9.20817 187.01 9.20681 186.788 9.33297C186.675 9.39541 186.51 9.38827 186.362 9.40525C186.207 9.42375 186.058 9.43529 185.927 9.38249C185.808 9.33483 185.665 9.32584 185.498 9.34598C185.292 9.37106 185.08 9.38812 184.871 9.40512C184.827 9.40885 184.773 9.40328 184.728 9.39612C184.241 9.3269 184.241 9.32555 184.007 9.34856C183.903 9.3591 183.795 9.36426 183.694 9.3788C183.523 9.40446 183.393 9.37885 183.268 9.33814C183.227 9.32547 183.178 9.30073 183.137 9.30302C182.928 9.31458 182.722 9.3315 182.517 9.34842C182.358 9.36155 182.2 9.37059 182.048 9.39309C181.796 9.43013 181.67 9.34453 181.495 9.30769C181.235 9.33128 180.972 9.3495 180.713 9.37989C180.593 9.39351 180.514 9.39124 180.421 9.36068C180.303 9.32255 180.194 9.27876 180.004 9.30348C179.751 9.33645 179.485 9.35202 179.226 9.37425C179.05 9.33605 178.922 9.25324 178.672 9.29021C178.52 9.31271 178.359 9.32046 178.204 9.33488C177.995 9.35459 177.786 9.37296 177.577 9.39403C177.352 9.41547 177.355 9.41132 177.008 9.33893C176.807 9.29587 176.602 9.35359 176.4 9.36636C176.241 9.37676 176.164 9.44112 176.204 9.5205C176.243 9.59988 176.159 9.66439 176.014 9.67858C175.65 9.71271 175.283 9.74826 174.919 9.77967C174.874 9.7834 174.82 9.7751 174.779 9.76652C174.387 9.6897 174.387 9.69107 174.213 9.70727C173.954 9.73358 173.688 9.7505 173.432 9.78218C173.254 9.8039 173.124 9.7783 173.009 9.73465C172.919 9.70131 172.836 9.69502 172.723 9.70577C171.469 9.82543 170.216 9.93828 168.966 10.0606C168.78 10.0784 168.671 10.0414 168.543 10.0076C168.499 9.99638 168.457 9.97147 168.413 9.97248C168.308 9.97486 168.204 9.98948 168.099 10C167.631 10.0433 167.163 10.0934 166.691 10.1286C166.492 10.1441 166.439 10.2078 166.355 10.2615C166.289 10.3024 166.213 10.3205 166.096 10.3286C165.982 10.3366 165.9 10.3317 165.81 10.2983C165.695 10.2547 165.564 10.2291 165.387 10.2522C165.182 10.2786 164.973 10.2929 164.761 10.3127C164.653 10.3219 164.571 10.3483 164.538 10.398C164.531 10.4063 164.598 10.4252 164.637 10.4366C164.765 10.4745 164.886 10.5194 165.029 10.5447C165.176 10.57 165.334 10.5337 165.485 10.5221C165.539 10.5181 165.59 10.5088 165.641 10.509C165.688 10.5093 165.745 10.5148 165.781 10.5263C165.947 10.5837 166.122 10.6219 166.349 10.58C166.546 10.5932 166.65 10.7038 166.9 10.6682C167.052 10.6471 167.21 10.6353 167.368 10.6249C167.41 10.6226 167.455 10.6461 167.499 10.6573C167.627 10.6884 167.729 10.7405 167.919 10.7131C168.121 10.684 168.337 10.675 168.542 10.6513C168.656 10.6378 168.739 10.6454 168.828 10.6788C168.944 10.7211 169.074 10.7521 169.251 10.7263C169.403 10.7038 169.565 10.6961 169.72 10.6803C169.922 10.6607 169.922 10.6621 170.285 10.7382C170.327 10.7468 170.381 10.7564 170.425 10.7527C170.688 10.7304 170.947 10.7041 171.21 10.6818C171.311 10.6727 171.41 10.6881 171.481 10.726C171.51 10.7417 171.501 10.7691 171.511 10.792C170.989 10.8406 170.466 10.8838 169.948 10.9405C169.752 10.9626 169.661 10.9089 169.531 10.8805C169.486 10.8707 169.438 10.8486 169.397 10.8523C169.03 10.8838 168.666 10.9165 168.302 10.9547C168.188 10.9669 168.103 10.9634 168.016 10.9259C167.795 10.8261 167.53 10.8893 167.283 10.9099C167.093 10.9251 167.034 10.9686 167.058 11.0579C167.089 11.1633 167.204 11.1933 167.495 11.1677C167.6 11.1585 167.704 11.1466 167.808 11.1388C167.91 11.131 168.002 11.1466 168.085 11.1815C168.165 11.2164 168.261 11.2333 168.359 11.2256C168.568 11.2086 168.78 11.1915 168.982 11.1665C169.15 11.1464 169.29 11.1568 169.408 11.2045C169.54 11.2573 169.691 11.2416 169.843 11.2259C170.198 11.1906 170.201 11.1919 170.424 11.2549C170.469 11.2675 170.514 11.2923 170.555 11.29C170.919 11.2613 171.286 11.2353 171.644 11.1945C171.83 11.1739 171.939 11.215 172.064 11.2475C172.108 11.2588 172.153 11.285 172.194 11.2813C172.457 11.2604 172.72 11.2394 172.976 11.2077C173.096 11.1928 173.169 11.1993 173.268 11.2297C173.505 11.3046 173.511 11.3017 173.843 11.2683C173.944 11.2578 174.055 11.2404 174.15 11.2491C174.246 11.2578 174.323 11.2955 174.412 11.318C174.454 11.3279 174.505 11.3417 174.549 11.338C174.758 11.3224 174.967 11.3013 175.175 11.2816C175.372 11.2622 175.372 11.2635 175.741 11.3395C175.891 11.3715 176.046 11.338 176.194 11.3237C176.356 11.3078 176.502 11.3045 176.626 11.3547C176.751 11.405 176.9 11.3989 177.058 11.3844C177.207 11.3701 177.359 11.3367 177.512 11.37C177.862 11.4464 177.862 11.4477 178.077 11.4265C178.391 11.3963 178.701 11.3675 179.017 11.3398C179.058 11.3362 179.113 11.3513 179.154 11.3612C179.243 11.3837 179.32 11.4228 179.416 11.4301C179.511 11.4388 179.622 11.42 179.723 11.4095C180.049 11.3763 180.071 11.3663 180.292 11.451C180.477 11.5203 180.703 11.409 180.876 11.4895C180.975 11.5348 181.109 11.5699 181.293 11.5426C181.444 11.5201 181.603 11.511 181.761 11.4966C182.011 11.4732 182.011 11.4746 182.33 11.549C182.371 11.5589 182.425 11.5713 182.467 11.5676C182.675 11.552 182.888 11.5376 183.09 11.5085C183.327 11.4746 183.48 11.5228 183.659 11.5691C183.799 11.6054 183.963 11.569 184.112 11.552C184.273 11.5347 184.419 11.5355 184.541 11.5858C184.669 11.6373 184.818 11.6271 184.976 11.6126C185.125 11.5997 185.276 11.565 185.429 11.5996C185.758 11.6765 185.758 11.6765 185.995 11.6548C186.204 11.6351 186.413 11.614 186.622 11.5984C186.663 11.5947 186.714 11.6112 186.755 11.6225C186.845 11.645 186.922 11.6841 187.017 11.6914C187.112 11.6988 187.223 11.6786 187.327 11.6694C187.432 11.6602 187.542 11.6373 187.638 11.6433C187.733 11.6493 187.822 11.6813 187.899 11.7095C187.989 11.7428 188.071 11.745 188.191 11.7287C188.343 11.7076 188.501 11.6999 188.656 11.6868C188.743 11.7107 188.832 11.7345 188.915 11.7612C189.001 11.7892 189.093 11.7844 189.21 11.7722C189.599 11.7307 189.603 11.7347 189.931 11.8116C190.081 11.8463 190.236 11.8115 190.384 11.7986C190.543 11.7841 190.691 11.7753 190.816 11.8269C190.938 11.8758 191.087 11.8792 191.245 11.8593C191.346 11.8461 191.454 11.8369 191.558 11.8304C191.606 11.828 191.663 11.8321 191.698 11.8422C191.868 11.8955 192.034 11.9435 192.264 11.9015C192.467 11.9077 192.571 12.017 192.815 11.9896C193.02 11.9659 193.236 11.9569 193.438 11.9278C193.625 11.9018 193.759 11.9369 193.855 11.9823C194.028 12.0628 194.266 11.943 194.439 12.0221C194.539 12.0675 194.666 12.1027 194.856 12.078C195.065 12.0514 195.132 12.0785 195.194 12.1628C195.23 12.211 195.225 12.2506 195.162 12.2901C195.1 12.331 195.03 12.3258 194.927 12.2832C194.809 12.2355 194.669 12.2292 194.501 12.2439C194.337 12.2585 194.234 12.1901 194.097 12.166C193.96 12.1405 193.799 12.1918 193.656 12.1583C193.318 12.0803 193.318 12.0803 193.09 12.1018C192.935 12.1162 192.774 12.1253 192.622 12.1478C192.442 12.175 192.323 12.1355 192.199 12.1003C192.154 12.0877 192.109 12.0628 192.071 12.0651C191.707 12.0937 191.34 12.1211 190.979 12.1634C190.79 12.1854 190.687 12.1387 190.56 12.1076C190.515 12.0964 190.467 12.073 190.429 12.0765C190.115 12.1027 189.805 12.1343 189.492 12.1645C189.433 12.2026 189.367 12.2395 189.311 12.2802C189.252 12.3224 189.17 12.3419 189.049 12.3433C188.849 12.3479 188.654 12.4094 188.453 12.3419C188.245 12.2731 188.229 12.2776 188.03 12.2998C187.777 12.3287 187.507 12.3294 187.271 12.3878C187.23 12.3983 187.186 12.4251 187.187 12.4442C187.184 12.4565 187.251 12.4726 187.292 12.4826C187.432 12.5121 187.593 12.4608 187.733 12.4916C187.826 12.5113 187.902 12.5422 187.995 12.5632C188.033 12.5719 188.09 12.5692 188.141 12.5667C188.195 12.5641 188.245 12.5535 188.296 12.5537C188.344 12.5539 188.395 12.5609 188.433 12.5723C188.608 12.62 188.793 12.6635 188.95 12.7211C189.104 12.7775 189.245 12.7335 189.397 12.7273C190.008 12.8087 190.008 12.81 190.416 12.7708C190.518 12.7617 190.622 12.7512 190.727 12.7502C190.771 12.7491 190.813 12.7727 190.857 12.7853C190.985 12.8232 191.106 12.8572 191.283 12.8314C191.435 12.8089 191.597 12.8011 191.752 12.7854C191.961 12.7656 191.961 12.7656 192.318 12.8433C192.407 12.863 192.502 12.8581 192.616 12.8447C192.714 12.8329 192.816 12.851 192.886 12.8889C192.915 12.9045 192.906 12.9319 192.916 12.9548C192.603 12.9837 192.286 13.0059 191.983 13.0455C191.787 13.0703 191.697 13.0139 191.566 12.9855C191.521 12.9757 191.473 12.9536 191.432 12.9573C191.122 12.9847 190.812 13.0149 190.502 13.0492C190.464 13.0528 190.417 13.0851 190.414 13.1042C190.409 13.1397 190.489 13.1719 190.603 13.168C190.755 13.1632 190.904 13.1367 191.041 13.1893C191.156 13.2357 191.3 13.2542 191.467 13.2287C191.568 13.2141 191.676 13.2116 191.777 13.1985C192.046 13.1597 192.29 13.1609 192.495 13.2488C192.651 13.2698 192.803 13.2432 192.951 13.2276C193.062 13.2155 193.169 13.2035 193.249 13.2276C193.419 13.2782 193.585 13.3288 193.815 13.2869C194.066 13.3192 194.258 13.3952 194.469 13.4557C194.568 13.4847 194.645 13.5007 194.758 13.4777C194.806 13.4685 194.863 13.4672 194.913 13.4619C195.018 13.4527 195.128 13.4298 195.223 13.4358C195.319 13.4432 195.399 13.4808 195.485 13.5034C195.527 13.5147 195.575 13.534 195.616 13.5317C195.774 13.5213 195.929 13.5041 196.084 13.4897C196.239 13.4767 196.394 13.4636 196.549 13.4506C196.68 13.483 196.814 13.5153 196.945 13.5477C197.154 13.528 197.363 13.5083 197.568 13.49C197.799 13.4684 197.799 13.4698 198.134 13.5466C198.284 13.5813 198.442 13.5532 198.584 13.5322C198.821 13.4983 198.981 13.5464 199.15 13.597C199.185 13.607 199.249 13.6124 199.29 13.606C199.454 13.5832 199.597 13.5949 199.719 13.6425C199.805 13.6759 199.891 13.6903 199.996 13.6812C200.36 13.647 200.723 13.6115 201.087 13.5801C201.132 13.5764 201.183 13.5875 201.224 13.5974C201.549 13.673 201.553 13.6771 201.79 13.6499C202.002 13.626 202.198 13.6134 202.368 13.6844C202.403 13.6999 202.457 13.7218 202.495 13.7196C202.755 13.7001 203.018 13.6791 203.274 13.6502C203.391 13.6366 203.474 13.6388 203.566 13.668C203.684 13.7048 203.79 13.75 203.983 13.728C204.518 13.6655 204.521 13.6735 205.157 13.753C205.201 13.7588 205.261 13.7465 205.312 13.7399C205.419 13.7239 205.499 13.7411 205.595 13.7702C205.809 13.8361 205.815 13.8319 206.018 13.8123C206.173 13.7966 206.334 13.7902 206.486 13.7663C206.72 13.7311 206.876 13.7806 207.052 13.8269C207.192 13.8632 207.353 13.8269 207.502 13.8113C207.663 13.794 207.809 13.7947 207.931 13.8437C208.014 13.8772 208.103 13.8942 208.208 13.885C208.572 13.8523 208.935 13.8168 209.299 13.784C209.344 13.7803 209.398 13.7899 209.439 13.7985C209.803 13.8746 209.803 13.8787 210.16 13.8393C210.274 13.8272 210.369 13.8223 210.455 13.8489C210.538 13.8742 210.628 13.898 210.714 13.9219C210.869 13.9089 211.027 13.9026 211.179 13.8828C211.296 13.8679 211.379 13.8715 211.471 13.8979C211.592 13.9319 211.695 13.9935 211.885 13.9579C211.983 13.9407 212.097 13.9422 212.195 13.9264C212.312 13.906 212.391 13.9151 212.484 13.9484C212.599 13.9879 212.717 14.0288 212.901 14.0029C213.103 13.9738 213.318 13.9648 213.524 13.9411C213.638 13.9276 213.717 13.9367 213.81 13.9699C213.925 14.0122 214.056 14.0378 214.233 14.0161C214.594 13.9739 214.597 13.9806 214.951 14.0583C215.04 14.0781 215.135 14.0732 215.249 14.0597C215.347 14.048 215.449 14.0661 215.519 14.1039C215.587 14.1459 215.581 14.1733 215.588 14.1962ZM187.06 2.57191C186.956 2.58109 186.851 2.59163 186.696 2.47676C186.686 2.45658 186.692 2.43196 186.669 2.41478C186.618 2.37921 186.538 2.35517 186.443 2.35325C186.272 2.3517 186.067 2.40262 186.071 2.43791C186.074 2.46776 186.129 2.49237 186.234 2.51448C186.279 2.52299 186.314 2.53852 186.355 2.54846C186.477 2.577 186.573 2.63606 186.747 2.60081C186.713 2.51721 186.73 2.55901 186.747 2.60081C186.732 2.65285 186.78 2.6885 186.895 2.70086C186.927 2.70422 186.974 2.70042 186.999 2.69168C187.097 2.65952 187.112 2.61837 187.036 2.51258C187.024 2.53055 187.034 2.56161 187.063 2.56912C187.092 2.57663 187.161 2.56825 187.196 2.55794C187.284 2.53008 187.328 2.49507 187.305 2.46701C187.292 2.45234 187.231 2.43467 187.193 2.43553C187.127 2.43705 187.067 2.46833 187.06 2.57191ZM213.054 17.7619C212.823 17.793 212.557 17.7895 212.327 17.8478C212.286 17.8583 212.245 17.8837 212.242 17.9028C212.24 17.9151 212.303 17.9314 212.342 17.94C212.428 17.9599 212.523 17.9509 212.633 17.9416C212.801 17.9282 212.901 17.9886 213.032 18.0169C213.073 18.0255 213.127 18.031 213.171 18.0273C213.428 18.0052 213.681 17.9817 213.937 17.9569C213.981 17.9518 214.029 17.9412 214.066 17.928C214.192 17.8857 214.179 17.8602 214.055 17.8331C213.918 17.8035 213.809 17.7516 213.669 17.7289C213.468 17.6967 213.266 17.7503 213.054 17.7619ZM195.077 19.1639C194.922 19.1783 194.77 19.1927 194.615 19.2071C194.564 19.2123 194.51 19.2149 194.463 19.2214C194.365 19.2332 194.293 19.2634 194.246 19.3094C194.32 19.3431 194.409 19.3614 194.507 19.3551C194.662 19.3434 194.814 19.3223 194.969 19.3147C195.137 19.3054 195.237 19.3644 195.367 19.3927C195.409 19.4013 195.46 19.4015 195.507 19.4018C195.742 19.4019 195.883 19.3279 195.836 19.2297C195.803 19.1529 195.681 19.1094 195.536 19.1222C195.384 19.1352 195.229 19.1496 195.077 19.1639ZM214.092 15.7271C214.129 15.7031 214.17 15.6859 214.189 15.665C214.244 15.5944 214.221 15.5432 214.115 15.4912C213.986 15.4274 213.832 15.4758 213.69 15.4859C213.655 15.488 213.618 15.5174 213.599 15.5355C213.587 15.5481 213.587 15.5739 213.606 15.5803C213.763 15.6312 213.929 15.6777 214.092 15.7271ZM186.502 12.3345C186.35 12.3489 186.195 12.3606 186.044 12.379C186.006 12.3839 185.971 12.4106 185.95 12.4287C185.909 12.4623 185.954 12.5062 186.085 12.5073C186.234 12.5094 186.388 12.4827 186.543 12.4683C186.74 12.4502 186.856 12.3972 186.782 12.3554C186.711 12.3148 186.616 12.3088 186.502 12.3345ZM19.5891 13.2207C19.6903 13.2116 19.7948 13.2038 19.896 13.192C19.9909 13.1803 20.0631 13.1487 20.1096 13.1027C20.0296 13.0692 19.9404 13.0522 19.8422 13.0585C19.6871 13.0702 19.5352 13.0845 19.3834 13.1016C19.2885 13.1119 19.1973 13.1439 19.1762 13.1906C19.1548 13.2265 19.3676 13.2421 19.5891 13.2207ZM173.026 9.52333C173.067 9.53463 173.109 9.55818 173.15 9.55725C173.252 9.55494 173.356 9.5444 173.451 9.52863C173.492 9.52226 173.523 9.49706 173.542 9.47759C173.554 9.46506 173.551 9.44337 173.531 9.43292C173.438 9.36973 173.071 9.40121 173.012 9.47738C173.006 9.49113 173.022 9.50844 173.026 9.52333ZM162.854 2.30297C162.864 2.32451 162.867 2.3462 162.88 2.36767C162.907 2.4079 162.977 2.43624 163.079 2.45434C163.158 2.41853 163.198 2.37952 163.194 2.33879C163.19 2.3171 163.18 2.29554 163.167 2.27407C163.141 2.23384 163.07 2.20552 162.968 2.18742C162.89 2.22187 162.853 2.26081 162.854 2.30297ZM221.492 18.8003C221.463 18.8186 221.435 18.8369 221.404 18.854C221.491 18.8915 221.57 18.9019 221.63 18.8788C221.668 18.8643 221.689 18.8434 221.717 18.8251C221.631 18.7876 221.554 18.7784 221.492 18.8003ZM219.524 19.03C219.566 19.0413 219.604 19.0568 219.649 19.064C219.722 19.0759 219.788 19.0513 219.838 19.0011C219.796 18.9898 219.758 18.9744 219.713 18.9672C219.64 18.9553 219.574 18.9799 219.524 19.03ZM220.767 18.7528C220.746 18.7859 220.791 18.8121 220.909 18.8326C220.937 18.8142 220.975 18.797 220.993 18.7776C221.024 18.7456 220.97 18.7182 220.855 18.6991C220.824 18.7161 220.796 18.7344 220.767 18.7528ZM214.042 17.4387C214.021 17.4719 214.066 17.4981 214.184 17.5185C214.212 17.5002 214.25 17.483 214.268 17.4635C214.299 17.4315 214.245 17.4042 214.13 17.385C214.099 17.4021 214.071 17.4204 214.042 17.4387ZM204.704 8.02216C204.676 8.04049 204.648 8.05882 204.617 8.07586C204.703 8.11336 204.783 8.12379 204.842 8.10066C204.88 8.0862 204.902 8.06529 204.93 8.04696C204.843 8.00947 204.767 8.00032 204.704 8.02216ZM195.854 3.11499C195.93 3.12279 195.993 3.10231 196.046 3.05076C196.004 3.03946 195.966 3.024 195.921 3.01685C195.848 3.00491 195.782 3.02955 195.733 3.07966C195.774 3.09233 195.816 3.10362 195.854 3.11499ZM191.209 2.90079C191.181 2.91912 191.153 2.93745 191.122 2.95449C191.208 2.99199 191.288 3.00242 191.347 2.97929C191.385 2.96483 191.407 2.94392 191.435 2.92559C191.349 2.8881 191.272 2.88031 191.209 2.90079ZM159.735 2.3725C159.707 2.39083 159.678 2.40916 159.647 2.4262C159.734 2.4637 159.813 2.47414 159.873 2.45101C159.911 2.43654 159.932 2.41563 159.96 2.39731C159.874 2.35981 159.798 2.35202 159.735 2.3725ZM3.41396 16.9971C3.37247 16.9858 3.33102 16.9745 3.29267 16.9618C3.2016 17.0006 3.17386 17.0352 3.22518 17.0599C3.25725 17.0755 3.30498 17.084 3.34647 17.0953C3.44071 17.0564 3.46213 17.0232 3.41396 16.9971Z" fill="#FFE492"/>
<path d="M115.414 21.6094C115.172 21.6407 114.932 21.6787 114.69 21.7005C114.562 21.7116 114.516 21.771 114.465 21.8265C114.424 21.8709 114.376 21.8856 114.298 21.8955C113.641 21.977 112.986 22.0625 112.331 22.1466C112.249 22.1308 112.208 22.1032 112.226 22.0689C112.236 22.0483 112.261 22.0192 112.286 22.0159C112.735 21.9554 113.181 21.8937 113.631 21.8441C113.76 21.8303 113.794 21.7697 113.859 21.7194C113.879 21.7026 113.896 21.6778 113.923 21.6676C113.95 21.6562 113.99 21.6566 114.026 21.6531C114.75 21.5592 115.474 21.4667 116.199 21.3728C116.281 21.3886 116.322 21.4162 116.304 21.4506C116.294 21.4712 116.269 21.5003 116.244 21.5036C115.966 21.5384 115.69 21.5732 115.414 21.6094Z" fill="#FFE492"/>
<path d="M248.739 28.8042C248.629 28.823 248.491 28.8492 248.375 28.773C248.319 28.7363 248.26 28.7254 248.188 28.7352C248.085 28.7511 247.98 28.7644 247.874 28.7749C247.847 28.7769 247.811 28.7627 247.783 28.7511C247.723 28.728 247.672 28.6885 247.608 28.679C247.545 28.6696 247.469 28.7012 247.404 28.6959C247.317 28.6883 247.28 28.6525 247.303 28.618C247.315 28.5987 247.34 28.571 247.367 28.5663C247.756 28.5072 247.758 28.5071 247.869 28.5535C247.955 28.5896 248.034 28.63 248.153 28.6041C248.254 28.5828 248.362 28.5763 248.465 28.5617C248.608 28.5422 248.608 28.5435 248.842 28.6238C248.902 28.6442 248.965 28.6414 249.041 28.6275C249.106 28.6165 249.17 28.6368 249.223 28.6723C249.191 28.7192 249.143 28.7502 249.078 28.7598C248.972 28.7758 248.869 28.7876 248.739 28.8042Z" fill="#FFE492"/>
<path d="M244.839 28.4065C245.104 28.3717 245.371 28.3409 245.636 28.302C245.745 28.2859 245.832 28.2989 245.909 28.3437C245.993 28.3924 246.086 28.3862 246.187 28.3743C246.25 28.3674 246.311 28.3879 246.355 28.4252C246.372 28.4399 246.368 28.4673 246.375 28.4891C246.143 28.519 245.91 28.5503 245.676 28.5776C245.649 28.5809 245.615 28.568 245.589 28.5577C245.532 28.5357 245.482 28.4958 245.421 28.489C245.29 28.4728 245.16 28.5127 245.027 28.5226C244.964 28.5268 244.902 28.5077 244.859 28.4717C244.842 28.4543 244.845 28.4282 244.839 28.4065Z" fill="#FFE492"/>
<path d="M148.403 16.0801C148.678 16.0439 148.954 16.0091 149.23 15.9729C149.313 15.99 149.351 16.0164 149.335 16.0507C149.325 16.0714 149.3 16.1005 149.275 16.1038C148.724 16.1775 148.172 16.2485 147.623 16.3194C147.54 16.3023 147.501 16.276 147.518 16.2416C147.528 16.221 147.552 16.1919 147.578 16.1886C147.851 16.1511 148.127 16.1162 148.403 16.0801Z" fill="#FFE492"/>
<path d="M105.704 24.621C105.58 24.6268 105.451 24.6824 105.311 24.646C105.284 24.6395 105.245 24.6177 105.247 24.6049C105.251 24.5835 105.276 24.556 105.303 24.5468C105.422 24.5086 105.571 24.5008 105.63 24.4001C105.658 24.3483 105.712 24.33 105.786 24.3183C105.863 24.3052 105.918 24.3081 105.98 24.3364C106.061 24.3728 106.13 24.4421 106.255 24.4023C106.262 24.4248 106.277 24.45 106.271 24.4714C106.266 24.4928 106.239 24.5133 106.214 24.5295C106.191 24.5442 106.16 24.5578 106.13 24.5627C105.992 24.583 105.853 24.6005 105.704 24.621Z" fill="#FFE492"/>
<path d="M215.794 23.7166C215.897 23.7032 216.004 23.6952 216.105 23.6736C216.185 23.6565 216.235 23.665 216.299 23.6966C216.408 23.7521 216.415 23.7464 216.678 23.7486C216.708 23.7493 216.744 23.7691 216.762 23.7867C216.772 23.7961 216.758 23.8226 216.746 23.8367C216.727 23.8551 216.7 23.8791 216.675 23.8797C216.508 23.8877 216.342 23.9729 216.177 23.8829C216.094 23.8379 216.003 23.8179 215.891 23.8412C215.824 23.8552 215.753 23.8623 215.683 23.8694C215.616 23.8765 215.546 23.8629 215.503 23.8226C215.44 23.7633 215.475 23.7391 215.585 23.7407C215.655 23.7418 215.724 23.7251 215.794 23.7166Z" fill="#FFE492"/>
<path d="M254.2 33.8044C254.332 33.7871 254.465 33.7669 254.599 33.7524C254.626 33.7489 254.66 33.7637 254.686 33.7731C254.788 33.8132 254.775 33.8859 254.78 33.9497C254.784 34.0163 254.552 34.0758 254.452 34.0327C254.341 33.9842 254.241 33.9284 254.09 33.9632C254.032 33.976 253.962 33.9521 253.923 33.9118C253.865 33.8536 253.896 33.8287 254.003 33.8304C254.066 33.8318 254.133 33.8145 254.2 33.8044Z" fill="#FFE492"/>
<path d="M186.914 13.8242C187.05 13.8057 187.187 13.779 187.324 13.7744C187.404 13.7712 187.445 13.816 187.427 13.8497C187.417 13.8708 187.392 13.9005 187.367 13.9039C187.094 13.9435 186.82 13.9776 186.547 14.0145C186.466 13.9969 186.426 13.9687 186.444 13.935C186.454 13.9139 186.479 13.8856 186.504 13.8809C186.64 13.8583 186.777 13.8426 186.914 13.8242Z" fill="#FFE492"/>
<path d="M251.539 28.9487C251.671 28.9317 251.806 28.9077 251.938 28.8977C252.008 28.8933 252.064 28.924 252.073 28.96C252.077 28.9766 252.044 29.0066 252.017 29.0141C251.828 29.0658 251.624 29.0761 251.427 29.1044C251.363 29.1128 251.296 29.0921 251.257 29.0541C251.198 28.9956 251.23 28.9726 251.337 28.9743C251.405 28.9741 251.472 28.9573 251.539 28.9487Z" fill="#FFE492"/>
<path d="M219.294 23.8902C219.361 23.8814 219.43 23.8611 219.495 23.8652C219.565 23.8708 219.61 23.9114 219.632 23.9525C219.656 23.9994 219.655 24.044 219.635 24.0847C219.603 24.1545 219.569 24.1524 219.49 24.1083C219.369 24.0393 219.361 24.0482 219.124 24.0567C219.096 24.0574 219.062 24.0366 219.041 24.0185C219.009 23.9905 219.024 23.9456 219.097 23.9179C219.152 23.8979 219.227 23.899 219.294 23.8902Z" fill="#FFE492"/>
<path d="M246.575 28.4859C246.674 28.4723 246.772 28.4518 246.871 28.4494C246.941 28.4464 246.996 28.4774 247.003 28.5124C247.006 28.5292 246.975 28.558 246.95 28.5671C246.831 28.6078 246.696 28.6138 246.565 28.6295C246.505 28.6365 246.437 28.6156 246.398 28.5772C246.34 28.5195 246.373 28.492 246.476 28.4981C246.508 28.5001 246.541 28.4909 246.575 28.4859Z" fill="#FFE492"/>
<path d="M230.912 26.7291C230.765 26.7494 230.626 26.7316 230.635 26.6949C230.649 26.6468 230.709 26.6145 230.772 26.6046C230.873 26.5882 230.974 26.5746 231.077 26.5637C231.142 26.5566 231.201 26.5763 231.255 26.6115C231.224 26.6572 231.177 26.6906 231.114 26.7019C231.049 26.7133 230.979 26.7205 230.912 26.7291Z" fill="#FFE492"/>
<path d="M229.943 26.5533C230.041 26.5397 230.14 26.5192 230.239 26.5168C230.308 26.5138 230.364 26.5448 230.371 26.5798C230.373 26.5966 230.342 26.6254 230.317 26.6344C230.198 26.6752 230.063 26.6812 229.933 26.6969C229.872 26.7039 229.804 26.683 229.765 26.6446C229.707 26.5869 229.74 26.5594 229.844 26.5655C229.875 26.5675 229.909 26.5583 229.943 26.5533Z" fill="#FFE492"/>
<path d="M218.089 23.886C218.187 23.8725 218.286 23.8519 218.385 23.8481C218.454 23.8451 218.51 23.8761 218.517 23.9111C218.519 23.9279 218.488 23.9553 218.463 23.9658C218.344 24.0065 218.209 24.0125 218.079 24.0282C218.018 24.0352 217.95 24.0143 217.912 23.9759C217.853 23.9182 217.886 23.8907 217.99 23.8968C218.021 23.8988 218.055 23.8896 218.089 23.886Z" fill="#FFE492"/>
<path d="M217.528 23.7999C217.633 23.7862 217.667 23.7784 217.7 23.7776C217.764 23.7761 217.829 23.7914 217.868 23.8313C217.926 23.889 217.893 23.9067 217.79 23.9119C217.657 23.9178 217.527 23.9504 217.395 23.9591C217.325 23.9636 217.27 23.9311 217.265 23.8961C217.262 23.8793 217.293 23.849 217.318 23.8428C217.406 23.8196 217.503 23.8047 217.528 23.7999Z" fill="#FFE492"/>
<path d="M229.04 14.9253C228.972 14.9339 228.901 14.9555 228.838 14.9499C228.754 14.942 228.719 14.9045 228.739 14.8686C228.752 14.8485 228.774 14.8196 228.799 14.8147C228.933 14.7917 229.07 14.7757 229.204 14.7584C229.285 14.7777 229.321 14.8066 229.301 14.8425C229.289 14.8627 229.266 14.8901 229.241 14.8964C229.176 14.9121 229.107 14.9166 229.04 14.9253Z" fill="#FFE492"/>
<path d="M146.883 16.2615C146.948 16.2585 147.007 16.2756 147.058 16.3101C147.028 16.3564 146.982 16.3875 146.92 16.4018C146.888 16.4082 146.853 16.4134 146.819 16.4156C146.754 16.42 146.695 16.4014 146.644 16.367C146.674 16.3206 146.722 16.2895 146.782 16.2753C146.814 16.2688 146.849 16.2665 146.883 16.2615Z" fill="#FFE492"/>
<path d="M250.821 28.9436C250.818 28.9024 250.945 28.8523 251.061 28.851C251.122 28.851 251.185 28.8694 251.222 28.907C251.278 28.9641 251.247 28.9877 251.144 28.9858C251.081 28.9845 251.014 29.0103 250.951 29.0075C250.879 29.0078 250.836 28.9775 250.821 28.9436Z" fill="#FFE492"/>
<path d="M219.911 24.0639C219.908 24.0481 219.897 24.0297 219.903 24.0151C219.941 23.9351 220.181 23.9049 220.246 23.9724C220.257 23.9851 220.261 24.0065 220.253 24.0197C220.241 24.0401 220.219 24.0665 220.194 24.0729C220.129 24.0888 220.062 24.0976 219.995 24.1007C219.966 24.1014 219.938 24.0776 219.911 24.0639Z" fill="#FFE492"/>
<path d="M106.454 24.3807C106.207 24.4167 106.203 24.4139 106.245 24.3413C106.284 24.2759 106.356 24.2356 106.463 24.233C106.495 24.2323 106.528 24.2286 106.555 24.2337C106.585 24.2401 106.627 24.2534 106.634 24.2704C106.647 24.303 106.612 24.3397 106.55 24.3655C106.523 24.3776 106.487 24.3756 106.454 24.3807Z" fill="#FFE492"/>
<path d="M150.014 16.0265C149.942 16.0527 149.879 16.0456 149.832 16.0007C149.784 15.9558 149.857 15.8994 149.984 15.8834C150.017 15.8797 150.053 15.8673 150.084 15.8723C150.116 15.8759 150.148 15.8924 150.167 15.9092C150.201 15.9371 150.181 15.9765 150.115 16.0112C150.088 16.0248 150.048 16.0228 150.014 16.0265Z" fill="#FFE492"/>
<path d="M250.375 28.8325C250.393 28.813 250.412 28.7935 250.432 28.7754C250.509 28.7984 250.542 28.8269 250.523 28.8611C250.511 28.8819 250.486 28.9001 250.468 28.9197C250.391 28.8966 250.359 28.8666 250.375 28.8325Z" fill="#FFE492"/>
<path d="M109.883 41.3964C109.883 41.379 109.911 41.3507 109.934 41.3444C109.977 41.3332 110.032 41.3522 110.07 41.3919C110.123 41.4487 110.093 41.48 109.997 41.4663C109.93 41.4563 109.884 41.4284 109.883 41.3964Z" fill="#FFE492"/>
<path d="M220.763 22.667C220.79 22.6793 220.817 22.6917 220.843 22.7055C220.809 22.7599 220.765 22.784 220.719 22.7707C220.69 22.7627 220.665 22.746 220.637 22.7336C220.671 22.6793 220.713 22.6581 220.763 22.667Z" fill="#FFE492"/>
<path d="M220.032 22.6048C220.073 22.5822 220.123 22.5925 220.182 22.633C220.164 22.6523 220.148 22.6743 220.125 22.6894C220.086 22.7134 220.034 22.7031 219.977 22.6611C219.993 22.6434 220.012 22.6241 220.032 22.6048Z" fill="#FFE492"/>
<path d="M219.47 22.6731C219.497 22.6854 219.524 22.6978 219.55 22.7117C219.516 22.766 219.474 22.7901 219.426 22.7768C219.397 22.7689 219.372 22.7521 219.344 22.7398C219.378 22.6854 219.42 22.6627 219.47 22.6731Z" fill="#FFE492"/>
<path d="M219.055 22.594C219.086 22.6226 219.07 22.6582 219.011 22.6992C218.984 22.6867 218.953 22.6772 218.932 22.6601C218.898 22.6331 218.914 22.596 218.975 22.5549C219 22.569 219.027 22.5815 219.055 22.594Z" fill="#FFE492"/>
</svg>
