<svg xmlns="http://www.w3.org/2000/svg" width="255" height="43" fill="none"><path fill="#ffe492" d="M215.588 14.196c-.313.03-.63.051-.937.09-.199.026-.286-.032-.42-.06-.044-.01-.092-.03-.133-.027q-.466.044-.931.092c-.093.055-.152.127-.297.156-.142.028-.31.032-.469.048q-.312.03-.626.057c-.105.01-.19.037-.223.087-.006.008.064.027.102.039.128.037.252.08.393.109.133.027.297-.026.441.01.322.077.325.076.569.054q.313-.031.626-.056c.041-.004.089.015.134.025.134.027.221.093.417.063.148-.024.313-.032.468-.046.131.036.253.079.393.107.13.027.169.049.1.09a.6.6 0 0 1-.268.06c-.105.004-.209.019-.313.028l-.155.014c-.2.02-.2.02-.566-.059-.144-.03-.304.02-.441-.009-.093-.02-.173-.05-.262-.072a.6.6 0 0 0-.146-.004c-.158.013-.317.023-.468.044-.108.015-.17.055-.157.092.004.015.08.035.125.036.101 0 .209-.021.307-.014a1 1 0 0 1 .265.06c.144.06.304 0 .441.013.143.015.261.067.398.096.035.008.102-.008.155-.013q.234-.018.466-.038c.131.037.271.07.389.111.215.077.443.103.718.058a.8.8 0 0 1 .432.03c.128.05.274.042.435.027.149-.014.301-.047.454-.013.331.077.334.081.724.04a.7.7 0 0 1 .295.012c.083.027.172.05.258.074l.469-.04c.199-.02.31-.003.36.072.029.046.043.087.114.117.083.036.172.033.292.02.114-.013.196-.03.242-.08a.3.3 0 0 1 .091-.058.3.3 0 0 1 .097-.03c.048.004.112.018.128.035.159.16.159.162.319.206.175.05.357.093.517.149.144.05.286.024.441.02.117-.003.194.03.186.066-.006.021-.05.052-.088.056q-.466.051-.936.09c-.038.004-.087-.02-.131-.03-.09-.023-.17-.06-.265-.066s-.206.017-.31.026c-.105.01-.215.03-.31.021-.096-.009-.173-.046-.262-.07-.042-.011-.099-.028-.134-.023a1.1 1.1 0 0 1-.569-.059.4.4 0 0 0-.14-.015q-.549.049-1.098.102c-.149.014-.27-.031-.304-.11-.017-.045-.049-.09-.05-.134-.002-.082-.178-.123-.304-.11-.209.018-.421.034-.627.059a.87.87 0 0 1-.426-.04c-.134-.052-.286-.038-.438-.02-.113.014-.144.06-.135.173.008.09-.045.12-.251.14q-.39.039-.785.07c-.041.005-.089-.018-.13-.029-.09-.022-.17-.06-.265-.066s-.206.016-.31.026-.215.03-.31.024c-.096-.008-.176-.047-.262-.07-.042-.012-.093-.029-.134-.025q-.314.026-.626.056c-.235.022-.235.022-.569-.055-.153-.034-.305 0-.454.013-.158.015-.307.024-.432-.028a.6.6 0 0 0-.273-.044c-.263.022-.522.049-.785.07a.4.4 0 0 1-.14-.012 1.2 1.2 0 0 0-.569-.06c-.202.028-.421.035-.623.062-.111.015-.161.06-.138.093.013.018.08.037.125.036.101-.001.212-.024.307-.018.197.012.298.124.554.086.152-.022.31-.032.468-.041.041-.003.086.022.131.035.128.034.24.079.423.05.152-.023.313-.032.468-.046.247-.023.247-.022.569.054.153.036.305 0 .453-.012.111-.01.215-.025.305-.008.137.025.236.088.404.08.159-.007.314-.03.472-.04a.6.6 0 0 1 .271.048c.083.035.172.05.279.038.156-.014.314-.031.472-.042a.5.5 0 0 1 .137.02q.133.034.262.072c.155-.012.313-.018.465-.038a.7.7 0 0 1 .295.014c.121.034.221.097.417.061.098-.017.212-.015.31-.031a.46.46 0 0 1 .289.023c.164.074.367.07.575.036.228-.038.4-.004.572.052.182.059.182.057.325.205.042.043.16.06.258.05a.9.9 0 0 1 .429.035c.128.053.28.043.435.024.206-.025.411-.047.581.028a.54.54 0 0 0 .283.032c.313-.032.63-.054.937-.091.186-.023.295.018.423.052.172.046.36.087.363.194 0 .018.045.037.083.05.083.027.173.05.259.074.127.038.252.07.426.044.151-.021.313-.03.468-.046s.297-.026.438.022c.163.055.336.107.52.146.131.029.301-.028.441.01.087.025.17.053.262.073.038.008.098 0 .149-.004.105-.008.212-.014.313-.03a.6.6 0 0 1 .296.012c.083.027.166.064.261.07.143.01.3-.049.444.01a1 1 0 0 0 .262.066c.095.007.206-.016.307-.017a.25.25 0 0 1 .125.037c.016.009-.006.035-.028.05a.3.3 0 0 1-.11.043q-.47.045-.939.089c-.187.018-.187.018-.566-.06a1 1 0 0 0-.298 0c-.149.016-.301.043-.457.022-.204-.088-.455-.09-.721-.049a.7.7 0 0 1-.295-.004c-.175-.048-.36-.091-.517-.149-.121-.045-.178-.048-.228.019-.015.02-.03.043-.027.062.021.067.057.133.078.2.007.02-.018.042-.034.063-.049.058-.116.055-.228.01a.8.8 0 0 0-.423-.047c-.151.022-.316.023-.468.047-.234.035-.4-.004-.569-.059a.4.4 0 0 0-.14-.013q-.706.065-1.411.13a.56.56 0 0 1-.274-.044.6.6 0 0 0-.277-.043c-.418.038-.835.073-1.253.118a.9.9 0 0 1-.426-.04.65.65 0 0 0-.283-.036c-.12.007-.205.022-.265.063-.056.04-.014.062.113.089.137.03.265.069.396.104.104-.008.209-.021.31-.022.045-.001.086.022.131.035.128.036.246.073.426.047.152-.022.313-.03.468-.046.216-.02.216-.02.566.058.089.02.184.016.298.002.098-.012.2.005.271.044.029.015.02.043-.038.134.001.067.067.035.088-.009.034-.063-.033-.082-.159-.045-.088.026-.132.063-.109.09.013.015.074.033.18-.036.277-.088.489-.102.691-.129a.6.6 0 0 1 .293.022c.115.04.23.082.416.056.203-.03.418-.037.624-.062.189-.023.289.035.41.067.147.039.308-.012.441.01.14.02.24.078.402.085.234-.042.384.023.563.064.14.03.304-.003.453-.021a.9.9 0 0 1 .425.037c.135.053.284.038.435.022.355-.035.367-.04.575.03.15.051.292.024.441.013.131.034.259.07.396.1.035.008.101-.008.155-.013l.468-.043c.105-.01.215-.032.31-.026.096.007.176.045.262.069s.176.047.259.073c.127.038.249.069.426.044.151-.02.31-.03.468-.046.199-.019.193-.015.566.058.2.04.405-.018.608-.028a.54.54 0 0 1 .271.045c.029.016.02.043.03.066-.522.049-1.048.092-1.564.149-.199.022-.304-.025-.413-.063-.179-.061-.412.04-.582-.041a.73.73 0 0 0-.422-.045c-.101.016-.209.017-.314.032-.265.035-.509.042-.724-.047-.073-.03-.178-.046-.255-.075a.6.6 0 0 0-.28-.04q-.707.064-1.408.132c-.041.004-.082.025-.117.041q-.13.06.085.09c.048.008.086.025.131.037.086.024.166.063.261.07.096.008.206-.014.311-.023.104-.01.215-.032.31-.026s.175.045.265.067c.041.012.092.031.133.029.209-.013.415-.033.624-.05.131.034.243.084.399.093.098.006.202-.011.304-.01.044 0 .102.019.124.036.013.01-.027.039-.059.053-.119.054-.284.048-.433.068a.86.86 0 0 1-.432-.03.6.6 0 0 0-.277-.042c-.262.023-.522.05-.784.07a.5.5 0 0 1-.14-.015c-.335-.076-.335-.078-.569-.055-.345.033-.345.033-.578-.033-.045-.013-.093-.038-.131-.035-.367.03-.731.06-1.095.1a.6.6 0 0 1-.292-.02 1 1 0 0 0-.262-.066c-.098-.006-.205.017-.31.026-.104.01-.215.03-.307.02-.095-.008-.179-.044-.262-.07a.7.7 0 0 0-.295-.01c-.36.04-.364.036-.724-.04a.5.5 0 0 0-.14-.015c-.262.023-.522.05-.785.071a.5.5 0 0 1-.27-.044c-.029-.015-.02-.043-.04-.096-.023-.011.003.01.01.03.047-.004.104-.002.139-.014.088-.028.132-.063.109-.09-.013-.015-.074-.033-.112-.032-.07.001-.129.033-.146.106-.199.05-.411.064-.617.09a.57.57 0 0 1-.292-.021.8.8 0 0 0-.42-.055c-.202.03-.418.038-.626.062-.241.027-.348-.093-.551-.085-.209.007-.418.035-.627.056-.183.018-.183.018-.565-.062-.141-.03-.304.022-.441-.009-.093-.02-.173-.05-.262-.072a.6.6 0 0 0-.146-.003c-.263.022-.529.04-.782.075a1.4 1.4 0 0 1-.715-.067c-.259.021-.522.035-.778.067-.187.023-.296-.02-.423-.053-.045-.011-.084-.03-.131-.035-.048-.005-.105.008-.155.013-.209.02-.425.031-.627.06-.25.037-.347-.072-.541-.081-.128.07-.196.162-.452.175-.21.01-.418.036-.627.056l-.313.029c-.168.016-.246.07-.209.152q.03.066.053.133c.034.08-.044.15-.177.162q-.549.053-1.098.101a.6.6 0 0 1-.274-.047.6.6 0 0 0-.276-.04q-.549.053-1.098.102a.5.5 0 0 1-.137-.02q-.133-.035-.262-.072c-.209.017-.415.03-.62.05-.333.033-.333.034-.578-.035-.045-.013-.09-.037-.131-.035-.158.009-.313.026-.472.042-.465.046-.465.046-.602.008-.125-.035-.237-.079-.423-.053-.202.03-.418.042-.627.06q-.232.023-.465.034c-.041.003-.086-.022-.131-.035a.9.9 0 0 0-.426-.043c-.101.016-.209.02-.313.03-.272.025-.272.025-.721-.046a.6.6 0 0 0-.143-.01c-.367.032-.731.068-1.098.1-.044.003-.098-.004-.143-.01-.503-.067-.503-.067-1.034-.017-.203.018-.209.024-.423-.043a.66.66 0 0 0-.286-.03c-.418.041-.839.073-1.253.12-.187.02-.295-.017-.423-.051-.045-.012-.093-.038-.131-.035-.418.035-.835.076-1.253.111-.038.004-.086-.023-.131-.034-.086-.022-.169-.057-.265-.063-.098-.006-.205.017-.313.026-.263.024-.263.022-.569-.05-.041-.01-.096-.025-.137-.02-.418.036-.839.069-1.253.117a1.26 1.26 0 0 1-.569-.062.4.4 0 0 0-.14-.011q-.706.065-1.411.13a.6.6 0 0 1-.274-.046c-.128-.053-.277-.043-.435-.027-.364.037-.367.036-.584-.024-.045-.013-.083-.03-.131-.036-.044-.005-.101 0-.149.004l-.626.058c-.209.02-.422.032-.627.06-.253.034-.375-.051-.554-.088-.259.024-.525.04-.781.075-.196.026-.29-.032-.42-.06-.045-.01-.093-.032-.134-.028q-.708.06-1.412.131a.65.65 0 0 1-.286-.029c-.214-.068-.223-.065-.578-.03-.155.016-.303.03-.438-.023a.9.9 0 0 0-.429-.036c-.205.025-.417.04-.626.059-.209.02-.418.045-.627.056-.168.01-.271-.05-.404-.08a.6.6 0 0 0-.146-.005c-.209.017-.425.031-.627.059-.247.034-.385-.038-.56-.077a.6.6 0 0 0-.149.003q-.549.05-1.098.103l-.396-.1-.626.056c-.158.015-.32.023-.468.046-.193.032-.29-.03-.42-.058-.045-.01-.093-.032-.134-.028q-.396.03-.785.072c-.247.029-.348-.091-.551-.085a6 6 0 0 0-.626.057c-.234.034-.4-.006-.569-.06a.4.4 0 0 0-.14-.013c-.263.022-.522.048-.785.07a.6.6 0 0 1-.143-.009c-.503-.068-.503-.07-.721-.049q-.233.024-.471.043a.5.5 0 0 1-.14-.018c-.332-.075-.332-.076-.569-.055l-.627.06-.395-.1c-.26.023-.526.043-.782.073a.6.6 0 0 1-.292-.02c-.115-.039-.231-.084-.42-.056-.202.029-.418.036-.624.061-.246.03-.35-.09-.55-.085a6 6 0 0 0-.627.058 1.16 1.16 0 0 1-.569-.06.4.4 0 0 0-.14-.014l-1.724.16c-.355.034-.355.036-1.031-.024a1 1 0 0 0-.147-.005c-.208.017-.424.032-.626.06-.247.034-.385-.037-.56-.078-.038-.008-.098-.001-.149.002l-.471.044-.627.059-.396-.099c-.259.024-.525.04-.781.074-.196.026-.289-.029-.42-.058-.045-.01-.093-.032-.134-.03q-.709.06-1.411.131c-.193.021-.283-.038-.414-.066-.045-.009-.096-.025-.137-.022q-.47.04-.94.087c-.177.017-.177.017-.566-.058a.5.5 0 0 0-.14-.013c-.993.09-1.984.185-2.977.276a.56.56 0 0 1-.274-.044.6.6 0 0 0-.277-.043c-.418.038-.839.073-1.253.118a.9.9 0 0 1-.426-.04.6.6 0 0 0-.283-.035l-.627.06-.626.058c-.209.02-.421.033-.627.061-.253.034-.378-.047-.553-.085q-.471.04-.937.084-.627.058-1.253.115c-.038.004-.086-.02-.131-.031-.131-.031-.227-.076-.42-.057-.937.093-1.88.176-2.819.268-.197.02-.284-.037-.417-.065-.045-.009-.096-.027-.137-.023q-.783.07-1.567.144c-.212.02-.212.02-.569-.056a.5.5 0 0 0-.14-.016q-1.018.094-2.038.19a.6.6 0 0 1-.276-.043.56.56 0 0 0-.274-.045c-.627.058-1.257.115-1.88.177a.9.9 0 0 1-.429-.038.6.6 0 0 0-.28-.036c-.94.088-1.88.173-2.819.265a.9.9 0 0 1-.423-.047.64.64 0 0 0-.286-.03.5.5 0 0 0-.259.068c-.084.055-.136.123-.339.132-.209.008-.421.03-.627.057-.196.028-.289-.031-.414-.065a.7.7 0 0 0-.295-.011.5.5 0 0 0-.236.083c-.137.096-.15.096-.322.041a.7.7 0 0 0-.277-.044q-.627.055-1.253.117c-.241.023-.244.026-.426-.038a.6.6 0 0 0-.28-.036c-1.149.108-2.297.213-3.446.325a1 1 0 0 1-.426-.046c-.042-.013-.083-.03-.131-.035-.047-.005-.101.002-.152.006-.835.077-1.674.152-2.506.236-.19.02-.292-.021-.423-.054-.045-.011-.083-.03-.131-.034-.048-.003-.104.008-.155.014-.836.077-1.674.152-2.506.236-.2.02-.287-.036-.417-.063-.045-.01-.093-.029-.134-.025-.263.02-.522.047-.785.07-.626.06-1.253.116-1.879.177-.241.023-.348-.096-.551-.086-.263.013-.522.046-.785.071q-.314.029-.626.06c-.206.02-.206.02-.721-.048-.045-.006-.099-.014-.143-.01-.731.067-1.466.134-2.193.204-.168.017-.308.013-.429-.035a.6.6 0 0 0-.28-.038q-1.646.154-3.291.306a.5.5 0 0 1-.137-.019c-.089-.022-.176-.049-.262-.073-.063.033-.144.063-.185.1-.056.049-.131.064-.252.075a.6.6 0 0 1-.292-.023.9.9 0 0 0-.42-.055c-1.148.112-2.297.216-3.446.326-.19.018-.28-.04-.414-.068-.044-.008-.095-.022-.136-.019q-.706.064-1.412.13c-1.307.123-2.614.24-3.917.368-.238.023-.4-.007-.57-.062a.4.4 0 0 0-.14-.013q-2.743.255-5.483.512a.6.6 0 0 1-.274-.045.6.6 0 0 0-.277-.041l-2.506.234c-.209.02-.212.021-.43-.04-.044-.012-.092-.037-.127-.033a.34.34 0 0 0-.191.091c-.05.05-.129.066-.246.078-.12.012-.2.01-.292-.02-.118-.039-.227-.076-.417-.058-2.401.229-4.803.45-7.205.678-.193.018-.283-.037-.417-.065-.045-.008-.09-.021-.137-.023-.05-.001-.104.008-.155.013l-11.753 1.098c-.234.021-.23.021-.485.152-.031.016-.072.037-.116.04q-1.8.172-3.604.339-.784.073-1.567.145c-.187.017-.187.017-.63.174-.038.013-.082.03-.126.034q-3.132.295-6.269.585c-.165.014-.297.042-.372.109a.38.38 0 0 1-.226.087q-2.192.205-4.39.409a.7.7 0 0 0-.361.115c-.028.02-.053.042-.094.057-.038.013-.095.018-.142.023-1.253.117-2.506.237-3.763.35-.186.016-.261.069-.352.124-.031.018-.053.043-.094.056-.04.012-.101.013-.152.017l-3.133.293c-.203-.002-.245.078-.342.128-.035.017-.06.04-.1.051-.045.012-.102.012-.156.016-.835.077-1.67.159-2.51.232-.192.017-.229.087-.332.137-.035.016-.069.04-.11.045q-.783.076-1.566.147c-.174.016-.174.015-.479.157a.4.4 0 0 1-.12.038q-1.173.111-2.35.22a.35.35 0 0 0-.22.091.36.36 0 0 1-.224.088q-.94.091-1.88.175c-.173.015-.287.052-.361.114-.056.048-.126.073-.236.083-.627.058-1.253.12-1.883.172a.6.6 0 0 0-.353.123c-.059.047-.128.065-.245.076q-1.725.156-3.446.323c-.193.02-.293-.026-.42-.057-.182-.043-.351-.091-.354-.197 0-.017-.054-.034-.093-.047-.284-.096-.284-.096-.331-.204-.027-.066-.057-.133-.08-.2-.044-.111-.147-.137-.438-.11l-.313.029c-.155.013-.274-.03-.304-.11q-.027-.068-.054-.134c.159-.014.155-.016.43-.187.116-.072.116-.072-.11-.136-.087-.024-.17-.05-.262-.073a.5.5 0 0 0-.14-.012q-.393.035-.782.073c-.417.039-.417.039-.845-.09-.035-.01-.09-.03-.084-.04.034-.052.119-.075.227-.083q.236-.02.468-.043l.313-.03c.097-.053.198-.106.288-.161.144-.085.144-.088-.057-.14-.127-.035-.265-.066-.395-.099l-.469.044c-.196.016-.276-.008-.328-.095-.047-.077.006-.144.157-.164.155-.02.301-.034.379-.105.074-.069.207-.098.371-.107q.158-.01.314-.029c.136-.014.207-.085.177-.162-.017-.05-.05-.091-.174-.099-.55-.035-.556-.034-.83-.12-.026-.008-.045-.032-.036-.044a.15.15 0 0 1 .087-.056q.546-.059 1.092-.103c.12-.01.209-.02.249-.072.055-.07.028-.134-.084-.18a.4.4 0 0 0-.13-.029c-.418.034-.833.075-1.25.109-.038.003-.109-.018-.125-.035-.032-.032.014-.077.125-.095.145-.023.294-.028.39-.098.135-.1.3-.192.45-.288.026-.017.066-.05.057-.052-.08-.028-.173-.049-.256-.075-.14-.045-.142-.112-.112-.176.024-.053.119-.075.236-.078.051 0 .114-.002.155-.015.107-.033.141-.072.087-.1a.3.3 0 0 0-.128-.033c-.677.06-1.358.12-2.031.19-.2.021-.293-.028-.414-.062a.6.6 0 0 0-.292-.013c-.107.022-.212.013-.28-.03-.055-.035.04-.069.296-.11.047-.008.1-.013.135-.028.365-.155.365-.156.618-.181.247-.023.247-.025.375-.107.06-.038.125-.076.18-.115.023-.016.06-.044.047-.052a.46.46 0 0 0-.276-.036c-.247.03-.54.017-.666.149-.05.05-.129.065-.242.076-1.146.105-2.292.215-3.44.318a.56.56 0 0 0-.343.126c-.062.048-.132.063-.252.074s-.215.017-.286-.026c-.042-.027-.008-.066.086-.106.135-.057.108-.125.062-.188-.032-.041-.131-.069-.236-.064-.155.01-.304.028-.435-.024-.077-.03-.172-.049-.258-.074-.166-.052-.333-.106-.563-.064-.159-.01-.271-.056-.399-.091-.213-.058-.233-.067-.082-.137.17-.079.034-.174.127-.25.1-.08.238-.153.36-.23l.09-.057c-.073-.026-.14-.058-.227-.075-.111-.022-.169-.05-.164-.135-.023-.012-.013.019.013.027.029.007.098-.001.133-.012.088-.027.132-.062.109-.09-.013-.015-.074-.033-.112-.032-.07.002-.13.033-.147.107-.353.064-.72.1-1.088.13-.038.003-.086-.023-.13-.036-.147-.043-.147-.041-.575-.045a.25.25 0 0 1-.128-.037c-.094-.08-.093-.172-.14-.26l.247-.174c.169-.116.388-.22.519-.348-.03-.066-.07-.131.068-.189.395-.077.392-.077.498-.145.303-.192.603-.385.919-.574.084-.05.084-.076-.069-.093a1 1 0 0 0-.149 0c-.158.013-.316.04-.471.039-.156 0-.271-.058-.399-.092l-.393-.108c-.148.008-.297.05-.447-.009-.115-.045-.259-.076-.39-.112.096-.106.279-.189.419-.283.128-.086.131-.085.478-.156.165-.034.218-.19.078-.23-.17-.051-.348-.098-.52-.146-.15.008-.3.048-.445-.01a.8.8 0 0 0-.423-.05c-.31.037-.626.06-.94.09-.107.011-.225.009-.273-.037-.033-.032.058-.078.163-.09.158-.018.3-.037.378-.107.074-.07.213-.093.378-.107a.26.26 0 0 0 .116-.038.75.75 0 0 1 .482-.155c.1-.03.154-.064.121-.096a.23.23 0 0 0-.124-.036c-.263.02-.526.04-.782.07-.12.013-.212.018-.289-.02-.055-.027-.027-.064.074-.106.088-.036.112-.076.105-.122-.019-.107-.114-.136-.419-.123-.218.01-.272-.006-.322-.097-.013-.021-.046-.05-.024-.066.134-.096.22-.212.476-.261.101-.019.209-.021.272-.058.062-.037.118-.08.184-.115.081-.042.138-.082.099-.107-.065-.044-.166-.046-.283-.027-.101.016-.209.02-.313.03-.187.02-.34-.013-.363-.072-.064-.156-.131-.311-.189-.468-.007-.019.009-.044.034-.06.087-.06.181-.116.272-.174.106-.066.277-.058.423-.074.206-.022.206-.02.478-.158.107-.054.294-.037.404-.086.035-.016.088-.042.078-.055-.013-.018-.077-.03-.124-.037a.6.6 0 0 0-.146-.005q-.862.08-1.725.16c-.098.008-.207-.02-.242-.06s-.028-.087-.035-.132c.09-.057.194-.112.272-.173.059-.048.128-.07.249-.075.158-.008.313-.028.49-.044.325-.206.644-.422.994-.628.14-.084.104-.165.13-.25.027-.08.24-.073.382-.1.114-.021.15-.065.106-.094a.26.26 0 0 0-.128-.035c-.105.002-.209.016-.313.026s-.225.007-.31.033c-.082.023-.135.07-.188.111-.06.045-.138.062-.259.067-.155.007-.31.023-.465.035-.172-.049-.351-.096-.517-.148-.032-.01-.04-.042-.036-.062.005-.053-.044-.085-.149-.108-.09-.02-.163-.05-.246-.075.063-.038.132-.075.182-.116.109-.085.247-.148.488-.15.093-.056.168-.123.29-.163.117-.038.318-.007.405-.09a.4.4 0 0 1 .194-.104c.136-.03.313-.02.39-.098a.37.37 0 0 1 .208-.098c.104-.015.212-.02.287-.047.041-.015.085-.038.085-.057 0-.012-.064-.03-.109-.037a.5.5 0 0 0-.143-.01c-.158.011-.313.03-.472.042-.044.004-.095-.005-.142-.012-.14-.018-.132-.046-.022-.097.11-.05.188-.114.279-.171.1-.012.228-.011.297-.039.116-.044.197-.107.29-.163.105-.01.213-.015.31-.032.042-.007.06-.037.095-.056.062-.035.115-.085.2-.104.14-.027.31-.022.391-.098a.33.33 0 0 1 .207-.098c.247-.01.35-.088.476-.161.093-.056.297-.033.4-.088.07-.036.119-.08.188-.113a.5.5 0 0 1 .136-.028c.26-.026.522-.047.781-.075.041-.005.079-.026.11-.043.066-.037.106-.087.188-.112s.199-.028.3-.037c.326-.028.352-.023.498-.142.118-.096.415-.037.51-.142.056-.061.16-.113.347-.124.262-.015.522-.047.784-.07.235-.022.231-.022.482-.154.113-.06.281-.056.43-.07.158-.014.303-.034.378-.104.074-.068.213-.093.375-.106.149-.013.317-.01.433-.067.282-.137.279-.139.478-.157l.94-.088c.209-.02.428-.027.623-.062.142-.025.204-.102.295-.157l.778-.078q.547-.052 1.098-.102c.157-.056.177-.17.443-.182.159-.006.313-.027.472-.042.262-.025.522-.055.784-.07.2-.012.233-.086.337-.135.034-.017.065-.041.107-.046.41-.048.835-.065 1.236-.13.041-.007.079-.036.088-.057.006-.01-.048-.03-.083-.039a.5.5 0 0 0-.14-.015l-3.921.363c-.184.018-.184.017-.627.177a.6.6 0 0 1-.13.033c-.208.02-.42.035-.626.06a.9.9 0 0 1-.429-.04.7.7 0 0 0-.283-.036.6.6 0 0 0-.268.062c-.09.052-.137.118-.33.136q-1.336.122-2.665.247c-.124-.016-.184-.043-.154-.078A.16.16 0 0 1 9 14.191q.548-.054 1.095-.105c.05-.006.12-.005.149-.019.138-.064.186-.165.45-.177.151-.008.306-.032.451-.054.042-.007.079-.036.088-.057.003-.01-.048-.03-.087-.038-.14-.037-.3.015-.44-.01-.048-.008-.115-.02-.125-.036-.007-.015.046-.04.084-.056a.5.5 0 0 1 .13-.033c.417-.041.835-.083 1.253-.117q.254-.02.365-.115a.4.4 0 0 1 .233-.083c.73-.066 1.461-.139 2.196-.202.183-.015.277-.062.352-.122.06-.048.129-.066.246-.077 1.047-.094 2.088-.197 3.136-.289.193-.016.249-.076.346-.129.034-.018.056-.04.1-.052s.101-.012.155-.016c.835-.077 1.67-.159 2.51-.232.196-.017.232-.086.332-.136.035-.016.066-.04.107-.046l1.88-.177q.627-.06 1.253-.117c.206-.019.206-.02.482-.155a.4.4 0 0 1 .116-.04q1.803-.17 3.604-.338a.36.36 0 0 0 .223-.09.36.36 0 0 1 .22-.088q1.41-.135 2.823-.263.255-.02.365-.113a.4.4 0 0 1 .233-.083c.94-.087 1.88-.178 2.823-.262a.7.7 0 0 0 .355-.12c.032-.02.056-.052.094-.056.468-.049.934-.099 1.405-.135.197-.016.262-.074.34-.13.062-.045.135-.062.255-.07.263-.018.522-.047.778-.076.038-.005.085-.036.088-.056.005-.035-.068-.058-.189-.067l-3.762.35c-.206.02-.206.02-.482.156a.4.4 0 0 1-.12.04l-3.604.337a.36.36 0 0 0-.223.09.36.36 0 0 1-.22.089c-1.149.107-2.297.217-3.45.32-.17.015-.29.05-.364.113a.4.4 0 0 1-.233.083c-1.098.101-2.193.207-3.294.305-.111.01-.195-.028-.19-.065.004-.02.05-.051.088-.055.573-.058 1.143-.117 1.719-.164.193-.016.248-.077.346-.13.03-.018.056-.041.097-.052.044-.012.1-.012.155-.016 1.357-.127 2.715-.256 4.076-.378.196-.018.232-.085.332-.136.035-.017.066-.042.107-.045.418-.043.836-.08 1.253-.119l2.197-.205c.212-.02.212-.02.481-.154a.4.4 0 0 1 .117-.039l5.8-.543a.36.36 0 0 0 .223-.09.37.37 0 0 1 .22-.09c2.614-.244 5.224-.489 7.838-.73.171-.017.291-.048.366-.114.053-.047.125-.073.232-.084q4.31-.402 8.624-.806 2.9-.272 5.8-.54a.7.7 0 0 0 .359-.118c.028-.02.056-.052.094-.055q.621-.065 1.243-.125l.392.1q.145-.082.288-.163c.627-.054 1.244-.13 1.877-.163.041-.002.086.023.131.036.297.079.465.068.65-.05.065-.043.12-.08.222-.09.313-.032.63-.055.94-.09a.9.9 0 0 1 .429.037.6.6 0 0 0 .28.036q.863-.08 1.724-.163c.042-.004.08-.028.11-.045.066-.037.122-.076.185-.114.086.02.181.036.252.065.09.033.172.031.292.019 2.297-.217 4.598-.43 6.895-.648.197-.018.283.037.417.064.045.01.09.022.137.024.051.002.105-.008.155-.013l5.174-.484c.228-.021.228-.021.57.056.04.01.095.02.14.015q1.177-.107 2.35-.218c.102-.009.188.011.28.04.182.057.195.057.326-.036a.5.5 0 0 1 .233-.085.7.7 0 0 1 .295.008c.127.031.22.086.414.067.835-.083 1.674-.155 2.506-.24.19-.019.292.025.42.056.044.011.086.03.134.033.047.003.104-.008.155-.014 1.044-.097 2.092-.193 3.133-.295.196-.02.283.037.416.064.045.01.096.027.137.024q.942-.086 1.883-.175c.225-.021.225-.02.57.055.04.01.095.02.14.016q1.097-.1 2.195-.204c.225-.021.225-.021.876.035.048.004.099.011.146.007q1.255-.114 2.51-.235a.95.95 0 0 1 .429.038.6.6 0 0 0 .28.036c.94-.088 1.883-.174 2.819-.266.181-.017.298.01.426.046.042.013.083.031.131.036s.101-.003.152-.008c.94-.088 1.883-.172 2.82-.265.189-.02.292.024.419.055.045.012.093.035.131.033.367-.032.735-.06 1.098-.103.196-.023.283.037.417.064.045.009.096.028.137.024q1.178-.105 2.351-.22c.111-.01.194 0 .283.034a.9.9 0 0 0 .426.042c.364-.04.731-.07 1.098-.104.216-.02.216-.02.876.036.048.004.099.011.146.007.627-.057 1.257-.114 1.88-.176a.9.9 0 0 1 .429.038.6.6 0 0 0 .28.036l1.725-.162c.209-.02.417-.05.626-.055.153-.002.265.061.402.09.038.01.101-.003.152-.007.731-.068 1.465-.133 2.193-.208.19-.019.292.025.42.056.045.011.093.035.131.032.262-.02.522-.047.784-.07.314-.03.63-.053.94-.09.253-.03.351.086.554.086.155 0 .313-.027.468-.041q.47-.045.94-.087c.111-.009.196-.033.23-.083.006-.01-.048-.028-.083-.04-.425-.129-.425-.129-.849-.09-.263.026-.522.05-.785.073-.044.004-.095-.006-.14-.013-.127-.02-.115-.048-.009-.1.107-.05.188-.113.279-.17l.389.097.313-.029q.783-.072 1.567-.14c.038-.004.086.022.131.035a1 1 0 0 0 .426.049c.468-.05.939-.09 1.408-.134.205-.02.205-.02.569.056a.5.5 0 0 0 .14.015l1.411-.13c.101-.01.2.006.274.044.029.015.023.043.149.263.378.172.634.147.894.125.11-.01.208-.018.281-.047.037-.016.084-.039.084-.056 0-.014-.07-.034-.115-.036-.314-.02-.611.044-.918.063-.143.009-.267-.036-.295-.113a1 1 0 0 0-.026-.066q-.013-.032-.027-.066c-.124-.004-.196.022-.249.07a.5.5 0 0 1-.191.106c-.085.024-.203.022-.307.031-.101.01-.212.03-.307.022-.096-.008-.173-.046-.262-.068-.041-.012-.092-.028-.134-.025q-.545.046-1.085.101c-.19.02-.286-.034-.407-.067-.096-.025-.191-.016-.206.047-.037.15.11.21.433.174.265-.03.506-.04.717.048a.4.4 0 0 0 .137.012q.388-.036.775-.071a1 1 0 0 1 .143.005c.649.058.649.06.867.039.104-.011.206-.02.191-.227.195-.226.511-.248.818-.288.199-.025.286.033.417.062.045.01.093.03.134.027q1.019-.09 2.035-.19a.6.6 0 0 1 .286.03.9.9 0 0 0 .423.047c.36-.041.727-.07 1.094-.105.187-.018.187-.018.566.058a.5.5 0 0 0 .14.014c.367-.031.731-.068 1.095-.101a.56.56 0 0 1 .274.043c.08.035.175.052.273.043q.55-.051 1.095-.102a.5.5 0 0 1 .14.014c.389.075.389.075.566.057.259-.026.525-.041.782-.074.249-.033.381.043.553.082.469-.042.94-.078 1.405-.127.19-.02.293.022.42.054.045.012.09.037.131.034.158-.009.313-.027.469-.042l.468-.043c.178.035.298.125.551.088.151-.022.313-.03.468-.045l.468-.043c.105-.009.212-.016.313-.03.187-.025.28.04.414.067.045.008.096.023.137.02.313-.026.63-.05.937-.088.237-.03.4.007.569.06a.4.4 0 0 0 .14.013c.367-.031.731-.068 1.095-.1a.6.6 0 0 1 .273.043q.126.053.277.042.547-.051 1.095-.101a.5.5 0 0 1 .14.016c.357.076.357.077.566.056l.155-.014c.259-.025.529-.038.781-.077.291-.043.505-.001.712.071.26-.022.526-.037.779-.07.19-.025.292.024.42.055.045.012.093.035.131.031.367-.031.734-.06 1.094-.102.197-.024.284.036.417.064.045.01.093.028.134.024.209-.015.418-.037.627-.056.243-.024.243-.022.569.053.153.036.304.002.453-.011.158-.015.307-.026.435.027.08.033.176.053.274.045.209-.017.421-.034.626-.059a.9.9 0 0 1 .429.035c.087.034.176.05.28.039q.705-.067 1.408-.13a.4.4 0 0 1 .137.018q.134.035.262.073c.206-.017.418-.027.62-.05.215-.024.412-.036.582.035a.3.3 0 0 0 .127.035c.159-.009.314-.026.469-.04l.468-.043c.181.03.298.125.551.088.151-.023.313-.03.468-.045q.234-.022.468-.043c.051-.004.108-.012.152-.008.048.005.09.023.131.035.128.037.246.074.426.046.152-.022.313-.03.469-.046.212-.02.212-.02.565.058.144.032.304-.017.441.01.093.018.173.05.262.071a.5.5 0 0 0 .143.008c.209-.017.421-.034.626-.06a.9.9 0 0 1 .426.04.6.6 0 0 0 .28.036c.522-.05 1.045-.095 1.563-.149a.8.8 0 0 1 .42.048c.17.08.406-.024.581.04.109.04.218.086.414.061.361-.044.728-.071 1.092-.104q.195.051.395.101l.627-.057.468-.044c.051-.004.105-.01.152-.004.048.005.087.022.131.035.221.061.221.063.581.027.155-.015.304-.027.435.024a.9.9 0 0 0 .429.036q.465-.05.94-.088a.6.6 0 0 1 .274.045c.125.053.277.044.432.026.205-.024.408-.048.584.024.035.016.09.038.128.036.259-.017.522-.031.775-.063s.379.05.554.087l.781-.071c.051-.005.111-.019.156-.013.187.024.297.124.553.087.149-.021.31-.03.466-.038a.26.26 0 0 1 .124.037c.016.009.001.035-.018.049-.056.04-.125.076-.175.117-.006.005.055.029.09.039a.8.8 0 0 0 .298.002c.098-.011.2.005.271.045.029.015.02.043-.038.134.001.066.067.035.088-.009.034-.063-.033-.082-.159-.045-.088.026-.132.062-.109.09.013.015.073.033.18-.036.277-.088.486-.108.695-.128.053-.005.116-.02.155-.013.137.03.264.066.398.1.152-.011.294-.035.445.015.211.07.22.063.422.043l.314-.029c.104-.009.187.01.28.039.188.06.204.059.326-.03.071-.056.122-.074.214-.052.306.076.31.081.569.051.215-.025.418-.035.578.039.109.052.144.038.228-.02.225-.157.329-.156.76-.057.2.047.405-.014.608-.025.171-.01.292.02.307.106.011.053.04.09.154.105.045.006.099.014.143.01q.393-.034.785-.072c.133-.012.205-.078.177-.161-.03-.09.02-.123.209-.154a.7.7 0 0 1 .298.006c.103.025.075.05-.013.1-.21.125-.183.198.092.275.096.026.172.05.195.092.014.022.002.05.031.066.157.088.374.141.616.18.23-.043.39.015.569.06.14.035.304-.001.453-.018a.9.9 0 0 1 .429.036.6.6 0 0 0 .28.039c.209-.02.421-.034.626-.06a.83.83 0 0 1 .423.044c.141.055.295.012.441.017.197.005.298.124.554.085a5 5 0 0 1 .469-.041.3.3 0 0 1 .127.035c.17.07.366.062.581.035.149-.018.294-.035.441.014.243.081.511.151.767.226.036.062.012.136.194.168.095.017.185.044.259.073a.57.57 0 0 0 .286.03c.205-.023.421-.032.623-.061.187-.026.305.016.42.055a.48.48 0 0 0 .289.02.47.47 0 0 1 .289.022c.131.047.141.041.572.047.044 0 .099.02.124.036.013.01-.015.037-.036.051a.3.3 0 0 1-.114.042c-.468.046-.939.088-1.408.135a.5.5 0 0 0-.132.03c-.038.016-.085.037-.085.056.001.014.064.029.109.037.14.028.304-.023.441.01.093.02.169.051.262.07a.6.6 0 0 0 .146.003c.158-.013.313-.03.471-.042.045-.003.096.01.137.02.306.075.306.075.569.05.104-.008.215-.031.313-.025.096.006.179.04.265.062.179.045.348.088.363.194.007.04.112.074.217.074.102 0 .209-.017.313-.027.247-.022.247-.022.569.053.09.022.185.022.299.006a.6.6 0 0 1 .146.003c.155.017.156.043.056.094-.141.076-.128.082.272.134.153.02.271.06.399.096.207.057.204.057.07.14q-.046.027-.091.058c-.091.055-.162.114-.352.123-.209.01-.418.037-.627.057-.202.02-.255.053-.234.145.024.111.066.123.43.113a.65.65 0 0 1 .277.041c-.037.045-.106.08-.207.09q-.39.04-.781.074l-.627.06c-.13.012-.211.085-.174.163q.03.066.054.133c.037.09.104.11.316.102.054-.003.105-.015.155-.013.207.005.307.115.554.087.206-.024.421-.033.624-.062.186-.026.292.02.422.054.045.011.093.036.131.034.263-.021.526-.042.782-.074a.6.6 0 0 1 .289.024c.23.073.236.07.575.037.247-.025.25-.022.569.054a.9.9 0 0 0 .298.005c.149-.017.304-.042.459-.025.048.004.109.02.125.036.01.012-.034.043-.072.054-.277.077-.604.072-.908.107a.54.54 0 0 1-.27-.048.6.6 0 0 0-.28-.038c-.209.02-.421.034-.627.06a.9.9 0 0 1-.426-.045c-.041-.012-.089-.037-.131-.035-.468.038-.94.076-1.405.125-.186.02-.295-.02-.423-.055-.044-.01-.089-.036-.131-.033-.158.009-.313.027-.471.042q-.863.081-1.725.159c-.038.003-.086-.024-.131-.035q-.13-.034-.264-.065-.237.023-.472.043c-.114.008-.215.03-.229.082-.009.034.096.063.207.057.108-.005.215-.024.304-.008.443.077.443.079.718.055.241-.022.215-.035.429.035.093.03.176.047.28.037q.39-.038.785-.072a.5.5 0 0 1 .137.018c.312.075.312.078.569.051.335-.032.348-.039.574.039.157.054.299.01.448.005.172.049.36.092.517.149.185.066.378.05.587.024.155-.018.307-.027.435.026.122.049.268.05.432.034.149-.016.301-.045.457-.019.041.007.105.026.102.039-.003.019-.043.047-.084.056-.291.062-.611.068-.918.101-.041.005-.095-.009-.137-.019-.089-.022-.175-.049-.261-.073-.155.012-.314.018-.466.038a.6.6 0 0 1-.292-.015c-.08-.028-.166-.063-.261-.07-.096-.008-.206.015-.311.026-.104.01-.224.01-.306.033s-.132.072-.185.111c-.059.044-.141.06-.262.066a.6.6 0 0 1-.283-.033.7.7 0 0 0-.131-.036c-.044-.009-.095-.023-.136-.019-.472.042-.94.087-1.412.13-.234.022-.231.022-.721-.047-.044-.006-.098-.015-.143-.01q-.392.032-.784.071c-.266.026-.263.023-.718-.053-.083-.014-.203.01-.301.01-.207-.002-.311-.114-.551-.087-.206.024-.421.033-.627.062-.186.026-.295-.02-.423-.053-.044-.011-.092-.037-.13-.034-.472.04-.94.086-1.568.104-.155.003-.085.03.017.038.146.011.193-.018.113-.07a.32.32 0 0 0-.208-.044c-.034.006-.078.033.078.076.166.048.157.077.186.092.071.038.17.052.271.045q.236-.022.471-.043a.5.5 0 0 1 .14.015c.351.076.354.082.724.04a.8.8 0 0 1 .295.01c.128.033.221.09.414.067.256-.032.519-.052.782-.073.041-.004.086.02.134.03.13.029.227.088.42.058.148-.024.31-.033.468-.04a.23.23 0 0 1 .125.034c.038.03-.008.069-.115.097-.045.012-.105.01-.155.016q-.314.03-.627.057c-.111.01-.215.033-.226.083-.009.034.106.062.213.057a5 5 0 0 0 .469-.044c.268-.036.503-.033.724.048.156.056.146.034.315.208.043.043.166.045.274.04q.391-.018.359.047c-.027.053-.118.07-.236.08-.208.016-.417.038-.626.058-.051.005-.108.015-.155.013-.048-.001-.093-.017-.134-.028-.089-.024-.166-.062-.262-.069-.095-.007-.205.016-.31.026-.104.01-.215.032-.31.025s-.176-.046-.262-.069c-.041-.011-.092-.03-.133-.027-.209.016-.418.038-.627.057-.256.023-.256.023-.569-.054a.8.8 0 0 0-.298-.006c-.253.028-.257.024-.721-.045a.6.6 0 0 0-.143-.01q-.707.064-1.408.13c-.402.038-.402.038-.621.179-.162.104-.166.104-.003.147.131.035.249.088.393.105.133.016.297-.049.444.01.073.03.169.062.261.065.146.004.301-.039.442.018.07.028.175.057.264.056.156 0 .313-.026.469-.039a1 1 0 0 1 .145 0c.048.008.09.023.131.036a.86.86 0 0 0 .429.035c.269-.044.51-.03.721.052a.4.4 0 0 0 .143.005.7.7 0 0 1 .298.004c.035.01.087.028.081.04-.01.02-.047.049-.088.056-.297.053-.617.066-.924.098-.041.003-.092-.013-.133-.024-.09-.023-.167-.062-.262-.07-.095-.007-.206.013-.31.023-.105.009-.215.032-.311.026a1 1 0 0 1-.261-.068.6.6 0 0 0-.292-.018c-.152.021-.31.028-.466.04-.086-.023-.172-.05-.261-.072-.042-.011-.093-.025-.137-.023q-.313.025-.627.057c-.209.02-.209.02-.566-.057a.5.5 0 0 0-.14-.014c-.262.022-.522.048-.784.07a.6.6 0 0 1-.277-.042.56.56 0 0 0-.274-.044c-.418.038-.835.074-1.253.118a.9.9 0 0 1-.426-.038c-.134-.053-.283-.036-.438-.021-.351.035-.354.034-.581-.03-.045-.013-.09-.038-.131-.036-.364.029-.731.056-1.092.097-.19.022-.292-.023-.42-.056-.044-.01-.092-.036-.13-.032-.263.02-.526.04-.782.073-.256.034-.357-.09-.551-.085-.263.007-.522.045-.781.07l-.627.059c-.209.02-.418.036-.627.059a.6.6 0 0 1-.286-.03c-.118-.043-.258-.075-.386-.113-.195-.054-.195-.054-.429-.032l-.155.014c-.383.039-.383.036-.873-.038a.3.3 0 0 0-.101.024q-.097.055-.184.114c-.086-.02-.191-.03-.249-.06-.164-.084-.414.042-.581-.04a.8.8 0 0 0-.262-.064c-.098-.006-.209.015-.31.026-.263.026-.263.025-.485.151-.113.062-.278.055-.426.072-.155.019-.304.03-.435-.023a.9.9 0 0 0-.429-.036c-.206.025-.418.042-.627.06a.6.6 0 0 1-.143-.01c-.487-.07-.487-.07-.721-.047-.104.01-.212.015-.313.03a.9.9 0 0 1-.426-.04c-.041-.014-.09-.038-.131-.036a23 23 0 0 0-.62.045c-.159.014-.317.023-.469.045-.252.037-.378-.048-.553-.085-.26.023-.523.042-.782.072a.6.6 0 0 1-.292-.02c-.118-.037-.227-.081-.417-.057-.253.033-.519.049-.778.071-.176-.038-.304-.12-.554-.084-.152.023-.313.03-.468.045q-.314.029-.627.059c-.225.021-.222.017-.569-.055-.201-.043-.406.015-.608.027-.159.01-.236.075-.196.155.039.079-.045.143-.19.158q-.547.053-1.095.1a.5.5 0 0 1-.14-.012c-.392-.077-.392-.076-.566-.06-.259.027-.525.043-.781.075a.85.85 0 0 1-.423-.047.6.6 0 0 0-.286-.03c-1.254.12-2.507.233-3.757.356-.186.017-.295-.02-.423-.053-.044-.012-.086-.037-.13-.036-.105.003-.209.017-.314.028-.468.043-.936.093-1.408.129-.199.015-.252.079-.336.133a.54.54 0 0 1-.259.067.64.64 0 0 1-.286-.03.83.83 0 0 0-.423-.047c-.205.027-.414.04-.626.06-.108.01-.19.036-.223.086-.007.008.06.027.099.039.128.038.249.082.392.108.147.025.305-.011.456-.023.054-.004.105-.013.156-.013.047 0 .104.006.14.017.166.058.341.096.568.054.197.013.301.124.551.088q.23-.029.468-.043c.042-.002.087.021.131.032.128.031.23.084.42.056.202-.029.418-.038.623-.062a.57.57 0 0 1 .286.028.8.8 0 0 0 .423.047c.152-.022.314-.03.469-.046.202-.02.202-.018.565.058a.5.5 0 0 0 .14.015c.263-.023.522-.049.785-.071.101-.01.2.006.271.044.029.016.02.043.03.066-.522.049-1.045.092-1.563.149-.196.022-.287-.032-.417-.06-.045-.01-.093-.032-.134-.029a58 58 0 0 0-1.095.103.54.54 0 0 1-.286-.03c-.221-.099-.486-.036-.733-.015-.19.015-.249.059-.225.148.031.105.146.135.437.11l.313-.03a.6.6 0 0 1 .277.043.6.6 0 0 0 .274.045c.209-.017.421-.035.623-.06a.86.86 0 0 1 .426.038c.132.053.283.038.435.022.355-.035.358-.034.581.029.045.012.09.037.131.035.364-.029.731-.055 1.089-.095.186-.021.295.02.42.053.044.01.089.037.13.033q.396-.028.782-.073a.6.6 0 0 1 .292.022c.237.075.243.072.575.038.101-.01.212-.028.307-.019.096.009.173.046.262.069.042.01.093.024.137.02q.314-.026.626-.056c.197-.02.197-.018.566.057.15.032.305-.001.453-.015.162-.016.308-.02.432.03.125.051.274.045.432.03.149-.014.301-.047.454-.014.35.076.35.078.565.057.314-.03.624-.06.94-.087.041-.004.096.011.137.021.089.023.166.062.262.07.095.008.206-.011.307-.021.326-.034.348-.044.569.041.185.07.411-.042.584.038.099.046.233.08.417.054.151-.023.31-.032.468-.046.25-.024.25-.022.569.052a.5.5 0 0 0 .137.019c.208-.016.421-.03.623-.06.237-.033.39.015.569.061.14.036.304 0 .453-.017.161-.017.307-.016.429.034.128.051.277.041.435.027.149-.013.3-.048.453-.013.329.077.329.077.566.055q.314-.031.627-.057c.041-.003.092.013.133.024.09.023.167.062.262.07.095.007.206-.013.31-.023.105-.009.215-.032.311-.026a1 1 0 0 1 .261.066c.09.034.172.036.292.02.152-.021.31-.03.465-.042q.132.036.259.074a.7.7 0 0 0 .295.011c.389-.041.393-.037.721.04.15.034.305 0 .453-.013.159-.015.307-.024.432.028a.9.9 0 0 0 .429.032c.101-.013.209-.022.313-.029a.5.5 0 0 1 .14.012c.17.053.336.101.566.06.203.006.307.115.551.088.205-.024.421-.033.623-.062a.7.7 0 0 1 .417.054c.173.08.411-.039.584.04.1.046.227.08.417.056.209-.027.276 0 .338.085.036.048.031.088-.032.127-.062.041-.132.036-.235-.007a.9.9 0 0 0-.426-.04c-.164.015-.267-.053-.404-.077-.137-.026-.298.026-.441-.008-.338-.078-.338-.078-.566-.056-.155.014-.316.023-.468.046-.18.027-.299-.012-.423-.048-.045-.012-.09-.037-.128-.035-.364.029-.731.056-1.092.098-.189.022-.292-.024-.419-.055-.045-.012-.093-.035-.131-.032q-.47.042-.937.088c-.059.039-.125.075-.181.116-.059.042-.141.062-.262.063-.2.005-.395.066-.596-.001-.208-.069-.224-.064-.423-.042-.253.029-.523.03-.759.088-.041.01-.085.037-.084.056-.003.012.064.029.105.039.14.03.301-.022.441.009.093.02.169.05.262.071a.6.6 0 0 0 .146.004c.054-.003.104-.014.155-.013.048 0 .099.007.137.018.175.048.36.092.517.15.154.056.295.011.447.005.611.082.611.083 1.019.044.102-.01.206-.02.311-.02.044-.002.086.022.13.034a.9.9 0 0 0 .426.046c.152-.022.314-.03.469-.046.209-.02.209-.02.566.058.089.02.184.015.298.002.098-.012.2.006.27.044.029.016.02.043.03.066-.313.029-.63.05-.933.09-.196.025-.286-.031-.417-.06-.045-.01-.093-.031-.134-.028q-.465.041-.93.092c-.038.004-.085.036-.088.055-.005.036.075.068.189.064.152-.005.301-.031.438.021a.8.8 0 0 0 .426.04c.101-.015.209-.017.31-.03.269-.04.513-.038.718.05.156.02.308-.006.456-.021.111-.012.218-.024.298 0 .17.05.336.1.566.059.251.032.443.108.654.169a.54.54 0 0 0 .289.022c.048-.01.105-.01.155-.016.105-.01.215-.032.31-.026.096.007.176.045.262.067.042.012.09.031.131.029.158-.01.313-.028.468-.042l.465-.04.396.098q.315-.03.623-.058c.231-.022.231-.02.566.057.15.034.308.006.45-.015.237-.034.397.014.566.065.035.01.099.015.14.009a.85.85 0 0 1 .429.037.6.6 0 0 0 .277.038q.546-.053 1.091-.1a.5.5 0 0 1 .137.016c.325.076.329.08.566.053.212-.024.408-.037.578.034a.3.3 0 0 0 .127.036c.26-.02.523-.04.779-.07a.65.65 0 0 1 .292.018c.118.037.224.082.417.06.535-.062.538-.054 1.174.025.044.006.104-.007.155-.013a.6.6 0 0 1 .283.03c.214.066.22.062.423.042.155-.015.316-.022.468-.046.234-.035.39.015.566.06.14.037.301 0 .45-.015.161-.017.307-.016.429.033.083.033.172.05.277.041l1.091-.101a.5.5 0 0 1 .14.014c.364.077.364.08.721.041a.7.7 0 0 1 .295.01c.083.025.173.049.259.073.155-.013.313-.02.465-.04a.7.7 0 0 1 .292.016c.121.034.224.095.414.06.098-.017.212-.016.31-.032a.5.5 0 0 1 .289.022c.115.04.233.08.417.055.202-.03.417-.038.623-.062a.6.6 0 0 1 .286.029.86.86 0 0 0 .423.046c.361-.042.364-.035.718.042.089.02.184.015.298.002.098-.012.2.006.27.044.068.042.062.07.069.092M187.06 2.572c-.104.01-.209.02-.364-.095-.01-.02-.004-.045-.027-.062a.4.4 0 0 0-.226-.062c-.171-.001-.376.05-.372.085q.005.044.163.076c.045.009.08.025.121.034.122.029.218.088.392.053-.034-.084-.017-.042 0 0q-.023.08.148.1c.032.003.079 0 .104-.01.098-.031.113-.073.037-.178-.012.018-.002.049.027.056.029.008.098 0 .133-.011.088-.028.132-.063.109-.091-.013-.015-.074-.032-.112-.031-.066.001-.126.032-.133.136m25.994 15.19c-.231.031-.497.027-.727.086-.041.01-.082.036-.085.055-.002.012.061.028.1.037.086.02.181.01.291.002.168-.014.268.047.399.075a.5.5 0 0 0 .139.01q.384-.033.766-.07a.6.6 0 0 0 .129-.029c.126-.042.113-.068-.011-.095-.137-.03-.246-.081-.386-.104-.201-.032-.403.021-.615.033m-17.977 1.402-.462.043c-.051.005-.105.008-.152.014a.37.37 0 0 0-.217.088.55.55 0 0 0 .261.046c.155-.012.307-.033.462-.04.168-.01.268.05.398.078.042.008.093.008.14.009.235 0 .376-.074.329-.172-.033-.077-.155-.12-.3-.108zm19.015-3.437c.037-.024.078-.041.097-.062.055-.07.032-.122-.074-.174-.129-.064-.283-.015-.425-.005-.035.002-.072.031-.091.05-.012.012-.012.038.007.044.157.051.323.098.486.147m-27.59-3.392c-.152.014-.307.026-.458.044a.2.2 0 0 0-.094.05c-.041.033.004.077.135.078.149.002.303-.024.458-.039.197-.018.313-.07.239-.113q-.108-.06-.28-.02m-166.913.886c.101-.01.206-.017.307-.029a.36.36 0 0 0 .214-.09.6.6 0 0 0-.268-.043q-.232.017-.459.043c-.095.01-.186.042-.207.089-.021.035.192.051.413.03m153.437-3.698c.041.012.083.035.124.034a2 2 0 0 0 .301-.028.17.17 0 0 0 .091-.051c.012-.013.009-.035-.011-.045-.093-.063-.46-.032-.519.044-.006.014.01.031.014.046m-10.172-7.22c.01.022.013.043.026.065.027.04.097.068.199.086q.12-.053.115-.115a.2.2 0 0 0-.027-.065c-.026-.04-.097-.068-.199-.087q-.116.053-.114.116M221.492 18.8q-.042.029-.088.054c.087.038.166.048.226.025.038-.015.059-.036.087-.054q-.13-.057-.225-.025m-1.968.23c.042.011.08.027.125.034a.21.21 0 0 0 .189-.063c-.042-.011-.08-.027-.125-.034a.21.21 0 0 0-.189.063m1.243-.277q-.033.05.142.08c.028-.019.066-.036.084-.055.031-.032-.023-.06-.138-.079q-.046.026-.088.054m-6.725-1.314q-.033.05.142.08c.028-.019.066-.036.084-.055.031-.032-.023-.06-.138-.079q-.046.025-.088.054m-9.338-9.417q-.041.028-.087.054c.086.037.166.048.225.025.038-.015.06-.036.088-.054q-.131-.058-.226-.025m-8.85-4.907a.23.23 0 0 0 .192-.064c-.042-.012-.08-.027-.125-.034a.21.21 0 0 0-.188.063zm-4.645-.214-.087.053c.086.038.166.048.225.025.038-.014.06-.035.088-.053a.32.32 0 0 0-.226-.025m-31.474-.528-.088.053c.087.038.166.048.226.025.038-.014.059-.035.087-.054a.32.32 0 0 0-.225-.024M3.414 16.997l-.121-.035c-.091.039-.12.073-.068.098.032.016.08.024.121.035q.141-.059.068-.098"/><path fill="#ffe492" d="M115.414 21.61c-.242.03-.482.069-.724.09-.128.012-.174.071-.225.127-.041.044-.089.059-.167.068q-.985.125-1.967.252c-.082-.016-.123-.044-.105-.078.01-.02.035-.05.06-.053.449-.06.895-.122 1.345-.172.129-.014.163-.074.228-.125.02-.016.037-.041.064-.051.027-.012.067-.011.103-.015l2.173-.28c.082.016.123.043.105.078-.01.02-.035.05-.06.053q-.417.052-.83.105M248.739 28.804c-.11.019-.248.045-.364-.031a.26.26 0 0 0-.187-.038q-.155.025-.314.04a.2.2 0 0 1-.091-.024c-.06-.023-.111-.062-.175-.072s-.139.022-.204.017c-.087-.008-.124-.044-.101-.078.012-.02.037-.047.064-.052.389-.059.391-.059.502-.012.086.036.165.076.284.05.101-.021.209-.028.312-.042.143-.02.143-.018.377.062.06.02.123.017.199.004a.25.25 0 0 1 .182.044.2.2 0 0 1-.145.088c-.106.016-.209.028-.339.044M244.839 28.407c.265-.035.532-.066.797-.105a.4.4 0 0 1 .273.042c.084.048.177.042.278.03a.22.22 0 0 1 .168.051c.017.015.013.042.02.064q-.348.046-.699.089a.2.2 0 0 1-.087-.02c-.057-.022-.107-.062-.168-.069-.131-.016-.261.024-.394.034a.24.24 0 0 1-.168-.051c-.017-.018-.014-.044-.02-.066M148.403 16.08q.413-.053.827-.107c.083.017.121.043.105.078-.01.02-.035.05-.06.053q-.828.11-1.652.215c-.083-.017-.122-.043-.105-.077.01-.021.034-.05.06-.053q.41-.056.825-.109M105.704 24.621c-.124.006-.253.061-.393.025-.027-.006-.066-.028-.064-.041.004-.021.029-.049.056-.058.119-.038.268-.046.327-.147.028-.052.082-.07.156-.082a.3.3 0 0 1 .194.018c.081.037.15.106.275.066.007.023.022.048.016.07-.005.02-.032.041-.057.057a.2.2 0 0 1-.084.034c-.138.02-.277.038-.426.058M215.794 23.717c.103-.014.21-.022.311-.043a.26.26 0 0 1 .194.023c.109.055.116.05.379.052.03 0 .066.02.084.038.01.01-.004.036-.016.05-.019.018-.046.042-.071.043-.167.008-.333.093-.498.003a.4.4 0 0 0-.286-.042q-.102.02-.208.028c-.067.008-.137-.006-.18-.046-.063-.06-.028-.084.082-.082.07 0 .139-.016.209-.024M254.2 33.804q.198-.028.399-.052c.027-.003.061.012.087.021.102.04.089.113.094.177.004.066-.228.126-.328.083-.111-.049-.211-.105-.362-.07a.19.19 0 0 1-.167-.051c-.058-.058-.027-.083.08-.082.063.002.13-.015.197-.026M186.914 13.824c.136-.018.273-.045.41-.05.08-.003.121.042.103.076-.01.02-.035.05-.06.054q-.41.058-.82.11c-.081-.017-.121-.045-.103-.079.01-.021.035-.05.06-.054.136-.023.273-.038.41-.057M251.539 28.949c.132-.017.267-.041.399-.051.07-.005.126.026.135.062.004.017-.029.047-.056.054-.189.052-.393.062-.59.09a.21.21 0 0 1-.17-.05c-.059-.058-.027-.081.08-.08.068 0 .135-.017.202-.025M219.294 23.89c.067-.009.136-.029.201-.025.07.006.115.046.137.088a.14.14 0 0 1 .003.132c-.032.07-.066.067-.145.023-.121-.069-.129-.06-.366-.051-.028 0-.062-.02-.083-.038-.032-.028-.017-.073.056-.101.055-.02.13-.019.197-.028M246.575 28.486c.099-.014.197-.034.296-.037.07-.003.125.028.132.063.003.017-.028.046-.053.055-.119.04-.254.047-.385.063a.22.22 0 0 1-.167-.053c-.058-.058-.025-.085.078-.079.032.002.065-.007.099-.012M230.912 26.73c-.147.02-.286.002-.277-.035.014-.048.074-.08.137-.09q.151-.025.305-.041a.27.27 0 0 1 .178.047.2.2 0 0 1-.141.09c-.065.012-.135.02-.202.028M229.943 26.553c.098-.013.197-.034.296-.036.069-.003.125.028.132.063.002.017-.029.045-.054.054-.119.041-.254.047-.384.063a.22.22 0 0 1-.168-.052c-.058-.058-.025-.086.079-.08.031.002.065-.007.099-.012M218.089 23.886c.098-.014.197-.034.296-.038.069-.003.125.028.132.063.002.017-.029.044-.054.055-.119.04-.254.046-.384.062a.21.21 0 0 1-.167-.052c-.059-.058-.026-.085.078-.08.031.003.065-.006.099-.01M217.528 23.8c.105-.014.139-.022.172-.022.064-.002.129.013.168.053.058.058.025.076-.078.08-.133.007-.263.04-.395.048-.07.005-.125-.028-.13-.063-.003-.017.028-.047.053-.053.088-.023.185-.038.21-.043M229.04 14.925c-.068.009-.139.03-.202.025-.084-.008-.119-.045-.099-.081.013-.02.035-.05.06-.054q.203-.033.405-.057c.081.02.117.049.097.085-.012.02-.035.047-.06.053-.065.016-.134.02-.201.03M146.883 16.262a.3.3 0 0 1 .175.048.21.21 0 0 1-.138.092 1 1 0 0 1-.101.014.28.28 0 0 1-.175-.049.22.22 0 0 1 .138-.092q.049-.007.101-.013M250.821 28.944c-.003-.042.124-.092.24-.093a.23.23 0 0 1 .161.056c.056.057.025.08-.078.079-.063-.002-.13.024-.193.021-.072 0-.115-.03-.13-.063M219.911 24.064c-.003-.016-.014-.034-.008-.049.038-.08.278-.11.343-.043.011.013.015.034.007.048-.012.02-.034.047-.059.053a1 1 0 0 1-.199.028c-.029 0-.057-.023-.084-.037"/><path fill="#ffe492" d="M106.454 24.38c-.247.037-.251.034-.209-.039.039-.065.111-.105.218-.108.032 0 .065-.004.092 0 .03.007.072.02.079.037.013.033-.022.07-.084.096-.027.012-.063.01-.096.015M150.014 16.026q-.11.041-.182-.025c-.048-.045.025-.102.152-.118.033-.003.069-.016.1-.01.032.003.064.02.083.036.034.028.014.067-.052.102-.027.014-.067.012-.101.015M250.375 28.833l.057-.058c.077.023.11.052.091.086-.012.02-.037.04-.055.059q-.116-.035-.093-.088M109.883 41.396c0-.017.028-.045.051-.052.043-.01.098.008.136.048.053.057.023.088-.073.074-.067-.01-.113-.038-.114-.07M220.763 22.667l.08.038c-.034.055-.078.079-.124.066-.029-.008-.054-.025-.082-.037q.051-.082.126-.067M220.032 22.605q.061-.033.15.028c-.018.02-.034.041-.057.056-.039.024-.091.014-.148-.028q.025-.027.055-.056M219.47 22.673q.04.018.08.039-.052.083-.124.065c-.029-.008-.054-.025-.082-.037q.051-.082.126-.067M219.055 22.594q.046.044-.044.105c-.027-.012-.058-.022-.079-.039q-.05-.042.043-.105a1 1 0 0 0 .08.039"/></svg>