<svg width="320" height="216" viewBox="0 0 320 216" fill="none" xmlns="http://www.w3.org/2000/svg">
<path d="M287.918 154.944C287.918 84.2975 230.647 27.0271 160.001 27.0271C89.3539 27.0271 32.0835 84.2975 32.0835 154.944" stroke="#A7CEFC" stroke-width="2" stroke-dasharray="15 15"/>
<line x1="31.3887" y1="153.444" x2="287.916" y2="153.444" stroke="#A7CEFC" stroke-width="3" stroke-dasharray="15 15"/>
<line x1="84.2602" y1="51.4586" x2="137.992" y2="126.337" stroke="#A7CEFC" stroke-width="3" stroke-dasharray="15 15"/>
<line x1="246.618" y1="60.5843" x2="193.415" y2="127.796" stroke="#A7CEFC" stroke-width="3" stroke-dasharray="15 15"/>
<rect x="137.234" y="127.325" width="55.2387" height="55.2387" rx="8.5" stroke="#A7CEFC" stroke-width="3" stroke-dasharray="15 15"/>
<g filter="url(#filter0_d_9_22982)">
<rect x="147.52" y="137.611" width="34.6659" height="34.6659" rx="10" fill="white"/>
</g>
<path d="M155 150.268V153.651C155 154.682 156.287 155.231 157.073 154.51L160.827 151.127C161.649 150.388 161.113 149.083 159.987 149.083H156.233C155.554 149.083 155 149.615 155 150.268Z" fill="#5986EF"/>
<path d="M172.767 149.083H169.013C167.905 149.083 167.351 150.388 168.173 151.127L171.927 154.51C172.713 155.214 174 154.682 174 153.651V150.268C174 149.615 173.446 149.083 172.767 149.083Z" fill="#5986EF"/>
<path d="M165.349 157.344L171.927 163.286C172.713 163.99 174 163.458 174 162.427V159.01C174 158.683 173.857 158.374 173.607 158.151L165.349 150.68C164.866 150.251 164.134 150.251 163.651 150.68L155.393 158.151C155.143 158.374 155 158.683 155 159.01V162.427C155 163.458 156.287 164.007 157.073 163.286L163.651 157.344C164.134 156.914 164.866 156.914 165.349 157.344Z" fill="#5986EF"/>
<g filter="url(#filter1_d_9_22982)">
<rect x="14.75" y="137.611" width="34.6659" height="34.6659" rx="10" fill="white"/>
</g>
<path d="M31.3052 156.279C31.1388 156.279 30.9724 156.215 30.8456 156.088C30.5918 155.834 30.5918 155.423 30.8456 155.169L35.0579 150.957C35.3114 150.703 35.7234 150.703 35.9769 150.957C36.2308 151.211 36.2308 151.622 35.9769 151.876L31.7647 156.088C31.638 156.215 31.4716 156.279 31.3052 156.279Z" fill="#FFE492"/>
<path d="M31.3056 156.279C31.1392 156.279 30.9732 156.216 30.8461 156.089L28.7226 153.965C28.4688 153.712 28.4688 153.3 28.7226 153.046C28.9761 152.793 29.3879 152.793 29.6417 153.046L31.7652 155.169C32.019 155.423 32.019 155.835 31.7652 156.089C31.6384 156.216 31.472 156.279 31.3056 156.279Z" fill="#FFE492"/>
<path d="M32.0824 163.047C32.0148 163.047 31.9463 163.037 31.8787 163.014C27.724 161.644 24.9326 157.784 24.9326 153.408C24.9326 153.049 25.2238 152.758 25.5826 152.758C25.9414 152.758 26.2326 153.049 26.2326 153.408C26.2326 157.221 28.6652 160.585 32.2859 161.78C32.6268 161.892 32.8121 162.26 32.6996 162.601C32.6096 162.874 32.3554 163.047 32.0824 163.047Z" fill="#FFE492"/>
<path d="M25.5826 154.058C25.2238 154.058 24.9326 153.767 24.9326 153.408V148.81C24.9326 148.451 25.2238 148.16 25.5826 148.16C25.9414 148.16 26.2326 148.451 26.2326 148.81V153.408C26.2326 153.768 25.9414 154.058 25.5826 154.058Z" fill="#FFE492"/>
<path d="M25.582 149.46C25.2629 149.46 24.9844 149.225 24.9389 148.899C24.8895 148.544 25.1375 148.215 25.4933 148.166C27.689 147.861 29.8082 147.205 31.7927 146.216C32.1141 146.056 32.5044 146.186 32.6643 146.508C32.8245 146.829 32.6935 147.219 32.3724 147.379C30.2616 148.431 28.0075 149.129 25.6721 149.454C25.6418 149.458 25.6116 149.46 25.582 149.46Z" fill="#FFE492"/>
<path d="M32.0827 163.047C31.81 163.047 31.5555 162.874 31.4655 162.601C31.3531 162.26 31.5383 161.892 31.8792 161.78C35.5 160.586 37.9325 157.221 37.9325 153.408C37.9325 153.049 38.2237 152.758 38.5825 152.758C38.9413 152.758 39.2325 153.049 39.2325 153.408C39.2325 157.783 36.4411 161.644 32.2861 163.014C32.2185 163.037 32.1503 163.047 32.0827 163.047Z" fill="#FFE492"/>
<path d="M38.5826 154.058C38.2238 154.058 37.9326 153.767 37.9326 153.408V148.81C37.9326 148.451 38.2238 148.16 38.5826 148.16C38.9414 148.16 39.2326 148.451 39.2326 148.81V153.408C39.2326 153.768 38.9414 154.058 38.5826 154.058Z" fill="#FFE492"/>
<path d="M38.5836 149.46C38.5537 149.46 38.5234 149.458 38.4932 149.454C36.1578 149.129 33.9037 148.431 31.7929 147.379C31.4718 147.219 31.3408 146.829 31.501 146.508C31.6609 146.186 32.0512 146.056 32.3726 146.216C34.357 147.204 36.4763 147.861 38.672 148.166C39.0275 148.215 39.2758 148.544 39.2264 148.899C39.1815 149.225 38.903 149.46 38.5836 149.46Z" fill="#FFE492"/>
<g filter="url(#filter2_d_9_22982)">
<rect x="270.584" y="137.611" width="34.6659" height="34.6659" rx="10" fill="white"/>
</g>
<g clip-path="url(#clip0_9_22982)">
<path d="M293.767 152.182H292.303V148.841C292.303 146.472 290.335 144.544 287.916 144.544C285.496 144.544 283.528 146.472 283.528 148.841V152.182H282.067C280.723 152.182 279.63 153.275 279.63 154.619V162.906C279.63 164.25 280.723 165.344 282.067 165.344H293.767C295.111 165.344 296.204 164.25 296.204 162.906V154.619C296.204 153.275 295.111 152.182 293.767 152.182ZM285.153 148.841C285.153 147.368 286.392 146.169 287.916 146.169C289.439 146.169 290.678 147.368 290.678 148.841V152.182H285.153V148.841ZM294.58 162.906C294.58 163.354 294.215 163.719 293.767 163.719H282.067C281.619 163.719 281.255 163.354 281.255 162.906V154.619C281.255 154.171 281.619 153.806 282.067 153.806H293.767C294.215 153.806 294.58 154.171 294.58 154.619V162.906Z" fill="#4F9CF9"/>
<path d="M287.916 156.162C287.086 156.162 286.413 156.835 286.413 157.665C286.413 158.196 286.688 158.661 287.102 158.929V160.712C287.102 161.161 287.466 161.525 287.915 161.525C288.363 161.525 288.727 161.161 288.727 160.712V158.931C289.143 158.663 289.419 158.197 289.419 157.665C289.419 156.835 288.746 156.162 287.916 156.162Z" fill="#4F9CF9"/>
</g>
<g filter="url(#filter3_d_9_22982)">
<rect x="227.945" y="35" width="34.6659" height="34.6659" rx="10" fill="white"/>
</g>
<g clip-path="url(#clip1_9_22982)">
<path d="M241.991 41.9333C237.799 41.9333 234.878 43.3891 234.878 44.6956C234.878 46.0022 237.799 47.4579 241.991 47.4579C246.184 47.4579 249.105 46.0021 249.105 44.6956C249.105 43.3891 246.184 41.9333 241.991 41.9333Z" fill="#FFE492"/>
<path d="M234.878 57.387V59.9705C234.878 61.2771 237.799 62.7328 241.991 62.7328C243.87 62.7328 245.644 62.4369 246.985 61.8995C247.859 61.5493 248.506 61.1149 248.843 60.6635C248.209 60.1672 247.476 59.4535 246.838 58.4688C245.433 58.9186 243.773 59.1546 241.992 59.1546C239.75 59.1546 237.653 58.7684 236.087 58.0672C235.63 57.8626 235.226 57.6347 234.878 57.387V57.387Z" fill="#FFE492"/>
<path d="M234.878 52.307L234.878 54.8553C234.878 56.1619 237.799 57.6176 241.991 57.6176C243.478 57.6176 244.905 57.4312 246.1 57.0862C245.666 56.0843 245.386 54.9782 245.263 53.7814C244.24 53.9736 243.126 54.074 241.991 54.074C239.735 54.074 237.628 53.6834 236.059 52.9742C235.614 52.7729 235.219 52.5494 234.878 52.307Z" fill="#FFE492"/>
<path d="M234.878 47.2249V49.7749C234.878 51.0814 237.799 52.5372 241.991 52.5372C243.113 52.5372 244.206 52.4316 245.19 52.2297C245.191 51.9882 245.263 51.3597 245.845 51.2C246.762 50.9482 247.404 50.344 247.46 49.5151C247.484 49.1739 247.911 48.6957 248.229 48.7005H249.105V47.2249C248.764 47.4672 248.37 47.6908 247.924 47.8923C246.353 48.6033 244.246 48.9948 241.992 48.9948C239.737 48.9948 237.63 48.6033 236.059 47.8923C235.613 47.6908 235.219 47.4672 234.878 47.2249V47.2249Z" fill="#FFE492"/>
<path d="M253.499 50.2375H248.914C248.658 51.3034 247.838 52.1779 246.729 52.5591C246.816 57.6755 249.757 59.6265 251.053 60.2381C251.127 60.2731 251.215 60.2693 251.288 60.2282C252.59 59.4947 255.541 57.3114 255.678 52.5574C254.573 52.1752 253.755 51.3018 253.499 50.2375ZM250.932 56.9004C250.621 57.2204 250.085 57.2029 249.796 56.8631L248.335 55.1488L249.505 54.152L250.418 55.2238L252.966 52.6029L254.069 53.6741L250.932 56.9004Z" fill="#FFE492"/>
</g>
<g filter="url(#filter4_d_9_22982)">
<rect x="65.7095" y="35" width="34.6659" height="34.6659" rx="10" fill="white"/>
</g>
<g clip-path="url(#clip2_9_22982)">
<path d="M90.7874 43.8939C88.1735 41.28 83.9204 41.28 81.3065 43.8939C79.5213 45.6791 78.9013 48.3107 79.674 50.6977L72.1268 58.245C72.0125 58.3593 71.9482 58.5143 71.9482 58.6759V62.1235C71.9482 62.4602 72.2211 62.733 72.5577 62.733H76.0053C76.167 62.733 76.3219 62.6688 76.4363 62.5544L77.2983 61.6924C77.43 61.5607 77.4942 61.3761 77.4727 61.1911L77.3651 60.2655L78.6482 60.1446C78.9396 60.1171 79.1703 59.8864 79.1978 59.5951L79.3188 58.3118L80.2444 58.4194C80.4172 58.4396 80.5902 58.3848 80.7201 58.2692C80.8499 58.1536 80.9243 57.9879 80.9243 57.814V56.6791H82.0386C82.199 56.6791 82.3529 56.6158 82.467 56.503L83.9812 55.0064C86.3687 55.7803 89.0016 55.1605 90.7874 53.3747C93.4012 50.7608 93.4012 46.5077 90.7874 43.8939ZM89.9255 52.5128C88.3872 54.0511 86.0798 54.5312 84.0471 53.7362C83.8227 53.6485 83.5679 53.701 83.3966 53.8703L81.7882 55.4602H80.3148C79.9782 55.4602 79.7053 55.7331 79.7053 56.0696V57.1296L78.8408 57.0292C78.678 57.0103 78.5144 57.0577 78.387 57.1608C78.2596 57.264 78.1791 57.4141 78.1637 57.5773L78.0315 58.9784L76.6306 59.1104C76.4673 59.1258 76.3172 59.2063 76.2141 59.3337C76.1109 59.4611 76.0634 59.6248 76.0823 59.7876L76.2279 61.039L75.7528 61.5141H73.1671V58.9285L80.8084 51.2872C80.9795 51.116 81.0332 50.8597 80.945 50.6342C80.1499 48.6015 80.6301 46.2941 82.1684 44.7558C84.3071 42.6172 87.7868 42.6172 89.9254 44.7558C92.0641 46.8944 92.0641 50.3742 89.9255 52.5128Z" fill="#4F9CF9"/>
<path d="M89.0647 45.6174C88.3518 44.9045 87.1918 44.9046 86.479 45.6174C85.7661 46.3303 85.7661 47.4902 86.479 48.2031C87.1918 48.916 88.3518 48.9161 89.0647 48.2031C89.7775 47.4902 89.7775 46.3303 89.0647 45.6174ZM88.2028 47.3412C87.9652 47.5788 87.5786 47.5789 87.3409 47.3412C87.1033 47.1036 87.1033 46.717 87.3409 46.4794C87.5792 46.2411 87.9646 46.2411 88.2028 46.4794C88.441 46.7176 88.441 47.103 88.2028 47.3412Z" fill="#4F9CF9"/>
</g>
<circle cx="161.04" cy="27.027" r="5.54654" fill="#A7CEFC"/>
<circle cx="119.094" cy="102.599" r="5.54654" fill="#A7CEFC"/>
<circle cx="237.998" cy="154.944" r="5.54654" fill="#A7CEFC"/>
<defs>
<filter id="filter0_d_9_22982" x="109.52" y="103.611" width="110.666" height="110.666" filterUnits="userSpaceOnUse" color-interpolation-filters="sRGB">
<feFlood flood-opacity="0" result="BackgroundImageFix"/>
<feColorMatrix in="SourceAlpha" type="matrix" values="0 0 0 0 0 0 0 0 0 0 0 0 0 0 0 0 0 0 127 0" result="hardAlpha"/>
<feMorphology radius="2" operator="erode" in="SourceAlpha" result="effect1_dropShadow_9_22982"/>
<feOffset dy="4"/>
<feGaussianBlur stdDeviation="20"/>
<feComposite in2="hardAlpha" operator="out"/>
<feColorMatrix type="matrix" values="0 0 0 0 0 0 0 0 0 0 0 0 0 0 0 0 0 0 0.2 0"/>
<feBlend mode="normal" in2="BackgroundImageFix" result="effect1_dropShadow_9_22982"/>
<feBlend mode="normal" in="SourceGraphic" in2="effect1_dropShadow_9_22982" result="shape"/>
</filter>
<filter id="filter1_d_9_22982" x="-24.25" y="102.611" width="112.666" height="112.666" filterUnits="userSpaceOnUse" color-interpolation-filters="sRGB">
<feFlood flood-opacity="0" result="BackgroundImageFix"/>
<feColorMatrix in="SourceAlpha" type="matrix" values="0 0 0 0 0 0 0 0 0 0 0 0 0 0 0 0 0 0 127 0" result="hardAlpha"/>
<feMorphology radius="11" operator="erode" in="SourceAlpha" result="effect1_dropShadow_9_22982"/>
<feOffset dy="4"/>
<feGaussianBlur stdDeviation="25"/>
<feComposite in2="hardAlpha" operator="out"/>
<feColorMatrix type="matrix" values="0 0 0 0 0 0 0 0 0 0 0 0 0 0 0 0 0 0 0.2 0"/>
<feBlend mode="normal" in2="BackgroundImageFix" result="effect1_dropShadow_9_22982"/>
<feBlend mode="normal" in="SourceGraphic" in2="effect1_dropShadow_9_22982" result="shape"/>
</filter>
<filter id="filter2_d_9_22982" x="231.584" y="102.611" width="112.666" height="112.666" filterUnits="userSpaceOnUse" color-interpolation-filters="sRGB">
<feFlood flood-opacity="0" result="BackgroundImageFix"/>
<feColorMatrix in="SourceAlpha" type="matrix" values="0 0 0 0 0 0 0 0 0 0 0 0 0 0 0 0 0 0 127 0" result="hardAlpha"/>
<feMorphology radius="11" operator="erode" in="SourceAlpha" result="effect1_dropShadow_9_22982"/>
<feOffset dy="4"/>
<feGaussianBlur stdDeviation="25"/>
<feComposite in2="hardAlpha" operator="out"/>
<feColorMatrix type="matrix" values="0 0 0 0 0 0 0 0 0 0 0 0 0 0 0 0 0 0 0.2 0"/>
<feBlend mode="normal" in2="BackgroundImageFix" result="effect1_dropShadow_9_22982"/>
<feBlend mode="normal" in="SourceGraphic" in2="effect1_dropShadow_9_22982" result="shape"/>
</filter>
<filter id="filter3_d_9_22982" x="188.945" y="0" width="112.666" height="112.666" filterUnits="userSpaceOnUse" color-interpolation-filters="sRGB">
<feFlood flood-opacity="0" result="BackgroundImageFix"/>
<feColorMatrix in="SourceAlpha" type="matrix" values="0 0 0 0 0 0 0 0 0 0 0 0 0 0 0 0 0 0 127 0" result="hardAlpha"/>
<feMorphology radius="11" operator="erode" in="SourceAlpha" result="effect1_dropShadow_9_22982"/>
<feOffset dy="4"/>
<feGaussianBlur stdDeviation="25"/>
<feComposite in2="hardAlpha" operator="out"/>
<feColorMatrix type="matrix" values="0 0 0 0 0 0 0 0 0 0 0 0 0 0 0 0 0 0 0.2 0"/>
<feBlend mode="normal" in2="BackgroundImageFix" result="effect1_dropShadow_9_22982"/>
<feBlend mode="normal" in="SourceGraphic" in2="effect1_dropShadow_9_22982" result="shape"/>
</filter>
<filter id="filter4_d_9_22982" x="26.7095" y="0" width="112.666" height="112.666" filterUnits="userSpaceOnUse" color-interpolation-filters="sRGB">
<feFlood flood-opacity="0" result="BackgroundImageFix"/>
<feColorMatrix in="SourceAlpha" type="matrix" values="0 0 0 0 0 0 0 0 0 0 0 0 0 0 0 0 0 0 127 0" result="hardAlpha"/>
<feMorphology radius="11" operator="erode" in="SourceAlpha" result="effect1_dropShadow_9_22982"/>
<feOffset dy="4"/>
<feGaussianBlur stdDeviation="25"/>
<feComposite in2="hardAlpha" operator="out"/>
<feColorMatrix type="matrix" values="0 0 0 0 0 0 0 0 0 0 0 0 0 0 0 0 0 0 0.2 0"/>
<feBlend mode="normal" in2="BackgroundImageFix" result="effect1_dropShadow_9_22982"/>
<feBlend mode="normal" in="SourceGraphic" in2="effect1_dropShadow_9_22982" result="shape"/>
</filter>
<clipPath id="clip0_9_22982">
<rect width="20.7995" height="20.7995" fill="white" transform="translate(277.517 144.544)"/>
</clipPath>
<clipPath id="clip1_9_22982">
<rect width="20.7995" height="20.7995" fill="white" transform="translate(234.878 41.9333)"/>
</clipPath>
<clipPath id="clip2_9_22982">
<rect width="20.7995" height="20.7995" fill="white" transform="translate(71.9482 41.9333)"/>
</clipPath>
</defs>
</svg>
