<svg width="35" height="36" viewBox="0 0 35 36" fill="none" xmlns="http://www.w3.org/2000/svg">
<g clip-path="url(#clip0_9_23713)">
<path d="M4.85767 11.6611C4.25463 11.6611 3.74296 11.8774 3.32236 12.3101C2.90177 12.7427 2.69141 13.2618 2.69141 13.8677V23.1705C2.69141 23.7916 2.9017 24.3174 3.32236 24.7501C3.74296 25.1827 4.25463 25.3991 4.85767 25.3991C5.46028 25.3991 5.96884 25.1828 6.38292 24.7501C6.79618 24.3175 7.00337 23.7916 7.00337 23.1705V13.8677C7.00337 13.2617 6.79308 12.7427 6.37242 12.3101C5.95176 11.8774 5.44674 11.6611 4.85767 11.6611Z" fill="white"/>
<path d="M22.2725 3.30981L23.7659 0.476147C23.8639 0.288546 23.8291 0.144689 23.661 0.0435333C23.4785 -0.0436924 23.3384 0.000506295 23.2404 0.173005L21.7261 3.02932C20.3936 2.42336 18.9843 2.11983 17.4982 2.11983C16.0117 2.11983 14.6023 2.42343 13.2703 3.02932L11.7559 0.173005C11.6575 0.000506295 11.5174 -0.0433018 11.3353 0.0435333C11.1669 0.145145 11.132 0.288546 11.2304 0.476147L12.7239 3.30981C11.2095 4.10415 10.0034 5.21042 9.10604 6.63103C8.20865 8.05242 7.75977 9.60568 7.75977 11.2936H27.2154C27.2154 9.60607 26.7665 8.05274 25.8691 6.63103C24.9717 5.21042 23.7726 4.10415 22.2725 3.30981ZM13.6382 7.43142C13.4767 7.59793 13.2838 7.6808 13.0596 7.6808C12.835 7.6808 12.646 7.59793 12.4918 7.43142C12.3377 7.26569 12.2606 7.06807 12.2606 6.83666C12.2606 6.60603 12.3377 6.40802 12.4918 6.2419C12.646 6.07617 12.8354 5.9933 13.0596 5.9933C13.2838 5.9933 13.4767 6.07617 13.6382 6.2419C13.7994 6.40841 13.8803 6.60603 13.8803 6.83666C13.8799 7.06768 13.799 7.26569 13.6382 7.43142ZM22.5037 7.43142C22.3492 7.59793 22.1598 7.6808 21.9359 7.6808C21.7112 7.6808 21.5184 7.59793 21.3572 7.43142C21.1958 7.26569 21.1152 7.06807 21.1152 6.83666C21.1152 6.60603 21.1958 6.40802 21.3572 6.2419C21.5184 6.07617 21.7112 5.9933 21.9359 5.9933C22.1602 5.9933 22.3491 6.07617 22.5037 6.2419C22.658 6.40841 22.7349 6.60603 22.7349 6.83666C22.7349 7.06768 22.6579 7.26569 22.5037 7.43142Z" fill="white"/>
<path d="M7.84375 26.48C7.84375 27.1441 8.06797 27.7063 8.51648 28.1676C8.96536 28.6289 9.5119 28.8596 10.1571 28.8596H11.7137L11.735 33.7711C11.735 34.3913 11.9453 34.918 12.3659 35.3507C12.7865 35.7834 13.2916 35.9997 13.8803 35.9997C14.4829 35.9997 14.9949 35.7834 15.4156 35.3507C15.8362 34.918 16.0465 34.3914 16.0465 33.7711V28.86H18.9491V33.7711C18.9491 34.3913 19.1593 34.918 19.5799 35.3507C20.0006 35.7834 20.5121 35.9997 21.1153 35.9997C21.7179 35.9997 22.2299 35.7834 22.6506 35.3507C23.0712 34.918 23.2815 34.3914 23.2815 33.7711V28.86H24.859C25.4899 28.86 26.0294 28.6293 26.4788 28.168C26.9272 27.7067 27.1516 27.1445 27.1516 26.4805V12.0713H7.84375V26.48Z" fill="white"/>
<path d="M30.1395 11.6611C29.5503 11.6611 29.0457 11.8743 28.625 12.2993C28.2044 12.7252 27.9941 13.2483 27.9941 13.8677V23.1705C27.9941 23.7916 28.2044 24.3174 28.625 24.7501C29.0457 25.1828 29.5507 25.3991 30.1395 25.3991C30.7421 25.3991 31.2541 25.1828 31.6748 24.7501C32.0954 24.3174 32.3057 23.7916 32.3057 23.1705V13.8677C32.3057 13.2482 32.0954 12.7252 31.6748 12.2993C31.2541 11.8743 30.7421 11.6611 30.1395 11.6611Z" fill="white"/>
</g>
<defs>
<clipPath id="clip0_9_23713">
<rect width="35" height="36" fill="white"/>
</clipPath>
</defs>
</svg>
