<svg width="73" height="73" viewBox="0 0 73 73" fill="none" xmlns="http://www.w3.org/2000/svg">
<g clip-path="url(#clip0_107_72903)">
<path d="M10.0845 23.5327C8.8327 23.5327 7.77062 23.9692 6.89758 24.8423C6.02454 25.7153 5.58789 26.7629 5.58789 27.9857V46.7594C5.58789 48.0127 6.02441 49.0738 6.89758 49.947C7.77062 50.8201 8.8327 51.2567 10.0845 51.2567C11.3353 51.2567 12.3909 50.8202 13.2504 49.947C14.1083 49.074 14.5383 48.0127 14.5383 46.7594V27.9857C14.5383 26.7628 14.1018 25.7153 13.2286 24.8423C12.3555 23.9692 11.3072 23.5327 10.0845 23.5327Z" fill="#1A3453"/>
<path d="M46.2377 6.67892L49.3376 0.960406C49.5411 0.581816 49.4687 0.291503 49.1198 0.0873647C48.7411 -0.0886623 48.4501 0.000533454 48.2467 0.348646L45.1035 6.11287C42.3376 4.89001 39.4123 4.27746 36.3275 4.27746C33.242 4.27746 30.3164 4.89014 27.5516 6.11287L24.4082 0.348646C24.204 0.000533454 23.913 -0.0878741 23.5352 0.0873647C23.1855 0.292423 23.1131 0.581816 23.3174 0.960406L26.4174 6.67892C23.274 8.28195 20.7705 10.5145 18.9078 13.3813C17.045 16.2498 16.1133 19.3844 16.1133 22.7906H56.4978C56.4978 19.3852 55.5659 16.2505 53.7033 13.3813C51.8404 10.5145 49.3514 8.28195 46.2377 6.67892ZM28.3154 14.9966C27.9801 15.3326 27.5797 15.4998 27.1143 15.4998C26.648 15.4998 26.2557 15.3326 25.9357 14.9966C25.6157 14.6621 25.4557 14.2633 25.4557 13.7963C25.4557 13.3309 25.6157 12.9313 25.9357 12.5961C26.2557 12.2616 26.6489 12.0944 27.1143 12.0944C27.5797 12.0944 27.9801 12.2616 28.3154 12.5961C28.6498 12.9321 28.8178 13.3309 28.8178 13.7963C28.8169 14.2625 28.649 14.6621 28.3154 14.9966ZM46.7175 14.9966C46.3969 15.3326 46.0037 15.4998 45.5391 15.4998C45.0726 15.4998 44.6723 15.3326 44.3378 14.9966C44.0027 14.6621 43.8354 14.2633 43.8354 13.7963C43.8354 13.3309 44.0027 12.9313 44.3378 12.5961C44.6723 12.2616 45.0726 12.0944 45.5391 12.0944C46.0045 12.0944 46.3967 12.2616 46.7175 12.5961C47.0378 12.9321 47.1975 13.3309 47.1975 13.7963C47.1975 14.2625 47.0377 14.6621 46.7175 14.9966Z" fill="#1A3453"/>
<path d="M16.2871 53.4381C16.2871 54.7783 16.7525 55.9128 17.6835 56.8437C18.6153 57.7747 19.7497 58.2401 21.089 58.2401H24.32L24.3643 68.152C24.3643 69.4036 24.8008 70.4665 25.6738 71.3397C26.5469 72.2128 27.5953 72.6494 28.8172 72.6494C30.0682 72.6494 31.1309 72.2128 32.0041 71.3397C32.8773 70.4665 33.3138 69.4038 33.3138 68.152V58.241H39.3386V68.152C39.3386 69.4036 39.775 70.4665 40.6482 71.3397C41.5214 72.2128 42.5832 72.6494 43.8351 72.6494C45.086 72.6494 46.1488 72.2128 47.0219 71.3397C47.8951 70.4665 48.3315 69.4038 48.3315 68.152V58.241H51.6061C52.9157 58.241 54.0356 57.7755 54.9682 56.8445C55.8991 55.9135 56.3648 54.7791 56.3648 53.4391V24.3604H16.2871V53.4381Z" fill="#1A3453"/>
<path d="M62.5644 23.5327C61.3416 23.5327 60.2941 23.9628 59.4209 24.8206C58.5478 25.68 58.1113 26.7356 58.1113 27.9857V46.7594C58.1113 48.0127 58.5477 49.0738 59.4209 49.947C60.2941 50.8202 61.3423 51.2567 62.5644 51.2567C63.8154 51.2567 64.8781 50.8202 65.7513 49.947C66.6245 49.0738 67.0608 48.0127 67.0608 46.7594V27.9857C67.0608 26.7355 66.6245 25.68 65.7513 24.8206C64.8781 23.9628 63.8154 23.5327 62.5644 23.5327Z" fill="#1A3453"/>
</g>
<defs>
<clipPath id="clip0_107_72903">
<rect width="72.6503" height="72.6503" fill="white"/>
</clipPath>
</defs>
</svg>
