<svg width="35" height="36" viewBox="0 0 35 36" fill="none" xmlns="http://www.w3.org/2000/svg">
<g clip-path="url(#clip0_9_23701)">
<path d="M27.0901 20.1787C26.1274 15.195 30.7264 12.272 30.7264 12.272C30.7264 12.272 28.9346 9.60556 25.9231 8.91959C22.9132 8.23212 21.4067 9.09105 19.9032 9.73527C18.3982 10.3811 17.6473 10.3811 17.6473 10.3811C15.4754 10.3811 13.8878 8.01583 9.7499 9.09262C6.89917 9.8326 3.89819 13.2175 3.35598 17.2574C2.81377 21.2988 3.98384 26.4556 6.23978 30.4523C8.49572 34.452 10.7938 35.9551 12.4249 35.9984C14.056 36.0401 15.6842 34.7965 17.6473 34.4937C19.6119 34.1939 20.8209 35.226 22.7479 35.7837C24.6674 36.3399 25.3403 35.8239 27.5512 33.8896C29.7681 31.9554 31.7748 26.4078 31.7748 26.4078C31.7748 26.4078 28.0529 25.1656 27.0901 20.1787Z" fill="white"/>
<path d="M22.8279 5.69596C24.9607 3.46058 24.2383 0 24.2383 0C24.2383 0 21.2434 0.540727 19.2367 2.68809C17.2316 4.83703 17.5635 8.23115 17.5635 8.23115C17.5635 8.23115 20.6951 7.92992 22.8279 5.69596Z" fill="white"/>
</g>
<defs>
<clipPath id="clip0_9_23701">
<rect width="35" height="36" fill="white"/>
</clipPath>
</defs>
</svg>
