<svg width="79" height="62" viewBox="0 0 79 62" fill="none" xmlns="http://www.w3.org/2000/svg">
<g clip-path="url(#clip0_107_72563)">
<path d="M0 5.03482V19.4096C0 23.7877 5.33468 26.1227 8.59477 23.058L24.1543 8.68325C27.5625 5.5456 25.3397 0 20.6719 0H5.1124C2.29688 0 0 2.26202 0 5.03482Z" fill="#043873"/>
<path d="M73.6473 0H58.0879C53.4941 0 51.1972 5.5456 54.6055 8.68325L70.165 23.058C73.4251 26.0497 78.7597 23.7877 78.7597 19.4096V5.03482C78.7597 2.26202 76.4629 0 73.6473 0Z" fill="#043873"/>
<path d="M42.8997 35.0978L70.1659 60.3448C73.426 63.3366 78.7607 61.0745 78.7607 56.6964V42.1757C78.7607 40.7893 78.1679 39.4759 77.1306 38.5273L42.8997 6.78601C40.8992 4.96179 37.8614 4.96179 35.8609 6.78601L1.63004 38.5273C0.592742 39.4759 0 40.7893 0 42.1757V56.6964C0 61.0745 5.33468 63.4095 8.59476 60.3448L35.8609 35.0978C37.8614 33.2736 40.8992 33.2736 42.8997 35.0978Z" fill="#043873"/>
</g>
<defs>
<clipPath id="clip0_107_72563">
<rect width="78.7607" height="61.7313" fill="white"/>
</clipPath>
</defs>
</svg>
