<svg width="73" height="73" viewBox="0 0 73 73" fill="none" xmlns="http://www.w3.org/2000/svg">
<g clip-path="url(#clip0_107_72816)">
<path d="M24.8469 0.000488281C10.2043 0.000488281 0 5.08523 0 9.64885C0 14.2125 10.2043 19.2972 24.8469 19.2972C39.4895 19.2972 49.6937 14.2123 49.6937 9.64885C49.6937 5.08539 39.4896 0.000488281 24.8469 0.000488281Z" fill="#FFE492"/>
<path d="M0 53.9784V63.0025C0 67.5661 10.2043 72.6509 24.8469 72.6509C31.4094 72.6509 37.6038 71.6173 42.289 69.7402C45.3426 68.517 47.6027 66.9997 48.7792 65.423C46.5632 63.6893 44.0048 61.1965 41.7758 57.7573C36.8692 59.3283 31.0699 60.1526 24.847 60.1526C17.0171 60.1526 9.69245 58.8037 4.22241 56.3543C2.6269 55.6399 1.21565 54.8437 0 53.9784H0Z" fill="#FFE492"/>
<path d="M0.000155236 36.2344L0 45.1354C0 49.6989 10.2043 54.7836 24.8469 54.7836C30.04 54.7836 35.0225 54.1324 39.1968 52.9275C37.6831 49.4278 36.7045 45.5647 36.2728 41.3842C32.7022 42.0557 28.8111 42.4062 24.8469 42.4062C16.9665 42.4062 9.60738 41.042 4.12539 38.5649C2.5693 37.8617 1.1905 37.0809 0.000155236 36.2344Z" fill="#FFE492"/>
<path d="M0 18.4834V27.3905C0 31.954 10.2043 37.0388 24.8469 37.0388C28.7631 37.0388 32.581 36.6698 36.0178 35.9646C36.0226 35.1211 36.2742 32.9259 38.3066 32.368C41.5092 31.4887 43.7504 29.3781 43.9486 26.483C44.0303 25.2911 45.5218 23.6209 46.6328 23.6375H49.6939V18.4834C48.5034 19.3299 47.1252 20.1109 45.5693 20.8149C40.0803 23.298 32.7209 24.6656 24.847 24.6656C16.9732 24.6656 9.6139 23.298 4.12492 20.8149C2.56868 20.1109 1.1905 19.3299 0 18.4834H0Z" fill="#FFE492"/>
<path d="M65.0399 29.0059H49.0248C48.1294 32.7289 45.2667 35.7831 41.3945 37.1149C41.6957 54.9858 51.9678 61.8002 56.4966 63.9367C56.7556 64.0587 57.0623 64.0457 57.3177 63.9021C61.8641 61.3401 72.1724 53.7141 72.6522 37.1087C68.7895 35.7738 65.9341 32.7233 65.0399 29.0059ZM56.0729 52.2783C54.986 53.3962 53.1153 53.3349 52.1041 52.1482L47.0009 46.1602L51.0881 42.6786L54.2783 46.4222L63.1788 37.2678L67.0291 41.0095L56.0729 52.2783Z" fill="#FFE492"/>
</g>
<defs>
<clipPath id="clip0_107_72816">
<rect width="72.6503" height="72.6503" fill="white"/>
</clipPath>
</defs>
</svg>
