<svg width="49" height="90" viewBox="0 0 49 90" fill="none" xmlns="http://www.w3.org/2000/svg">
<path d="M13.485 50.681C13.1478 50.681 5.73111 50.681 2.35987 50.681C0.561874 50.681 0 50.0068 0 48.3211C0 43.8261 0 39.2188 0 34.7238C0 32.9258 0.674249 32.3639 2.35987 32.3639H13.485C13.485 32.0268 13.485 25.5091 13.485 22.4749C13.485 17.98 14.2716 13.7097 16.5191 9.7766C18.879 5.73111 22.2502 3.03412 26.5204 1.46087C29.3298 0.449498 32.1392 0 35.1733 0H46.186C47.7593 0 48.4335 0.674248 48.4335 2.24749V15.0582C48.4335 16.6315 47.7593 17.3057 46.186 17.3057C43.1519 17.3057 40.1178 17.3057 37.0837 17.4181C34.0495 17.4181 32.4763 18.879 32.4763 22.0254C32.3639 25.3967 32.4763 28.6556 32.4763 32.1392H45.5118C47.3098 32.1392 47.984 32.8134 47.984 34.6114V48.2088C47.984 50.0068 47.4221 50.5686 45.5118 50.5686C41.4663 50.5686 32.8134 50.5686 32.4763 50.5686V87.2028C32.4763 89.1132 31.9144 89.7874 29.8917 89.7874C25.1719 89.7874 20.5646 89.7874 15.8448 89.7874C14.1592 89.7874 13.485 89.1132 13.485 87.4275C13.485 75.6282 13.485 51.0181 13.485 50.681Z" fill="#1A3453"/>
</svg>
