<svg width="73" height="73" viewBox="0 0 73 73" fill="none" xmlns="http://www.w3.org/2000/svg">
<g clip-path="url(#clip0_107_72862)">
<path d="M66.1794 21.568H6.5835C5.40705 21.568 4.45508 20.6161 4.45508 19.4396V6.38528C4.45508 2.86429 7.31937 0 10.8404 0H61.9226C65.4436 0 68.3078 2.86429 68.3078 6.38528V19.4396C68.3078 20.6161 67.3559 21.568 66.1794 21.568Z" fill="#E3E7EA"/>
<path d="M61.9239 0H36.3828V21.568H66.1808C67.3572 21.568 68.3092 20.6161 68.3092 19.4396V6.38528C68.3092 2.86429 65.4449 0 61.9239 0Z" fill="#BABAC0"/>
<path d="M4.37128 44.9808C4.37199 44.9777 4.37227 44.9761 4.37227 44.9761L0.13784 24.8036C-0.160139 22.888 0.350683 20.9723 1.54274 19.5675C2.77709 18.1203 4.56482 17.3115 6.43784 17.3115H66.2042C68.0772 17.3115 69.8651 18.1203 71.0994 19.5675C72.2915 20.9724 72.8023 22.888 72.5043 24.7184L68.2699 44.9862L72.5043 65.1585C72.8023 67.0741 72.2915 68.9898 71.0994 70.3943C69.8651 71.8418 68.0773 72.6506 66.2043 72.6506H6.43784C4.56482 72.6506 2.77695 71.8418 1.5426 70.3943C0.350683 68.9897 -0.160139 67.0741 0.13784 65.2437C0.13784 65.2437 4.29778 45.3322 4.37128 44.9808Z" fill="#4086F4"/>
<path d="M4.37423 44.9756C4.37423 44.9756 4.37394 44.9772 4.37323 44.9803H68.273L72.5063 24.718C72.8043 22.8875 72.2934 20.9719 71.1014 19.567C69.867 18.1198 68.0793 17.311 66.2063 17.311H6.43979C4.56678 17.311 2.7789 18.1198 1.54455 19.567C0.352636 20.9719 -0.158186 22.8875 0.139793 24.8031L4.37423 44.9756Z" fill="#4175DF"/>
<path d="M15.0425 12.7705C16.218 12.7705 17.1709 11.8176 17.1709 10.6421C17.1709 9.4666 16.218 8.51367 15.0425 8.51367C13.867 8.51367 12.9141 9.4666 12.9141 10.6421C12.9141 11.8176 13.867 12.7705 15.0425 12.7705Z" fill="#FFF5F5"/>
<path d="M57.6089 12.7705C58.7844 12.7705 59.7373 11.8176 59.7373 10.6421C59.7373 9.4666 58.7844 8.51367 57.6089 8.51367C56.4334 8.51367 55.4805 9.4666 55.4805 10.6421C55.4805 11.8176 56.4334 12.7705 57.6089 12.7705Z" fill="#E3E7EA"/>
<path d="M27.8064 59.88C24.2063 59.88 20.9784 57.5999 19.7791 54.2035C19.3862 53.0956 19.9661 51.8797 21.0761 51.4889C22.1798 51.094 23.4 51.678 23.7907 52.7859C24.3914 54.482 26.0063 55.6231 27.8064 55.6231C30.153 55.6231 32.0632 53.7129 32.0632 51.3663C32.0632 49.0196 30.153 47.1094 27.8064 47.1094H25.1604C23.9861 47.1094 23.032 46.1575 23.032 44.981C23.032 43.8046 23.9861 42.8526 25.1604 42.8526H27.8064C30.153 42.8526 32.0632 40.9424 32.0632 38.5957C32.0632 36.2491 30.153 34.3389 27.8064 34.3389C26.0063 34.3389 24.3914 35.48 23.7906 37.1761C23.3998 38.286 22.1777 38.868 21.076 38.4731C19.9661 38.0824 19.3862 36.8665 19.7789 35.7585C20.9784 32.3621 24.2063 30.082 27.8064 30.082C32.5018 30.082 36.3201 33.9003 36.3201 38.5957C36.3201 41.1357 35.2018 43.42 33.4309 44.981C35.2018 46.542 36.3201 48.8264 36.3201 51.3663C36.3201 56.0617 32.5018 59.88 27.8064 59.88Z" fill="#FFF5F5"/>
<path d="M21.0759 38.4728C22.1776 38.8677 23.3997 38.2858 23.7905 37.1757C24.3913 35.4796 26.0064 34.3385 27.8063 34.3385C30.153 34.3385 32.0632 36.2487 32.0632 38.5954C32.0632 40.942 30.153 42.8522 27.8063 42.8522H25.1604C23.9861 42.8522 23.0321 43.804 23.032 44.9804H33.4312C35.2019 43.4194 36.32 41.1351 36.32 38.5954C36.32 33.8999 32.5018 30.0817 27.8063 30.0817C24.2063 30.0817 20.9783 32.3618 19.779 35.7582C19.3861 36.8661 19.966 38.082 21.0759 38.4728Z" fill="#E3E7EA"/>
<path d="M49.0945 59.8797C47.918 59.8797 46.966 58.9277 46.966 57.7513V36.1864L43.8897 38.2379C42.9087 38.8864 41.5888 38.6246 40.9382 37.6476C40.2855 36.6687 40.5495 35.3488 41.5285 34.6961L47.9138 30.4392C48.5665 30.0047 49.4082 29.9633 50.0984 30.3332C50.7905 30.7033 51.2229 31.4245 51.2229 32.2102V57.7513C51.2229 58.9277 50.2709 59.8797 49.0945 59.8797Z" fill="#FFF5F5"/>
<path d="M43.8918 38.2388L46.9681 36.1873V44.9813H51.225V32.2111C51.225 31.4255 50.7926 30.7042 50.1005 30.3341C49.4104 29.9642 48.5685 30.0058 47.9158 30.4401L41.5305 34.697C40.5516 35.3497 40.2875 36.6695 40.9403 37.6486C41.591 38.6255 42.9108 38.8875 43.8918 38.2388Z" fill="#E3E7EA"/>
</g>
<defs>
<clipPath id="clip0_107_72862">
<rect width="72.6503" height="72.6503" fill="white"/>
</clipPath>
</defs>
</svg>
