<svg width="140" height="47" viewBox="0 0 140 47" fill="none" xmlns="http://www.w3.org/2000/svg">
<path d="M59.6973 24.2901C59.6973 30.9307 54.529 35.824 48.1863 35.824C41.8436 35.824 36.6753 30.9307 36.6753 24.2901C36.6753 17.6027 41.8436 12.7561 48.1863 12.7561C54.529 12.7561 59.6973 17.6027 59.6973 24.2901ZM54.6583 24.2901C54.6583 20.1403 51.6629 17.301 48.1863 17.301C44.7097 17.301 41.7143 20.1403 41.7143 24.2901C41.7143 28.3982 44.7097 31.2791 48.1863 31.2791C51.6629 31.2791 54.6583 28.393 54.6583 24.2901Z" fill="#EA4335"/>
<path d="M84.5298 24.2901C84.5298 30.9307 79.3615 35.824 73.0188 35.824C66.6761 35.824 61.5078 30.9307 61.5078 24.2901C61.5078 17.6079 66.6761 12.7561 73.0188 12.7561C79.3615 12.7561 84.5298 17.6027 84.5298 24.2901ZM79.4909 24.2901C79.4909 20.1403 76.4954 17.301 73.0188 17.301C69.5422 17.301 66.5468 20.1403 66.5468 24.2901C66.5468 28.3982 69.5422 31.2791 73.0188 31.2791C76.4954 31.2791 79.4909 28.393 79.4909 24.2901Z" fill="#FBBC05"/>
<path d="M108.328 13.4529V34.16C108.328 42.6778 103.331 46.1567 97.4225 46.1567C91.861 46.1567 88.5138 42.4178 87.2514 39.3601L91.6386 37.5245C92.4198 39.4017 94.334 41.617 97.4173 41.617C101.199 41.617 103.543 39.2717 103.543 34.8568V33.1979H103.367C102.239 34.5968 100.066 35.8188 97.3242 35.8188C91.5868 35.8188 86.3306 30.7955 86.3306 24.3317C86.3306 17.8211 91.5868 12.7561 97.3242 12.7561C100.061 12.7561 102.234 13.9781 103.367 15.3354H103.543V13.4581H108.328V13.4529ZM103.9 24.3317C103.9 20.2703 101.204 17.301 97.7743 17.301C94.2977 17.301 91.3851 20.2703 91.3851 24.3317C91.3851 28.3514 94.2977 31.2791 97.7743 31.2791C101.204 31.2791 103.9 28.3514 103.9 24.3317Z" fill="#4285F4"/>
<path d="M116.218 1.31543V35.1165H111.303V1.31543H116.218Z" fill="#34A853"/>
<path d="M135.37 28.086L139.281 30.7069C138.019 32.5841 134.977 35.8186 129.72 35.8186C123.202 35.8186 118.333 30.7537 118.333 24.2847C118.333 17.4257 123.243 12.7507 129.156 12.7507C135.111 12.7507 138.024 17.5141 138.976 20.0882L139.498 21.3986L124.159 27.7844C125.333 30.0985 127.159 31.2789 129.72 31.2789C132.286 31.2789 134.066 30.0101 135.37 28.086ZM123.331 23.9363L133.585 19.6565C133.021 18.2161 131.324 17.2125 129.327 17.2125C126.766 17.2125 123.202 19.4849 123.331 23.9363Z" fill="#EA4335"/>
<path d="M18.071 21.2895V16.3961H34.4761C34.6365 17.2489 34.7193 18.2578 34.7193 19.3498C34.7193 23.0211 33.7208 27.5609 30.5029 30.7954C27.3729 34.0715 23.3738 35.8187 18.0762 35.8187C8.25689 35.8187 0 27.7793 0 17.9094C0 8.03945 8.25689 0 18.0762 0C23.5083 0 27.3781 2.14247 30.2856 4.93495L26.8504 8.38786C24.7655 6.4222 21.9408 4.89335 18.071 4.89335C10.9005 4.89335 5.29248 10.7019 5.29248 17.9094C5.29248 25.1168 10.9005 30.9254 18.071 30.9254C22.722 30.9254 25.3708 29.0481 27.0677 27.3424C28.4439 25.9592 29.3492 23.9831 29.7062 21.2843L18.071 21.2895Z" fill="#4285F4"/>
</svg>
