<svg width="60" height="73" viewBox="0 0 60 73" fill="none" xmlns="http://www.w3.org/2000/svg">
<path d="M49.5382 40.7228C47.5397 30.6652 57.0861 24.7665 57.0861 24.7665C57.0861 24.7665 53.3667 19.3854 47.1158 18.0011C40.868 16.6137 37.741 18.3471 34.6201 19.6472C31.4962 20.9504 29.9374 20.9504 29.9374 20.9504C25.4293 20.9504 22.1338 16.1773 13.5447 18.3503C7.62737 19.8436 1.39817 26.6745 0.272694 34.8273C-0.852781 42.9831 1.57594 53.3899 6.25865 61.4554C10.9414 69.5271 15.7115 72.5605 19.0972 72.6478C22.483 72.732 25.8626 70.2223 29.9374 69.6112C34.0154 69.0063 36.5251 71.0891 40.525 72.2145C44.5093 73.337 45.9061 72.2956 50.4953 68.3922C55.0969 64.4888 59.2622 53.2933 59.2622 53.2933C59.2622 53.2933 51.5366 50.7866 49.5382 40.7228Z" fill="#1A3453"/>
<path d="M40.6928 11.4943C45.1198 6.98318 43.6203 -0.000488281 43.6203 -0.000488281C43.6203 -0.000488281 37.4037 1.09073 33.2384 5.42425C29.0763 9.76094 29.7653 16.6105 29.7653 16.6105C29.7653 16.6105 36.2656 16.0026 40.6928 11.4943Z" fill="#1A3453"/>
</svg>
