<svg width="73" height="73" viewBox="0 0 73 73" fill="none" xmlns="http://www.w3.org/2000/svg">
<path d="M36.2831 1.05765e-09C34.9809 1.05765e-09 33.6795 0.0700065 32.3847 0.209565C31.1979 0.330788 30.0257 0.529595 28.8692 0.770829C28.6454 0.817652 28.4215 0.867051 28.1977 0.918722C21.3839 2.47008 15.1621 5.95389 10.2784 10.9524C9.8243 11.4179 9.37971 11.8972 8.94497 12.3901C-4.24716 27.5351 -2.66398 50.507 12.4812 63.6991C26.9807 76.3289 48.8062 75.4885 62.2917 61.7814C62.7468 61.3159 63.1912 60.8366 63.6252 60.3437C69.4471 53.7136 72.6554 45.1903 72.6503 36.3669C72.6503 16.2818 56.3681 -0.000151528 36.2831 1.05765e-09ZM11.8943 12.7707C12.0859 12.5719 12.2847 12.3816 12.4798 12.1889C12.7053 11.967 12.9296 11.744 13.1599 11.5294C13.3623 11.3403 13.5709 11.1585 13.7781 10.9742C14.0121 10.7669 14.2449 10.5596 14.4849 10.3596C14.6958 10.1814 14.9128 10.0105 15.1286 9.83834C15.371 9.64438 15.6135 9.45043 15.8632 9.26374C16.0838 9.09767 16.3081 8.93644 16.5336 8.77885C16.7845 8.59944 17.0366 8.41518 17.2924 8.24789C17.5215 8.09272 17.7531 7.94241 17.9858 7.7933C18.2452 7.62723 18.5059 7.46357 18.7689 7.30841C19.0058 7.16703 19.2441 7.02793 19.4841 6.8914C19.7525 6.73866 20.0219 6.58955 20.2927 6.44409C20.5351 6.31483 20.7776 6.1883 21.02 6.06466C21.2964 5.92525 21.5752 5.79069 21.8553 5.65856C22.0977 5.5434 22.3498 5.42823 22.5996 5.31913C22.8844 5.19791 23.173 5.07668 23.4615 4.95546C23.7124 4.85242 23.9621 4.75181 24.2155 4.65483C24.5088 4.5433 24.8058 4.43905 25.1028 4.3348C25.3562 4.2463 25.6095 4.15781 25.8665 4.07417C26.1684 3.97719 26.4727 3.88748 26.7781 3.79899C27.0339 3.72504 27.2873 3.64867 27.5443 3.57958C27.6425 3.55412 27.7406 3.53351 27.8388 3.50805C24.2506 6.99217 21.5878 11.3162 20.0915 16.0886C17.2142 15.3298 14.4288 14.2578 11.7852 12.892C11.8252 12.8495 11.8592 12.8071 11.8943 12.7707ZM10.1511 14.7224C13.0631 16.3002 16.1509 17.5291 19.3508 18.3834C17.7822 23.8378 16.9587 29.4794 16.9033 35.1546H2.36861C2.63272 27.6708 5.36949 20.4855 10.1511 14.7224ZM10.1511 58.0113C5.36979 52.248 2.63302 45.0628 2.36861 37.5791H16.9033C16.9587 43.2543 17.782 48.8959 19.3508 54.3504C16.1511 55.205 13.0632 56.4337 10.1511 58.0113ZM27.537 69.159C27.2921 69.0972 27.0388 69.0172 26.7866 68.9432C26.4799 68.8535 26.172 68.7638 25.869 68.6656C25.6132 68.5832 25.361 68.4947 25.1089 68.4062C24.8107 68.3032 24.5125 68.1977 24.2179 68.085C23.9658 67.9892 23.7172 67.8886 23.4675 67.7868C23.1778 67.6655 22.8881 67.5443 22.6008 67.4231C22.3535 67.314 22.1074 67.2017 21.8625 67.0861C21.5801 66.9528 21.2988 66.817 21.014 66.6764C20.7715 66.5551 20.5291 66.4339 20.2866 66.3018C20.0127 66.1551 19.7411 66.0048 19.4696 65.8496C19.2271 65.7151 18.9968 65.5769 18.7628 65.4362C18.4962 65.2762 18.2343 65.1114 17.9725 64.9429C17.7421 64.7962 17.5118 64.6471 17.2851 64.4943C17.0269 64.3198 16.7712 64.1379 16.5178 63.9561C16.296 63.7973 16.0741 63.6385 15.8559 63.4712C15.605 63.2821 15.3589 63.0869 15.114 62.8906C14.8995 62.7196 14.6861 62.5499 14.4764 62.3741C14.2339 62.1729 14 61.9632 13.7648 61.7547C13.5587 61.5716 13.3514 61.391 13.1502 61.2043C12.9187 60.9886 12.6944 60.7643 12.4689 60.5425C12.2738 60.3497 12.075 60.1594 11.8834 59.9618C11.8483 59.9242 11.8143 59.8854 11.7792 59.8491C14.4226 58.4826 17.208 57.4102 20.0854 56.6512C21.582 61.4235 24.2447 65.7473 27.8328 69.2318C27.7346 69.2063 27.6352 69.1857 27.537 69.159ZM35.071 70.2137C29.8839 69.4766 25.3368 64.0628 22.4759 56.0681C26.6121 55.142 30.8329 54.6451 35.071 54.5855V70.2137ZM35.071 52.1611C30.5752 52.2202 26.0982 52.7542 21.7146 53.7539C20.1925 48.4948 19.3896 43.0537 19.3277 37.5791H35.071V52.1611ZM35.071 35.1546H19.3277C19.3894 29.68 20.1924 24.2389 21.7146 18.9798C26.0982 19.9794 30.5753 20.5134 35.071 20.5727V35.1546ZM35.071 18.1482C30.8328 18.0891 26.6121 17.5922 22.4759 16.6656C25.3368 8.67096 29.8839 3.25712 35.071 2.52008V18.1482ZM62.4154 14.7224C67.1967 20.4857 69.9335 27.6709 70.1979 35.1546H55.6632C55.6078 29.4794 54.7845 23.8378 53.2157 18.3834C56.4154 17.5286 59.5033 16.2999 62.4154 14.7224ZM45.0198 3.57351C45.2744 3.63655 45.5277 3.71656 45.7799 3.7905C46.0866 3.88021 46.3945 3.96992 46.6976 4.06811C46.9533 4.15054 47.2055 4.23903 47.4576 4.32752C47.7558 4.43056 48.054 4.53603 48.3486 4.64877C48.6008 4.74453 48.8493 4.84515 49.099 4.94698C49.3887 5.0682 49.6784 5.18942 49.9657 5.31065C50.213 5.41975 50.4591 5.53203 50.704 5.64765C50.9864 5.78099 51.2677 5.91676 51.5525 6.05738C51.795 6.17861 52.0374 6.29983 52.2799 6.43196C52.5539 6.57864 52.8254 6.72896 53.0969 6.88413C53.3394 7.01868 53.5697 7.15688 53.8037 7.2975C54.0704 7.45751 54.3322 7.62238 54.594 7.79088C54.8244 7.93756 55.0547 8.08666 55.2814 8.2394C55.5396 8.41397 55.7942 8.59459 56.0475 8.77642C56.2706 8.93523 56.4924 9.09524 56.7118 9.26132C56.9615 9.44921 57.2064 9.64438 57.4525 9.84076C57.6658 10.0105 57.8804 10.1802 58.0901 10.3572C58.3326 10.5584 58.5665 10.7681 58.8017 10.9766C59.0078 11.1597 59.2151 11.3403 59.4163 11.527C59.6478 11.7428 59.8721 11.967 60.0976 12.1889C60.2928 12.3816 60.4916 12.5719 60.6831 12.7695C60.7182 12.8071 60.7522 12.8459 60.7873 12.8823C58.1439 14.2488 55.3585 15.3211 52.4811 16.0801C50.9816 11.3073 48.3154 6.98368 44.724 3.50078C44.8222 3.52624 44.9216 3.54685 45.0198 3.57351ZM37.4955 2.52008C42.6826 3.25712 47.2297 8.67096 50.0906 16.6656C45.9545 17.5918 41.7336 18.0887 37.4955 18.1482V2.52008ZM37.4955 20.5727C41.9914 20.5136 46.4683 19.9796 50.8519 18.9798C52.374 24.2389 53.1769 29.68 53.2388 35.1546H37.4955V20.5727ZM37.4955 37.5791H53.2388C53.1771 43.0537 52.3741 48.4948 50.8519 53.7539C46.4683 52.7543 41.9914 52.2203 37.4955 52.1611V37.5791ZM37.4955 70.2137V54.5855C41.7338 54.6446 45.9545 55.1415 50.0906 56.0681C47.2297 64.0628 42.6826 69.4766 37.4955 70.2137ZM60.6722 59.963C60.4806 60.1606 60.2831 60.3509 60.0879 60.5437C59.8624 60.7655 59.6369 60.9898 59.4054 61.2056C59.2042 61.3934 58.9969 61.5692 58.7908 61.7571C58.5556 61.9656 58.3217 62.1741 58.0816 62.3754C57.8695 62.5523 57.6537 62.7233 57.4379 62.8954C57.1955 63.0894 56.953 63.2833 56.7033 63.47C56.4827 63.6361 56.2584 63.7973 56.033 63.9549C55.782 64.1343 55.5299 64.3186 55.2741 64.4859C55.045 64.641 54.8135 64.7913 54.5807 64.9392C54.3213 65.1065 54.0599 65.2682 53.7964 65.4241C53.5539 65.566 53.3224 65.7041 53.0836 65.8411C52.8152 65.9939 52.5454 66.143 52.2738 66.2884C52.0314 66.4177 51.7889 66.5442 51.5465 66.6679C51.2701 66.8073 50.9913 66.9418 50.7113 67.074C50.4688 67.1891 50.2167 67.3043 49.9669 67.4134C49.6821 67.5346 49.3936 67.6558 49.105 67.7771C48.8541 67.8789 48.6044 67.9807 48.3523 68.0765C48.0565 68.1892 47.7595 68.2947 47.4613 68.3977C47.2091 68.4862 46.957 68.5747 46.7012 68.6572C46.3981 68.7553 46.0951 68.845 45.786 68.9335C45.5326 69.0087 45.278 69.0839 45.0222 69.153C44.9241 69.1784 44.8259 69.199 44.7277 69.2245C48.3159 65.7404 50.9787 61.4163 52.4751 56.6439C55.3523 57.4028 58.1377 58.4747 60.7813 59.8406C60.7413 59.8842 60.7073 59.9266 60.6722 59.963ZM62.4154 58.0113C59.5034 56.4336 56.4156 55.2047 53.2157 54.3504C54.7844 48.8959 55.6078 43.2543 55.6632 37.5791H70.1979C69.9339 45.0628 67.197 52.2482 62.4154 58.0113Z" fill="#1A3453"/>
</svg>
