<svg width="73" height="73" viewBox="0 0 73 73" fill="none" xmlns="http://www.w3.org/2000/svg">
<g clip-path="url(#clip0_107_72809)">
<path d="M65.8048 6.84753C56.6748 -2.28242 41.8193 -2.28228 32.6893 6.84753C26.4536 13.0833 24.2883 22.2751 26.9873 30.6125L0.625582 56.9744C0.226289 57.3735 0.00195312 57.915 0.00195312 58.4796V70.5217C0.00195312 71.6974 0.955062 72.6504 2.13066 72.6504H14.1727C14.7375 72.6504 15.2787 72.426 15.6781 72.0267L18.6891 69.0157C19.149 68.5557 19.3735 67.9108 19.2983 67.2646L18.9225 64.0318L23.4041 63.6094C24.4218 63.5135 25.2278 62.7076 25.3237 61.69L25.7464 57.2078L28.9795 57.5835C29.5831 57.654 30.1873 57.4628 30.6411 57.0588C31.0946 56.655 31.3541 56.0765 31.3541 55.469V51.5047H35.2463C35.8066 51.5047 36.3443 51.2838 36.7428 50.8899L42.0315 45.6622C50.371 48.3655 59.5674 46.2006 65.8049 39.9629C74.9346 30.833 74.9346 15.9773 65.8048 6.84753ZM62.7943 36.9526C57.4213 42.3254 49.3617 44.0025 42.2617 41.2256C41.4782 40.9192 40.5879 41.1028 39.9898 41.6941L34.3718 47.2473H29.2252C28.0496 47.2473 27.0965 48.2004 27.0965 49.376V53.0785L24.077 52.7276C23.5081 52.6616 22.9369 52.8273 22.4918 53.1875C22.0468 53.5477 21.7655 54.072 21.7118 54.6422L21.2502 59.536L16.3568 59.9972C15.7866 60.0509 15.2623 60.332 14.9019 60.7772C14.5417 61.2221 14.3758 61.7937 14.4419 62.3624L14.9502 66.7333L13.2908 68.3931H4.25923V59.3616L30.9493 32.6716C31.5472 32.0736 31.7347 31.1784 31.4266 30.3909C28.6494 23.2908 30.3268 15.2314 35.6996 9.85826C43.1698 2.38834 55.3243 2.38834 62.7942 9.85826C70.2641 17.328 70.2641 29.4826 62.7943 36.9526Z" fill="#4F9CF9"/>
<path d="M59.7818 12.8695C57.2918 10.3794 53.2401 10.3795 50.7503 12.8695C48.2603 15.3595 48.2603 19.411 50.7503 21.901C53.2401 24.3909 57.2918 24.3912 59.7818 21.901C62.2718 19.411 62.2718 15.3595 59.7818 12.8695ZM56.7713 18.8905C55.9414 19.7205 54.591 19.7206 53.7609 18.8905C52.9309 18.0606 52.9309 16.7102 53.7609 15.8801C54.5931 15.048 55.9393 15.048 56.7713 15.8801C57.6034 16.7121 57.6033 18.0584 56.7713 18.8905Z" fill="#4F9CF9"/>
</g>
<defs>
<clipPath id="clip0_107_72809">
<rect width="72.6503" height="72.6503" fill="white"/>
</clipPath>
</defs>
</svg>
