<svg width="15" height="15" viewBox="0 0 15 15" fill="none" xmlns="http://www.w3.org/2000/svg">
<path d="M14.9962 14.9997V14.9991H14.9999V9.48052C14.9999 6.78081 14.4246 4.70117 11.3002 4.70117C9.79826 4.70117 8.79033 5.53378 8.37884 6.32313H8.3354V4.95321H5.37305V14.9991H8.45767V10.0247C8.45767 8.71499 8.70344 7.44853 10.3091 7.44853C11.8911 7.44853 11.9147 8.94321 11.9147 10.1087V14.9997H14.9962Z" fill="#F7F7EE"/>
<path d="M0.223633 4.92578H3.35796V14.7765H0.223633V4.92578Z" fill="#F7F7EE"/>
<path d="M1.79104 0C0.802303 0 0 0.798563 0 1.78269C0 2.76683 0.802303 3.58209 1.79104 3.58209C2.77979 3.58209 3.58209 2.76683 3.58209 1.78269C3.58147 0.798563 2.77916 0 1.79104 0V0Z" fill="#F7F7EE"/>
</svg>
