<svg width="73" height="73" viewBox="0 0 73 73" fill="none" xmlns="http://www.w3.org/2000/svg">
<path d="M72.6319 72.65V72.647H72.65V45.9188C72.65 32.8432 69.8634 22.7708 54.7311 22.7708C47.4566 22.7708 42.5748 26.8034 40.5818 30.6265H40.3714V23.9915H26.0237V72.647H40.9636V48.5546C40.9636 42.2111 42.154 36.0772 49.9305 36.0772C57.5928 36.0772 57.7071 43.3164 57.7071 48.9615V72.65H72.6319Z" fill="#1A3453"/>
<path d="M1.08203 23.8564H16.2627V71.5671H1.08203V23.8564Z" fill="#1A3453"/>
<path d="M8.67466 0C3.88584 0 0 3.86772 0 8.63421C0 13.4007 3.88584 17.3493 8.67466 17.3493C13.4635 17.3493 17.3493 13.4007 17.3493 8.63421C17.3463 3.86772 13.4605 0 8.67466 0V0Z" fill="#1A3453"/>
</svg>
