<svg width="73" height="73" viewBox="0 0 73 73" fill="none" xmlns="http://www.w3.org/2000/svg">
<g clip-path="url(#clip0_107_72882)">
<path d="M70.381 15.8936H38.5965C37.3433 15.8936 36.3262 16.9107 36.3262 18.1639C36.3262 19.4171 37.3433 20.4342 38.5965 20.4342H63.7653L49.8164 31.2818L39.8134 24.9204L37.3796 28.7527L48.7312 35.9723C49.099 36.2084 49.5258 36.3264 49.9481 36.3264C50.4385 36.3264 50.9334 36.1675 51.3421 35.8497L68.1107 22.8044V52.2187H38.5965C37.3433 52.2187 36.3262 53.2358 36.3262 54.489C36.3262 55.7422 37.3433 56.7593 38.5965 56.7593H70.381C71.6342 56.7593 72.6513 55.7422 72.6513 54.489V18.1639C72.6513 16.9107 71.6342 15.8936 70.381 15.8936Z" fill="#1976D2"/>
<path d="M40.0439 2.79476C39.5263 2.3634 38.8316 2.17724 38.1777 2.31346L1.85258 9.12442C0.77645 9.32421 0 10.2596 0 11.3539V61.3009C0 62.3907 0.77645 63.3306 1.85258 63.5304L38.1777 70.3413C38.3139 70.3686 38.4547 70.3822 38.5955 70.3822C39.1222 70.3822 39.6353 70.2006 40.0439 69.86C40.5661 69.4287 40.8658 68.7839 40.8658 68.1119V4.54291C40.8658 3.86636 40.5661 3.22613 40.0439 2.79476Z" fill="#2196F3"/>
<path d="M20.4317 52.2189C14.1747 52.2189 9.08008 46.1072 9.08008 38.597C9.08008 31.0868 14.1747 24.9751 20.4317 24.9751C26.6887 24.9751 31.7833 31.0868 31.7833 38.597C31.7833 46.1072 26.6887 52.2189 20.4317 52.2189ZM20.4317 29.5157C16.6766 29.5157 13.6207 33.5887 13.6207 38.597C13.6207 43.6053 16.6766 47.6783 20.4317 47.6783C24.1868 47.6783 27.2426 43.6053 27.2426 38.597C27.2426 33.5887 24.1868 29.5157 20.4317 29.5157Z" fill="#FAFAFA"/>
</g>
<defs>
<clipPath id="clip0_107_72882">
<rect width="72.6503" height="72.6503" fill="white"/>
</clipPath>
</defs>
</svg>
