<svg width="73" height="73" viewBox="0 0 73 73" fill="none" xmlns="http://www.w3.org/2000/svg">
<g clip-path="url(#clip0_107_72824)">
<path d="M56.7584 26.6768H51.6449V15.0087C51.6449 6.73312 44.7702 0.000488281 36.3202 0.000488281C27.8703 0.000488281 20.9956 6.73312 20.9956 15.0087V26.6768H15.8926C11.1982 26.6768 7.37891 30.496 7.37891 35.1905V64.137C7.37891 68.8315 11.1982 72.6507 15.8926 72.6507H56.7584C61.4528 72.6507 65.2721 68.8315 65.2721 64.137V35.1905C65.2721 30.496 61.4528 26.6768 56.7584 26.6768ZM26.6714 15.0087C26.6714 9.86276 30.9999 5.67629 36.3202 5.67629C41.6406 5.67629 45.9691 9.86276 45.9691 15.0087V26.6768H26.6714V15.0087ZM59.5963 64.137C59.5963 65.7019 58.3232 66.9749 56.7584 66.9749H15.8926C14.3278 66.9749 13.0547 65.7019 13.0547 64.137V35.1905C13.0547 33.6256 14.3278 32.3526 15.8926 32.3526H56.7584C58.3232 32.3526 59.5963 33.6256 59.5963 35.1905V64.137Z" fill="#4F9CF9"/>
<path d="M36.3243 40.582C33.4247 40.582 31.0742 42.9325 31.0742 45.8321C31.0742 47.6836 32.0334 49.31 33.4812 50.2448V56.4743C33.4812 58.0415 34.7517 59.3122 36.3191 59.3122C37.8863 59.3122 39.157 58.0415 39.157 56.4743V50.2515C40.6106 49.3178 41.5745 47.6881 41.5745 45.8321C41.5745 42.9325 39.224 40.582 36.3243 40.582Z" fill="#4F9CF9"/>
</g>
<defs>
<clipPath id="clip0_107_72824">
<rect width="72.6503" height="72.6503" fill="white"/>
</clipPath>
</defs>
</svg>
