<svg width="73" height="73" viewBox="0 0 73 73" fill="none" xmlns="http://www.w3.org/2000/svg">
<path d="M33.6098 42.1978C33.0286 42.1978 32.4474 41.9764 32.0047 41.5325C31.1181 40.646 31.1181 39.2089 32.0047 38.3223L46.7175 23.6095C47.6029 22.7229 49.0423 22.7229 49.9277 23.6095C50.8143 24.4961 50.8143 25.9332 49.9277 26.8197L35.2149 41.5325C34.7722 41.9764 34.191 42.1978 33.6098 42.1978Z" fill="#FFE492"/>
<path d="M33.6129 42.199C33.0317 42.199 32.4517 41.9777 32.0078 41.5338L24.5907 34.1178C23.7041 33.2313 23.7041 31.7942 24.5907 30.9076C25.4761 30.021 26.9144 30.021 27.8009 30.9076L35.2181 38.3236C36.1046 39.2102 36.1046 40.6473 35.2181 41.5338C34.7754 41.9777 34.1942 42.199 33.6129 42.199Z" fill="#FFE492"/>
<path d="M36.3252 65.8392C36.0891 65.8392 35.8496 65.8017 35.6134 65.7245C21.1016 60.9375 11.3517 47.4541 11.3517 32.1714C11.3517 30.9182 12.3688 29.9011 13.622 29.9011C14.8752 29.9011 15.8923 30.9182 15.8923 32.1714C15.8923 45.4891 24.389 57.2403 37.0358 61.412C38.2266 61.8048 38.8736 63.0887 38.4809 64.2795C38.1664 65.2341 37.2787 65.8392 36.3252 65.8392Z" fill="#FFE492"/>
<path d="M13.622 34.4417C12.3688 34.4417 11.3517 33.4246 11.3517 32.1714V16.11C11.3517 14.8568 12.3688 13.8397 13.622 13.8397C14.8752 13.8397 15.8923 14.8568 15.8923 16.11V32.1714C15.8923 33.4258 14.8752 34.4417 13.622 34.4417Z" fill="#FFE492"/>
<path d="M13.6201 18.3808C12.5053 18.3808 11.5325 17.5589 11.3736 16.4226C11.201 15.1808 12.0672 14.0343 13.3102 13.8617C20.9793 12.7958 28.3817 10.5039 35.313 7.04962C36.4356 6.49112 37.799 6.94632 38.3575 8.06899C38.9171 9.19167 38.4596 10.5539 37.3381 11.1135C29.9652 14.7869 22.0918 17.2241 13.9345 18.3592C13.8289 18.374 13.7234 18.3808 13.6201 18.3808Z" fill="#FFE492"/>
<path d="M36.3252 65.8392C35.3728 65.8392 34.484 65.2341 34.1695 64.2795C33.7768 63.0887 34.4238 61.8048 35.6146 61.412C48.2614 57.2415 56.7581 45.4903 56.7581 32.1714C56.7581 30.9182 57.7752 29.9011 59.0284 29.9011C60.2816 29.9011 61.2987 30.9182 61.2987 32.1714C61.2987 47.453 51.5489 60.9375 37.0358 65.7245C36.7997 65.8028 36.5613 65.8392 36.3252 65.8392Z" fill="#FFE492"/>
<path d="M59.0281 34.4417C57.7749 34.4417 56.7578 33.4246 56.7578 32.1714V16.11C56.7578 14.8568 57.7749 13.8397 59.0281 13.8397C60.2813 13.8397 61.2984 14.8568 61.2984 16.11V32.1714C61.2984 33.4258 60.2813 34.4417 59.0281 34.4417Z" fill="#FFE492"/>
<path d="M59.0321 18.3808C58.9277 18.3808 58.8221 18.374 58.7165 18.3592C50.5593 17.2241 42.6858 14.7869 35.3129 11.1135C34.1914 10.5539 33.7339 9.19167 34.2936 8.06899C34.8521 6.94632 36.2154 6.49112 37.3381 7.04962C44.2693 10.5028 51.6717 12.7958 59.3409 13.8617C60.5827 14.0343 61.45 15.1819 61.2774 16.4226C61.1208 17.5589 60.148 18.3808 59.0321 18.3808Z" fill="#FFE492"/>
</svg>
