<svg width="73" height="73" viewBox="0 0 73 73" fill="none" xmlns="http://www.w3.org/2000/svg">
<g clip-path="url(#clip0_107_72843)">
<path d="M26.5952 38.4536C22.4039 38.4536 18.9941 41.8633 18.9941 46.0546V65.0491C18.9941 69.2404 22.4039 72.6502 26.5952 72.6502C30.7865 72.6503 34.1962 69.2406 34.1962 65.0493V46.0546C34.1962 41.8633 30.7865 38.4536 26.5952 38.4536Z" fill="#FF4340"/>
<path d="M14.7408 38.4536H7.38211C3.32448 38.4536 0.0234375 41.7548 0.0234375 45.8123C0.0234375 49.8699 3.32463 53.171 7.38211 53.171C11.4396 53.171 14.7408 49.8698 14.7408 45.8123V38.4536Z" fill="#FF4340"/>
<path d="M0 26.596C0 30.7873 3.40974 34.1971 7.60103 34.1971H26.5955C30.787 34.1971 34.1967 30.7873 34.1967 26.596C34.1967 22.4047 30.787 18.995 26.5957 18.995H7.60103C3.40974 18.9949 0 22.4047 0 26.596H0Z" fill="#36C6FF"/>
<path d="M26.8391 14.7374H34.1978V7.3787C34.1978 3.32107 30.8966 0.0200195 26.8391 0.0200195C22.7815 0.0200195 19.4805 3.32121 19.4805 7.3787C19.4805 11.4362 22.7815 14.7374 26.8391 14.7374Z" fill="#36C6FF"/>
<path d="M46.0539 34.1967C50.2452 34.1967 53.655 30.787 53.655 26.5957V7.60103C53.6551 3.40974 50.2452 0 46.0539 0C41.8626 0 38.4529 3.40974 38.4529 7.60103V26.5955C38.4529 30.787 41.8626 34.1967 46.0539 34.1967Z" fill="#0DC46E"/>
<path d="M57.9121 34.1973H65.2708C69.3284 34.1973 72.6295 30.8961 72.6295 26.8387C72.6295 22.781 69.3283 19.48 65.2708 19.48C61.2133 19.48 57.9121 22.7812 57.9121 26.8387V34.1973Z" fill="#0DC46E"/>
<path d="M72.65 46.055C72.65 41.8637 69.2402 38.454 65.0489 38.454H46.0543C41.863 38.454 38.4533 41.8637 38.4533 46.055C38.4533 50.2463 41.863 53.656 46.0543 53.656H65.0488C69.2402 53.6562 72.65 50.2463 72.65 46.055Z" fill="#FDCB02"/>
<path d="M45.8119 57.9124H38.4533V65.271C38.4533 69.3287 41.7544 72.6297 45.8119 72.6297C49.8696 72.6297 53.1706 69.3285 53.1706 65.271C53.1706 61.2135 49.8696 57.9124 45.8119 57.9124Z" fill="#FDCB02"/>
</g>
<defs>
<clipPath id="clip0_107_72843">
<rect width="72.6503" height="72.6503" fill="white"/>
</clipPath>
</defs>
</svg>
