<svg width="73" height="60" viewBox="0 0 73 60" fill="none" xmlns="http://www.w3.org/2000/svg">
<path d="M72.6503 6.98805C69.9486 8.17316 67.0698 8.95869 64.0685 9.3401C67.1561 7.4966 69.5127 4.59967 70.6206 1.10792C67.7418 2.82428 64.5634 4.03663 61.1761 4.71319C58.4426 1.80264 54.5467 0 50.2967 0C42.0509 0 35.4125 6.69291 35.4125 14.8978C35.4125 16.0784 35.5124 17.2136 35.7575 18.2942C23.3752 17.6903 12.4187 11.7557 5.05827 2.7153C3.77327 4.94476 3.01953 7.4966 3.01953 10.2437C3.01953 15.4019 5.6758 19.9743 9.63524 22.6215C7.24232 22.5761 4.89481 21.8814 2.90601 20.7871C2.90601 20.8325 2.90601 20.8915 2.90601 20.9505C2.90601 28.1883 8.06872 34.2001 14.8388 35.585C13.6265 35.9165 12.3051 36.0754 10.9339 36.0754C9.98033 36.0754 9.01771 36.0209 8.11413 35.8211C10.0439 41.7194 15.5199 46.0557 22.0312 46.1965C16.9638 50.1605 10.5297 52.5488 3.5644 52.5488C2.34297 52.5488 1.17149 52.4944 0 52.3445C6.59755 56.5991 14.4165 59.0283 22.8485 59.0283C50.2558 59.0283 65.2399 36.3251 65.2399 16.646C65.2399 15.9876 65.2172 15.3519 65.1854 14.7208C68.1414 12.623 70.6251 10.003 72.6503 6.98805Z" fill="#1A3453"/>
</svg>
